<svg width="120" height="30" viewBox="0 0 120 30" fill="none" xmlns="http://www.w3.org/2000/svg">
<path d="M7.68179 1.07067C7.37139 1.20334 7.2555 1.46478 7.25137 2.01886V2.32322H5.22756H3.2079L3.07132 2.40906C2.78989 2.59246 2.67815 2.84999 2.74851 3.15825C2.79403 3.36505 3.01752 3.59527 3.23273 3.6499C3.45208 3.70843 12.495 3.70453 12.7351 3.646C13.0869 3.56015 13.3352 3.21287 13.269 2.88901C13.2359 2.70952 13.0993 2.52222 12.9255 2.41296L12.7848 2.32322H10.7651H8.74128V1.99935C8.74128 1.44137 8.61712 1.19164 8.27775 1.05507C8.07496 0.977027 7.88872 0.980929 7.68179 1.07067Z" fill="#2E7D32"/>
<path d="M0.476273 4.82447C0.281756 4.8791 0.0706841 5.09371 0.0168815 5.28881C-0.0203664 5.42538 0.000326885 5.63609 0.116209 6.47502C0.190705 7.033 0.265201 7.55197 0.277617 7.6183L0.302449 7.74707H1.02258C1.69718 7.74707 1.74684 7.74317 1.74684 7.67683C1.74684 7.6027 1.60199 6.51013 1.55646 6.27211L1.53577 6.14725H7.99622C11.5472 6.14725 14.4525 6.15895 14.4525 6.17456C14.4525 6.19407 14.407 6.52964 14.3491 6.92375C14.2911 7.31785 14.2456 7.66123 14.2456 7.69244C14.2456 7.73536 14.378 7.74707 14.9699 7.74707C15.6858 7.74707 15.6941 7.74707 15.7107 7.65732C15.7231 7.6105 15.7976 7.09153 15.8804 6.51013C16.0045 5.61267 16.0211 5.42148 15.9797 5.281C15.9259 5.082 15.7107 4.8791 15.4955 4.82057C15.2968 4.76984 0.666651 4.77374 0.476273 4.82447Z" fill="#2E7D32"/>
<path d="M2.07812 20.4019C2.07812 20.5111 2.36783 22.4972 2.3968 22.5636C2.4506 22.7119 2.58718 22.8523 2.74445 22.9265C2.90172 23.0045 2.98449 23.0045 8.05021 22.9967L13.1987 22.985L13.3477 22.8757C13.4305 22.8172 13.5298 22.7158 13.5629 22.6533C13.6167 22.5597 13.9147 20.6555 13.9147 20.4175C13.9147 20.3589 13.8526 20.3511 13.1946 20.3511C12.4827 20.3511 12.4744 20.3511 12.4537 20.437C12.4413 20.4877 12.3999 20.7765 12.3586 21.0847L12.2841 21.6388L8.00055 21.631L3.7129 21.6193L3.62184 20.995C3.57218 20.6516 3.53079 20.3667 3.53079 20.3589C3.52666 20.355 3.1997 20.3511 2.80239 20.3511C2.22298 20.3511 2.07812 20.3628 2.07812 20.4019Z" fill="#2E7D32"/>
<path d="M6.35209 7.99528C6.0151 8.13661 5.88423 8.28468 5.49489 8.95769C5.22661 9.42207 5.14482 9.5836 5.16118 9.64417C5.17426 9.70137 5.45236 9.90664 6.21468 10.4215C7.10459 11.0205 7.26163 11.1113 7.32052 11.0844C7.36305 11.0642 7.53318 10.7748 7.76548 10.3239C7.9716 9.92347 8.15481 9.60042 8.1679 9.60715C8.19408 9.61388 9.00874 11.2056 9.00547 11.2459C9.00547 11.256 8.83534 11.3671 8.62922 11.4983C8.21371 11.7507 8.13191 11.8382 8.1908 11.9492C8.21043 11.9896 8.25951 12.0266 8.29877 12.0334C8.50816 12.0805 10.9849 12.3564 11.0372 12.3396C11.0699 12.3295 11.1354 12.2353 11.1844 12.1276C11.9239 10.5359 12.4113 9.4389 12.4113 9.37496C12.4113 9.32112 12.3852 9.28074 12.3328 9.25718C12.2641 9.22353 12.202 9.24709 11.8388 9.44563C11.5083 9.62734 11.4167 9.66436 11.3938 9.62734C11.3775 9.60042 11.2139 9.31103 11.0307 8.98125C10.7657 8.50677 10.6577 8.34188 10.5105 8.20055C10.1996 7.90442 10.2684 7.91452 8.27587 7.91452H6.53858L6.35209 7.99528ZM7.74912 8.71204C7.8669 8.96442 7.96178 9.18988 7.96178 9.2168C7.96178 9.26055 7.2649 10.5965 7.21583 10.647C7.1962 10.6672 5.66175 9.66099 5.5636 9.56677C5.5407 9.54322 5.99874 8.71204 6.10671 8.58753C6.32919 8.32169 6.53531 8.25439 7.10132 8.25103H7.53646L7.74912 8.71204ZM10.0328 8.30487C10.2945 8.39572 10.4189 8.54715 10.8246 9.2942C11.0339 9.67445 11.2335 10.0143 11.2695 10.0513C11.3317 10.1186 11.3349 10.1186 11.6 9.97731C11.7505 9.89991 11.8748 9.84271 11.8813 9.84944C11.8911 9.85953 10.9751 11.8752 10.9096 11.9795C10.89 12.0132 10.6904 11.9964 9.93137 11.9021C9.40462 11.8382 8.95966 11.7844 8.94003 11.7844C8.86805 11.7844 8.93349 11.7137 9.15597 11.5589C9.28029 11.468 9.38826 11.3738 9.3948 11.3435C9.40135 11.3132 9.0709 10.6234 8.66521 9.80569C8.25951 8.99134 7.92906 8.30823 7.92906 8.28804C7.92906 8.26112 8.21698 8.25103 8.90404 8.25103C9.70889 8.25103 9.90846 8.26112 10.0328 8.30487Z" fill="#2E7D32"/>
<path d="M5.39329 10.9669C5.32131 10.9737 4.69968 11.0174 4.00935 11.0612C3.17178 11.115 2.73991 11.1554 2.7072 11.1823C2.67775 11.2059 2.66139 11.2664 2.66794 11.327C2.67775 11.4179 2.72683 11.4582 3.10308 11.7106C3.33864 11.8654 3.54803 12.0034 3.57094 12.0168C3.60692 12.037 3.53495 12.2154 3.26994 12.7874C3.08017 13.198 2.90677 13.6119 2.88714 13.7095C2.84134 13.9282 2.86751 14.2479 2.95258 14.4633C3.06709 14.756 4.61135 17.5524 4.74876 17.7106C4.90253 17.8889 5.21662 18.0605 5.47181 18.111C5.56669 18.1278 5.82189 18.1446 6.03455 18.1446C6.60711 18.1446 6.55476 18.2994 6.55476 16.6304C6.55476 15.2944 6.55149 15.2473 6.48932 15.1834C6.42716 15.1194 6.38136 15.1161 5.73682 15.1161C5.32131 15.1161 5.04976 15.1026 5.04976 15.0824C5.04976 15.0219 5.91023 13.4672 5.94622 13.4672C5.96585 13.4672 6.14906 13.5345 6.35518 13.6186C6.70526 13.76 6.7347 13.7667 6.80668 13.7196C6.84594 13.6893 6.88193 13.6354 6.88193 13.5984C6.88193 13.4975 5.8088 11.0376 5.74337 10.9838C5.69102 10.9434 5.65503 10.9434 5.39329 10.9669ZM5.98548 12.2692C6.20795 12.7874 6.3879 13.2215 6.38463 13.235C6.37808 13.2518 6.27339 13.2182 6.14579 13.161C5.85134 13.0331 5.7859 13.0365 5.70411 13.1711C5.66812 13.2316 5.3115 13.8912 4.90908 14.6349C4.50992 15.3819 4.17293 15.991 4.16312 15.991C4.1533 15.991 3.94391 15.6208 3.69853 15.1699C3.21759 14.2849 3.16851 14.1402 3.22086 13.8104C3.23395 13.7196 3.40408 13.309 3.62655 12.8312C3.88502 12.276 4.0028 11.9899 3.98972 11.9394C3.9799 11.8957 3.85558 11.7914 3.66909 11.6702C3.50223 11.5592 3.38445 11.465 3.40408 11.4582C3.46951 11.4347 5.17736 11.3203 5.38675 11.327L5.57651 11.3304L5.98548 12.2692ZM6.22759 16.6304V17.7745H5.82516C5.462 17.7745 5.40638 17.7678 5.25915 17.6904C5.16754 17.6433 5.0563 17.5625 5.00723 17.512C4.8829 17.3774 4.35942 16.4217 4.37251 16.3578C4.37905 16.3275 4.49356 16.1222 4.62116 15.8968L4.85673 15.4862H5.54052H6.22759V16.6304Z" fill="#2E7D32"/>
<path d="M11.2662 12.6091C10.3436 13.1879 10.1702 13.3056 10.1604 13.3763C10.1538 13.4335 10.2684 13.6893 10.5105 14.1469C10.71 14.5238 10.8802 14.8603 10.8933 14.8906C10.9129 14.9444 10.8474 14.9478 10.0786 14.9478H9.2443L9.23121 14.5103C9.2214 14.1234 9.21485 14.0695 9.15596 14.0258C9.11997 13.9955 9.06762 13.9753 9.04145 13.982C8.99892 13.9888 7.27799 15.9674 7.15366 16.1491C7.12421 16.1962 7.11113 16.2568 7.12421 16.3006C7.13403 16.3443 7.55281 16.9366 8.05339 17.623C8.97929 18.895 9.03491 18.9556 9.15923 18.8513C9.19195 18.821 9.20504 18.7268 9.20504 18.4778V18.1446H9.87574C10.5694 18.1446 10.8016 18.1143 11.0176 18.0033C11.2826 17.8653 11.4233 17.6634 12.0318 16.5428C12.3557 15.954 12.7352 15.2675 12.8792 15.0185C13.0232 14.7728 13.1737 14.4901 13.2162 14.3926C13.3143 14.1738 13.3471 13.8441 13.298 13.6051C13.2783 13.5075 13.1017 13.0869 12.9054 12.673C12.5618 11.9529 12.5422 11.9192 12.4539 11.9226C12.395 11.9226 11.9827 12.1615 11.2662 12.6091ZM12.6665 12.9153C12.817 13.2417 12.9577 13.5883 12.9773 13.6893C13.033 13.9618 12.9773 14.1738 12.7385 14.5945L12.5357 14.9478L11.914 14.9411L11.2891 14.931L10.9194 14.2243C10.7133 13.834 10.5464 13.5008 10.5464 13.484C10.5497 13.4537 12.3328 12.323 12.3786 12.323C12.3884 12.323 12.516 12.5889 12.6665 12.9153ZM8.94003 15.2305C8.97929 15.2776 9.14287 15.2843 10.6479 15.2843C11.564 15.2843 12.3132 15.2978 12.3132 15.3146C12.3132 15.3381 11.3186 17.1687 11.1615 17.4312C11.1255 17.4918 11.0274 17.5894 10.9456 17.65L10.7918 17.7576L9.90846 17.7677C9.06108 17.7778 9.02182 17.7812 8.95311 17.8485C8.90404 17.8956 8.87786 17.9595 8.87786 18.0336C8.87786 18.0941 8.86805 18.1446 8.85496 18.1413C8.81243 18.1379 7.52009 16.3275 7.52009 16.2736C7.52009 16.2467 7.82109 15.8698 8.1908 15.4324L8.86151 14.6382L8.87786 14.9074C8.88768 15.0588 8.91385 15.1968 8.94003 15.2305Z" fill="#2E7D32"/>
<path d="M29.11 20V7.29H24.2V5.6H35.8V7.29H30.89V20H29.11ZM36.3961 20V9.2H37.9861V11.81L37.7261 11.47C37.8528 11.1367 38.0161 10.83 38.2161 10.55C38.4228 10.27 38.6528 10.04 38.9061 9.86C39.1861 9.63333 39.5028 9.46 39.8561 9.34C40.2094 9.22 40.5694 9.15 40.9361 9.13C41.3028 9.10333 41.6461 9.12667 41.9661 9.2V10.87C41.5928 10.77 41.1828 10.7433 40.7361 10.79C40.2894 10.8367 39.8761 11 39.4961 11.28C39.1494 11.5267 38.8794 11.8267 38.6861 12.18C38.4994 12.5333 38.3694 12.9167 38.2961 13.33C38.2228 13.7367 38.1861 14.1533 38.1861 14.58V20H36.3961ZM46.5755 20.3C45.7688 20.3 45.0921 20.1533 44.5455 19.86C44.0055 19.56 43.5955 19.1667 43.3155 18.68C43.0421 18.1933 42.9055 17.66 42.9055 17.08C42.9055 16.5133 43.0121 16.0233 43.2255 15.61C43.4455 15.19 43.7521 14.8433 44.1455 14.57C44.5388 14.29 45.0088 14.07 45.5555 13.91C46.0688 13.77 46.6421 13.65 47.2755 13.55C47.9155 13.4433 48.5621 13.3467 49.2155 13.26C49.8688 13.1733 50.4788 13.09 51.0455 13.01L50.4055 13.38C50.4255 12.42 50.2321 11.71 49.8255 11.25C49.4255 10.79 48.7321 10.56 47.7455 10.56C47.0921 10.56 46.5188 10.71 46.0255 11.01C45.5388 11.3033 45.1955 11.7833 44.9955 12.45L43.3055 11.94C43.5655 10.9933 44.0688 10.25 44.8155 9.71C45.5621 9.17 46.5455 8.9 47.7655 8.9C48.7455 8.9 49.5855 9.07667 50.2855 9.43C50.9921 9.77667 51.4988 10.3033 51.8055 11.01C51.9588 11.3433 52.0555 11.7067 52.0955 12.1C52.1355 12.4867 52.1555 12.8933 52.1555 13.32V20H50.5755V17.41L50.9455 17.65C50.5388 18.5233 49.9688 19.1833 49.2355 19.63C48.5088 20.0767 47.6221 20.3 46.5755 20.3ZM46.8455 18.81C47.4855 18.81 48.0388 18.6967 48.5055 18.47C48.9788 18.2367 49.3588 17.9333 49.6455 17.56C49.9321 17.18 50.1188 16.7667 50.2055 16.32C50.3055 15.9867 50.3588 15.6167 50.3655 15.21C50.3788 14.7967 50.3855 14.48 50.3855 14.26L51.0055 14.53C50.4255 14.61 49.8555 14.6867 49.2955 14.76C48.7355 14.8333 48.2055 14.9133 47.7055 15C47.2055 15.08 46.7555 15.1767 46.3555 15.29C46.0621 15.3833 45.7855 15.5033 45.5255 15.65C45.2721 15.7967 45.0655 15.9867 44.9055 16.22C44.7521 16.4467 44.6755 16.73 44.6755 17.07C44.6755 17.3633 44.7488 17.6433 44.8955 17.91C45.0488 18.1767 45.2821 18.3933 45.5955 18.56C45.9155 18.7267 46.3321 18.81 46.8455 18.81ZM58.8355 20.29C57.5488 20.29 56.4921 20.01 55.6655 19.45C54.8455 18.8833 54.3421 18.0933 54.1555 17.08L55.9755 16.79C56.1221 17.3767 56.4588 17.8433 56.9855 18.19C57.5121 18.53 58.1655 18.7 58.9455 18.7C59.6855 18.7 60.2655 18.5467 60.6855 18.24C61.1055 17.9333 61.3155 17.5167 61.3155 16.99C61.3155 16.6833 61.2455 16.4367 61.1055 16.25C60.9655 16.0567 60.6755 15.8767 60.2355 15.71C59.8021 15.5433 59.1455 15.3433 58.2655 15.11C57.3121 14.8567 56.5621 14.5933 56.0155 14.32C55.4688 14.0467 55.0788 13.73 54.8455 13.37C54.6121 13.01 54.4955 12.5733 54.4955 12.06C54.4955 11.4267 54.6688 10.8733 55.0155 10.4C55.3621 9.92 55.8455 9.55 56.4655 9.29C57.0921 9.03 57.8188 8.9 58.6455 8.9C59.4655 8.9 60.1988 9.03 60.8455 9.29C61.4921 9.55 62.0121 9.92 62.4055 10.4C62.8055 10.8733 63.0421 11.4267 63.1155 12.06L61.2955 12.39C61.2088 11.81 60.9288 11.3533 60.4555 11.02C59.9888 10.6867 59.3855 10.51 58.6455 10.49C57.9455 10.4633 57.3755 10.5867 56.9355 10.86C56.5021 11.1333 56.2855 11.5033 56.2855 11.97C56.2855 12.23 56.3655 12.4533 56.5255 12.64C56.6921 12.8267 56.9955 13.0033 57.4355 13.17C57.8821 13.3367 58.5288 13.5267 59.3755 13.74C60.3288 13.98 61.0788 14.2433 61.6255 14.53C62.1788 14.81 62.5721 15.1433 62.8055 15.53C63.0388 15.91 63.1555 16.38 63.1555 16.94C63.1555 17.98 62.7721 18.8 62.0055 19.4C61.2388 19.9933 60.1821 20.29 58.8355 20.29ZM73.0509 20V14.59C73.0509 14.0767 73.0043 13.5833 72.9109 13.11C72.8243 12.6367 72.6676 12.2133 72.4409 11.84C72.2209 11.46 71.9209 11.16 71.5409 10.94C71.1676 10.72 70.6943 10.61 70.1209 10.61C69.6743 10.61 69.2676 10.6867 68.9009 10.84C68.5409 10.9867 68.2309 11.2133 67.9709 11.52C67.7109 11.8267 67.5076 12.2133 67.3609 12.68C67.2209 13.14 67.1509 13.6833 67.1509 14.31L65.9809 13.95C65.9809 12.9033 66.1676 12.0067 66.5409 11.26C66.9209 10.5067 67.4509 9.93 68.1309 9.53C68.8176 9.12333 69.6243 8.92 70.5509 8.92C71.2509 8.92 71.8476 9.03 72.3409 9.25C72.8343 9.47 73.2443 9.76333 73.5709 10.13C73.8976 10.49 74.1543 10.8967 74.3409 11.35C74.5276 11.7967 74.6576 12.2533 74.7309 12.72C74.8109 13.18 74.8509 13.6167 74.8509 14.03V20H73.0509ZM65.3509 20V5.6H66.9509V13.55H67.1509V20H65.3509ZM77.4508 20V5.6H83.0608C83.9208 5.6 84.6541 5.77667 85.2608 6.13C85.8741 6.48333 86.3408 6.95 86.6608 7.53C86.9874 8.10333 87.1508 8.72333 87.1508 9.39C87.1508 10.17 86.9508 10.8533 86.5508 11.44C86.1508 12.0267 85.6108 12.43 84.9308 12.65L84.9108 12.16C85.8374 12.4067 86.5574 12.86 87.0708 13.52C87.5841 14.18 87.8408 14.9667 87.8408 15.88C87.8408 16.72 87.6674 17.4467 87.3208 18.06C86.9808 18.6733 86.4874 19.15 85.8408 19.49C85.2008 19.83 84.4408 20 83.5608 20H77.4508ZM79.2508 18.3H83.2208C83.7541 18.3 84.2308 18.2033 84.6508 18.01C85.0708 17.81 85.4008 17.53 85.6408 17.17C85.8874 16.81 86.0108 16.3767 86.0108 15.87C86.0108 15.3833 85.9008 14.9467 85.6808 14.56C85.4674 14.1733 85.1641 13.8667 84.7708 13.64C84.3841 13.4067 83.9341 13.29 83.4208 13.29H79.2508V18.3ZM79.2508 11.61H83.0408C83.4674 11.61 83.8508 11.52 84.1908 11.34C84.5374 11.1533 84.8108 10.8933 85.0108 10.56C85.2174 10.2267 85.3208 9.83667 85.3208 9.39C85.3208 8.77 85.1108 8.26333 84.6908 7.87C84.2708 7.47667 83.7208 7.28 83.0408 7.28H79.2508V11.61ZM94.5136 20.3C93.4536 20.3 92.5269 20.0667 91.7336 19.6C90.9469 19.1267 90.3336 18.47 89.8936 17.63C89.4536 16.7833 89.2336 15.7967 89.2336 14.67C89.2336 13.49 89.4503 12.47 89.8836 11.61C90.3169 10.7433 90.9203 10.0767 91.6936 9.61C92.4736 9.13667 93.3869 8.9 94.4336 8.9C95.5203 8.9 96.4436 9.15 97.2036 9.65C97.9703 10.15 98.5436 10.8633 98.9236 11.79C99.3103 12.7167 99.4769 13.82 99.4236 15.1H97.6236V14.46C97.6036 13.1333 97.3336 12.1433 96.8136 11.49C96.2936 10.83 95.5203 10.5 94.4936 10.5C93.3936 10.5 92.5569 10.8533 91.9836 11.56C91.4103 12.2667 91.1236 13.28 91.1236 14.6C91.1236 15.8733 91.4103 16.86 91.9836 17.56C92.5569 18.26 93.3736 18.61 94.4336 18.61C95.1469 18.61 95.7669 18.4467 96.2936 18.12C96.8203 17.7933 97.2336 17.3233 97.5336 16.71L99.2436 17.3C98.8236 18.2533 98.1903 18.9933 97.3436 19.52C96.5036 20.04 95.5603 20.3 94.5136 20.3ZM90.5236 15.1V13.67H98.5036V15.1H90.5236ZM107.68 20C107.04 20.1267 106.407 20.1767 105.78 20.15C105.16 20.13 104.607 20.0067 104.12 19.78C103.633 19.5467 103.263 19.1867 103.01 18.7C102.797 18.2733 102.68 17.8433 102.66 17.41C102.647 16.97 102.64 16.4733 102.64 15.92V6.2H104.42V15.84C104.42 16.28 104.423 16.6567 104.43 16.97C104.443 17.2833 104.513 17.5533 104.64 17.78C104.88 18.2067 105.26 18.4567 105.78 18.53C106.307 18.6033 106.94 18.5833 107.68 18.47V20ZM100.45 10.67V9.2H107.68V10.67H100.45ZM112.943 20.3C112.136 20.3 111.459 20.1533 110.913 19.86C110.373 19.56 109.963 19.1667 109.683 18.68C109.409 18.1933 109.273 17.66 109.273 17.08C109.273 16.5133 109.379 16.0233 109.593 15.61C109.813 15.19 110.119 14.8433 110.513 14.57C110.906 14.29 111.376 14.07 111.923 13.91C112.436 13.77 113.009 13.65 113.643 13.55C114.283 13.4433 114.929 13.3467 115.583 13.26C116.236 13.1733 116.846 13.09 117.413 13.01L116.773 13.38C116.793 12.42 116.599 11.71 116.193 11.25C115.793 10.79 115.099 10.56 114.113 10.56C113.459 10.56 112.886 10.71 112.393 11.01C111.906 11.3033 111.563 11.7833 111.363 12.45L109.673 11.94C109.933 10.9933 110.436 10.25 111.183 9.71C111.929 9.17 112.913 8.9 114.133 8.9C115.113 8.9 115.953 9.07667 116.653 9.43C117.359 9.77667 117.866 10.3033 118.173 11.01C118.326 11.3433 118.423 11.7067 118.463 12.1C118.503 12.4867 118.523 12.8933 118.523 13.32V20H116.943V17.41L117.313 17.65C116.906 18.5233 116.336 19.1833 115.603 19.63C114.876 20.0767 113.989 20.3 112.943 20.3ZM113.213 18.81C113.853 18.81 114.406 18.6967 114.873 18.47C115.346 18.2367 115.726 17.9333 116.013 17.56C116.299 17.18 116.486 16.7667 116.573 16.32C116.673 15.9867 116.726 15.6167 116.733 15.21C116.746 14.7967 116.753 14.48 116.753 14.26L117.373 14.53C116.793 14.61 116.223 14.6867 115.663 14.76C115.103 14.8333 114.573 14.9133 114.073 15C113.573 15.08 113.123 15.1767 112.723 15.29C112.429 15.3833 112.153 15.5033 111.893 15.65C111.639 15.7967 111.433 15.9867 111.273 16.22C111.119 16.4467 111.043 16.73 111.043 17.07C111.043 17.3633 111.116 17.6433 111.263 17.91C111.416 18.1767 111.649 18.3933 111.963 18.56C112.283 18.7267 112.699 18.81 113.213 18.81Z" fill="#2E7D32"/>
<mask id="mask0_2111_11415" style="mask-type:alpha" maskUnits="userSpaceOnUse" x="0" y="24" width="120" height="6">
<rect width="120" height="5.95041" transform="matrix(-1 0 0 1 120 24)" fill="#C4C4C4"/>
</mask>
<g mask="url(#mask0_2111_11415)">
<path d="M100.335 23.2626L99.9768 23.1934L100.674 23.0942L100.34 23.0216C100.005 23.0223 99.5704 23.1311 99.334 23.0733C99.3051 23.0173 99.6702 22.9993 99.7633 22.9548C99.8457 22.9091 99.913 22.8637 99.9643 22.8191C99.7818 22.8196 99.581 22.8304 99.3741 22.8508C99.0958 22.8842 98.8228 22.9004 98.5852 22.8977C98.0994 22.9067 97.6301 22.8977 97.102 22.8997L97.2777 22.765L96.5971 22.7965C96.5249 22.8068 96.439 22.7903 96.3681 22.803C95.7782 22.9104 95.5286 22.8519 95.2454 22.8033C95.1873 22.7908 95.1174 22.7814 95.0374 22.7754C94.2505 22.8012 93.5409 22.9517 92.8323 23.029C92.6989 23.0487 92.571 23.074 92.4576 23.1032C92.2111 23.1598 91.9369 23.206 91.6601 23.2376C91.3833 23.2692 91.1128 23.2852 90.8731 23.2841C90.3433 23.2829 89.7447 23.3203 89.1353 23.3928C88.954 23.4167 88.7727 23.4325 88.6028 23.4391C88.4329 23.4457 88.2781 23.4431 88.1485 23.4313L87.7364 23.5082C87.5578 23.477 87.3313 23.4599 87.0707 23.4579C86.8101 23.4559 86.5208 23.4691 86.2204 23.4966C85.9003 23.5264 85.5751 23.5466 85.2429 23.5781C84.5568 23.6385 83.889 23.6754 83.2603 23.6877C82.3241 23.7242 81.4094 23.7525 80.4649 23.798C79.8741 23.82 79.2984 23.8321 78.7413 23.8342C78.074 23.8428 77.3522 23.8844 76.6106 23.957V23.957C76.6458 24.0251 76.9709 24.005 77.1892 24.0027C77.8932 23.9914 78.6137 23.962 79.338 23.94C79.6642 23.9314 79.9815 23.9281 80.288 23.9302C80.8004 23.9274 81.3405 23.9093 81.8991 23.8761C82.7816 23.8396 83.6359 23.8221 84.4533 23.8236C84.5174 23.8263 84.5761 23.8311 84.6284 23.8379C84.6394 23.8438 84.6415 23.8512 84.6347 23.8594C84.6279 23.8677 84.6123 23.8764 84.5895 23.8849C84.5667 23.8934 84.5374 23.9013 84.5044 23.9079C84.4714 23.9145 84.4358 23.9195 84.401 23.9225C84.0764 23.9686 83.7277 24.0182 83.4216 24.0252C83.4097 24.0257 83.3971 24.0269 83.3847 24.0287C83.3722 24.0305 83.3602 24.0328 83.3494 24.0355C82.6641 24.1329 82.1006 24.1164 81.5667 24.1323C80.6804 24.1752 79.8259 24.1952 79.0163 24.1921C78.894 24.1923 78.7618 24.1978 78.6248 24.2086C77.7768 24.2521 76.9839 24.2569 76.2833 24.2229C75.9949 24.2143 75.7268 24.195 75.4169 24.1947C75.226 24.1933 75.0598 24.181 74.9284 24.1584C74.797 24.1358 74.703 24.1034 74.6521 24.0632C74.5213 24.0844 74.3885 24.1032 74.2553 24.1196C74.1757 24.129 74.0994 24.1314 74.0418 24.1265C73.9842 24.1216 73.9495 24.1097 73.9448 24.0932C73.921 24.047 74.1026 24.0238 74.2601 24.004C74.1651 23.9941 74.0581 23.9883 73.9414 23.9866C73.2848 23.9761 72.5806 23.9885 71.844 24.0238C71.272 24.0659 70.8155 24.0316 70.2138 24.0911C70.1417 24.1013 70.0823 24.0863 70.0159 24.0827C69.8427 24.0636 69.627 24.0593 69.3875 24.0702C69.148 24.081 68.8918 24.1067 68.6412 24.145C68.3292 24.0405 67.6551 24.1598 67.1573 24.1706C67.0041 24.2237 67.1799 24.2144 67.1875 24.229C67.195 24.2436 67.1875 24.229 67.2476 24.2204C67.7446 24.2957 68.4255 24.3121 69.1948 24.2673C69.3371 24.2675 69.4727 24.2709 69.6002 24.2776C69.7934 24.287 70.0112 24.286 70.2441 24.2748C70.4986 24.2666 70.7323 24.2705 70.9341 24.2864C71.0502 24.2861 71.1484 24.2941 71.2195 24.3095C71.2907 24.325 71.3325 24.3474 71.3411 24.3747C71.2636 24.3958 71.1776 24.4151 71.0866 24.4318C70.6114 24.4979 70.1375 24.5252 69.7581 24.5085C69.0979 24.4796 68.3122 24.5078 67.6102 24.4979C67.1357 24.4939 66.6307 24.5053 66.1048 24.5318C66.1048 24.5318 66.1186 24.5586 66.1199 24.561C66.0577 24.5726 65.9923 24.5819 65.9275 24.5884C65.9275 24.5884 65.9275 24.5884 65.9212 24.5762C65.95 24.5645 65.9891 24.5535 66.0339 24.5445L66.1902 24.5223C66.084 24.5165 65.9847 24.4992 65.874 24.5098C65.6407 24.5293 65.4178 24.5376 65.2185 24.534C65.0193 24.5305 64.8479 24.5153 64.7148 24.4892C64.4787 24.4558 64.1851 24.4406 63.8529 24.4446C63.5983 24.441 63.3529 24.4332 63.118 24.4212C63.118 24.4212 63.1029 24.392 62.9917 24.3765C63.097 24.3573 63.2069 24.3417 63.3163 24.3303C63.792 24.3018 64.269 24.2758 64.7365 24.2563C64.9087 24.2542 65.0706 24.2574 65.219 24.266C65.6304 24.276 66.0924 24.2618 66.5784 24.2242C66.5784 24.2242 66.6746 24.2105 66.7227 24.2036C66.5863 24.1395 66.1162 24.2037 65.926 24.1603C65.8102 24.161 65.6065 24.1665 65.6135 24.1551C65.6294 24.1398 65.6313 24.1256 65.619 24.1135C65.6068 24.1015 65.5808 24.0918 65.5429 24.0852C65.5049 24.0786 65.456 24.0753 65.3996 24.0754C65.3432 24.0756 65.2807 24.0793 65.2166 24.0862C64.6814 24.1235 64.1773 24.1338 63.7352 24.1166C63.5676 24.117 63.3797 24.128 63.2133 24.1308C63.1115 24.1341 63.0185 24.1323 62.9395 24.1253C62.5375 24.0743 61.9967 24.0705 61.3982 24.1147C61.1089 24.1306 60.8386 24.1327 60.6012 24.121C60.4323 24.1189 60.3607 24.1552 60.2405 24.1723L59.73 24.2083L60.3857 24.2535C60.2455 24.357 60.1341 24.3911 59.9051 24.3976C59.571 24.4073 59.2457 24.4117 58.931 24.4107C58.6982 24.4099 58.5061 24.3876 58.1909 24.4272C58.1353 24.4336 58.0816 24.4357 58.0391 24.4331C57.6701 24.398 57.2257 24.3899 56.7363 24.4095C56.4829 24.3436 56.0513 24.4076 55.652 24.4592C55.5232 24.4096 55.7567 24.3868 55.8959 24.3566C55.5619 24.3597 55.2255 24.3579 54.8807 24.3652C54.777 24.3625 54.6585 24.367 54.5345 24.3783C54.4104 24.3896 54.2842 24.4074 54.1658 24.4303C54.1081 24.4451 54.0384 24.4562 53.9714 24.4613C53.9044 24.4665 53.8451 24.4653 53.8058 24.458C53.6269 24.4364 53.3403 24.4563 53.1924 24.4198C53.1399 24.4115 53.0647 24.4103 52.9805 24.4165C52.8962 24.4228 52.8083 24.436 52.7325 24.4539V24.4539C52.8155 24.4595 52.8893 24.4683 52.9525 24.4801C53.1788 24.5184 53.0957 24.5825 52.8082 24.6756C52.3667 24.6705 51.9157 24.6719 51.5066 24.6544C51.2785 24.6386 50.9991 24.6435 50.6997 24.6686C50.4002 24.6936 50.0927 24.7378 49.8116 24.7962C49.7099 24.8186 49.594 24.8342 49.4869 24.8397C49.3797 24.8453 49.2893 24.8404 49.2334 24.8262C49.1987 24.8097 49.1879 24.7888 49.2021 24.7653L49.4906 24.7243C49.4906 24.7243 49.4793 24.7024 49.4768 24.6975L49.0619 24.6939C48.8425 24.6937 48.6135 24.7002 48.406 24.6983C48.1013 24.6861 47.7534 24.6929 47.3838 24.7184C47.0429 24.7444 46.7079 24.7641 46.3818 24.7773C46.0661 24.7908 45.8373 24.7476 45.5369 24.7407C45.3098 24.7355 45.0599 24.7411 44.7968 24.7572C44.3424 24.7858 43.9254 24.7858 43.5837 24.7574C43.1853 24.9106 42.9917 24.9356 42.6218 24.8941L42.4479 24.8823L42.4004 24.9152L42.2676 24.908C42.0191 24.9015 41.7705 24.8951 41.5112 24.8928C41.1506 24.907 40.7613 24.9453 40.3812 25.0039C40.309 25.0141 40.2108 25.049 40.1475 25.0763C40.0841 25.1036 39.946 25.1859 39.8446 25.2395C39.9551 25.2786 40.0777 25.316 40.1654 25.361C40.1742 25.3687 40.1733 25.3779 40.1629 25.3878C40.1524 25.3977 40.1326 25.408 40.1052 25.418C40.0777 25.4281 40.0433 25.4374 40.0047 25.4454C39.9661 25.4533 39.9244 25.4597 39.8829 25.4639C39.8021 25.4729 39.7224 25.479 39.6469 25.4818C39.2754 25.4865 38.9196 25.483 38.5831 25.4711C38.4602 25.4544 38.292 25.4528 38.1051 25.4666C37.9182 25.4804 37.7233 25.5088 37.5513 25.5474C37.1109 25.5242 36.5993 25.5311 36.0516 25.5674C35.4723 25.5453 34.7726 25.59 34.2314 25.5416C34.2439 25.5659 34.1881 25.6078 34.1102 25.6319C33.9871 25.6686 33.8475 25.7026 33.6975 25.7324L32.5531 25.7907C32.5103 25.8207 32.4568 25.851 32.3934 25.8813C32.3499 25.9053 32.2741 25.9287 32.1822 25.9466C32.0903 25.9646 31.9894 25.9756 31.9009 25.9775C31.6732 25.9863 31.4823 25.9665 31.2108 26.0155C31.6289 26.0619 32.1929 26.0558 32.8021 25.9982C33.3746 25.9543 33.9252 25.9325 34.4336 25.9333C34.6012 25.933 34.8219 25.9355 34.8743 25.962C34.9904 26.0369 35.294 26.0251 35.6483 26.0113C35.9266 25.9961 36.1807 25.9978 36.3899 26.0162C36.5991 26.0346 36.7573 26.0691 36.8515 26.117C36.8754 26.1632 36.8183 26.2027 36.574 26.2296L35.5585 26.3374C35.4088 26.3236 35.2668 26.3071 35.133 26.2882C34.9076 26.2631 34.6294 26.2563 34.3199 26.2681C34.0104 26.28 33.678 26.3103 33.3485 26.3566C33.1802 26.3805 33.0119 26.4045 32.8898 26.3931C32.7827 26.38 32.6841 26.3644 32.5946 26.3463C32.5766 26.3342 32.5694 26.3202 32.5733 26.3049C32.5085 26.312 32.4437 26.3212 32.3809 26.3323C31.8795 26.4611 31.4912 26.4588 31.1384 26.4254C31.0429 26.4155 30.9702 26.3997 30.8735 26.3874C30.7768 26.375 30.7427 26.3589 30.6547 26.3636C29.9538 26.4058 29.7519 26.2648 29.1612 26.2705C29.1323 26.265 29.1145 26.2567 29.1092 26.2465C29.104 26.2363 29.1114 26.2245 29.131 26.2121C29.1727 26.2009 29.221 26.1913 29.2715 26.1841C29.3219 26.1769 29.3728 26.1724 29.4196 26.171C29.6915 26.1529 29.9316 26.1585 30.0988 26.1867C30.2173 26.1983 30.3427 26.2075 30.4744 26.2143L31.066 26.01C30.4929 26.0287 29.9509 26.0286 29.4525 26.0097C29.3437 25.999 29.1596 26.0174 29.0065 26.0208L27.8806 26.0399C27.6491 26.0415 27.4519 26.0095 27.1291 26.0841C27.1291 26.0841 26.9159 26.0962 26.859 26.086C26.8021 26.0758 26.55 26.0124 26.3996 25.9711C26.225 25.9829 25.9833 26.0147 25.8745 26.004C25.6846 25.9778 25.5201 25.9443 25.3841 25.904L24.704 25.9615C24.7047 26.0127 24.7296 26.0608 24.7781 26.1051C24.8311 26.1478 24.8293 26.1992 24.7728 26.2549C24.7163 26.3106 24.6067 26.369 24.453 26.4255L23.7814 26.7248C23.6719 26.7448 23.5551 26.7583 23.4469 26.7634C23.3387 26.7685 23.2443 26.765 23.1767 26.7533C22.8878 26.7187 22.5641 26.6916 22.2751 26.6569C21.9024 26.7099 21.9982 26.7955 21.7272 26.8706L20.8495 26.9955C20.7156 27.1111 20.5792 27.2219 20.9864 27.2607C21.0673 27.2674 21.0128 27.3118 21.0867 27.33C20.7701 27.4168 20.4221 27.4428 20.1013 27.4962C19.9747 27.5347 19.869 27.5754 19.789 27.6164C19.7012 27.6781 19.5232 27.7411 19.2934 27.7919C19.0637 27.8427 18.8006 27.8771 18.561 27.8877C18.1591 27.9202 17.7475 27.969 17.3448 28.0319C17.2072 28.0538 17.0659 28.0697 16.9302 28.0787C16.7946 28.0876 16.6678 28.0893 16.5584 28.0837C16.1688 28.0738 15.839 28.0397 15.5905 27.9837C15.3448 27.9361 15.0135 27.9132 14.6268 27.917C13.9655 28.011 13.8322 28.1528 13.432 28.2776L14.1232 28.2916C14.1483 28.3402 14.1026 28.4016 14.3859 28.4005C14.6693 28.3993 14.5255 28.4459 14.4336 28.4929C14.4013 28.5166 14.3381 28.5409 14.2548 28.5618C14.1715 28.5827 14.0732 28.5988 13.9766 28.6075L13.3881 28.6677C13.1794 28.6906 12.9775 28.7004 12.8045 28.696C12.6314 28.6916 12.494 28.6731 12.4072 28.6427C12.3076 28.6138 12.1701 28.5942 12.0033 28.5852C11.7906 28.5616 11.6157 28.5266 11.485 28.4813L10.6543 28.5472C10.619 28.5018 10.5048 28.4699 10.3312 28.457C10.1576 28.4441 9.93512 28.451 9.70145 28.4764L9.14153 28.5169C8.519 28.561 8.38244 28.5465 8.20013 28.4183L8.94671 28.1894C8.83815 28.1291 8.73337 28.0761 8.62858 28.0231C8.81459 27.9477 9.06274 27.8764 9.34784 27.8163C9.61389 27.7519 9.8875 27.6894 10.1676 27.6293C10.4714 27.5678 10.7923 27.5143 11.1695 27.445C11.2354 27.4226 11.3311 27.3828 11.4533 27.3446C11.5756 27.3074 11.7032 27.2709 11.8357 27.2353C11.8106 27.1867 11.788 27.1429 11.8363 27.0864C11.6039 27.1044 11.3639 27.1359 11.1379 27.1781C10.9118 27.2203 10.7068 27.2718 10.5413 27.328C10.5135 27.338 10.4794 27.3473 10.4413 27.3555C10.4032 27.3636 10.3619 27.3703 10.3204 27.3751C9.91228 27.4096 9.71722 27.4818 9.51766 27.5702C9.38328 27.6154 9.21005 27.6556 9.022 27.6851C8.66129 27.7364 8.30809 27.8023 7.96318 27.8592C7.85762 27.8781 7.7479 27.8937 7.63855 27.9053C7.27801 27.9423 6.91515 27.9939 6.56843 28.0575C6.45527 28.0737 6.34668 28.0951 6.25174 28.12C6.1568 28.1449 6.07828 28.1724 6.02271 28.2004C6.10855 28.2311 6.15488 28.2698 6.1589 28.3143C6.17396 28.3435 5.92073 28.403 5.80102 28.4461C5.68132 28.4893 5.91607 28.4689 5.99574 28.4733C6.32271 28.4816 6.38337 28.4991 6.18757 28.5949C6.12216 28.625 6.07874 28.6551 6.06002 28.6834C6.04131 28.7116 6.04768 28.7374 6.07876 28.7592C6.12523 28.8492 6.26662 28.9231 6.36369 29.0112C6.21294 29.0692 5.96101 29.1311 5.93354 29.2029C5.92034 29.2189 5.89245 29.2357 5.85191 29.2523C5.81138 29.269 5.75921 29.2849 5.69916 29.2989C5.54089 29.3293 5.39696 29.3657 5.27858 29.4052C5.1602 29.4446 5.07051 29.4862 5.01645 29.5266C4.99877 29.5433 4.95608 29.5611 4.89689 29.5763C4.83771 29.5915 4.76642 29.603 4.69737 29.6086C4.61485 29.6154 4.54095 29.6145 4.49095 29.606C4.44095 29.5976 4.4187 29.5823 4.42877 29.5632C4.42674 29.5274 4.43764 29.49 4.46142 29.4515C4.44761 29.4247 4.43379 29.3979 4.48835 29.3536C4.24191 29.3698 3.98318 29.4022 3.74025 29.4473C3.49732 29.4925 3.27951 29.5486 3.11049 29.6096C2.92367 29.6728 2.75136 29.7391 2.54426 29.8129C2.58695 29.8956 2.58696 29.8956 2.1462 30.0419L-0.191727 30.1132L-0.670887 30.2101C-1.11774 30.2945 -1.22398 30.2887 -1.50464 30.2451L-1.69356 30.2041C-2.09034 30.2605 -2.54726 30.3255 -2.79543 30.2197C-2.87601 30.2886 -2.9286 30.3118 -2.9103 30.3222C-2.79186 30.424 -2.58602 30.5102 -2.30093 30.5777C-2.22825 30.5935 -2.17709 30.6176 -2.09239 30.6316C-1.81931 30.711 -1.75597 30.8338 -1.91533 30.9747C-1.99443 31.0371 -2.10932 31.1009 -2.25631 31.1642C-2.04116 31.2521 -1.75618 31.3248 -1.40896 31.3806C-1.11429 31.4238 -0.871656 31.4815 -0.687957 31.5523C-0.523033 31.6236 -0.276061 31.6773 0.0388036 31.7101C0.198525 31.7241 0.315068 31.7516 0.376857 31.79C0.395231 31.8939 0.352989 32.0052 0.251031 32.1213C0.231828 32.1566 0.177268 32.1948 0.0916429 32.2328C0.00601732 32.2708 -0.108349 32.3076 -0.242503 32.3403C-0.242503 32.3403 -0.307106 32.3652 -0.338153 32.3801C-0.364032 32.5059 -0.267188 32.6168 -0.0541354 32.7053C-0.0192303 32.7304 0.0521977 32.7486 0.152467 32.7578C0.252736 32.767 0.378028 32.7669 0.514882 32.7576C0.803984 32.7426 1.07407 32.7407 1.35366 32.7323C1.65494 32.7204 1.92033 32.7298 2.1219 32.7595C2.32347 32.7892 2.45377 32.8381 2.49909 32.9011C2.50205 32.9189 2.51086 32.936 2.52546 32.9522C2.53397 32.9605 2.5386 32.9695 2.53927 32.9789L1.89717 33.1852L2.62358 33.2673C2.66628 33.35 2.31758 33.3996 2.14278 33.461L2.25082 33.4953C2.38989 33.5147 2.57724 33.4776 2.74683 33.4561L2.91517 33.4321L2.93527 33.4711C3.04006 33.5241 3.42228 33.4645 3.5714 33.5034C3.72052 33.5422 3.61409 33.5861 3.39067 33.6283C3.23535 33.6597 3.06857 33.6847 2.90286 33.7015C2.73716 33.7183 2.57685 33.7264 2.43399 33.7252C2.34869 33.721 2.27793 33.7115 2.22601 33.6973C1.92448 33.6367 1.59137 33.5846 1.22918 33.5413C0.951497 33.5025 0.603764 33.486 0.210412 33.493C0.0949983 33.49 -0.0442038 33.4992 -0.182735 33.5189C-0.321266 33.5386 -0.450235 33.5676 -0.547047 33.6007V33.6007L-0.750731 33.6061C-0.750731 33.6061 -0.862173 33.6403 -0.846382 33.6459C-0.768848 33.747 -0.858948 33.8706 -1.10327 33.9984V33.9984L-0.890793 34.01C-0.587156 33.9981 -0.779702 34.0751 -0.734306 34.1131C-0.518602 34.1059 -0.238301 34.0739 -0.13602 34.122L0.017048 34.1185L-0.0430556 34.1271L-0.115754 34.1113L-0.401275 34.1832C-0.26597 34.1953 -0.167979 34.2101 -0.0484639 34.2166C0.0175462 34.2223 0.0700957 34.2323 0.106023 34.246C0.141949 34.2598 0.160516 34.277 0.160592 34.2966C0.160265 34.3268 0.195851 34.3522 0.26398 34.3704C0.33211 34.3886 0.430528 34.399 0.549821 34.4006C0.692128 34.4012 0.773596 34.434 0.85704 34.4457L0.494493 34.6435C0.494493 34.6435 0.674845 34.6178 0.576678 34.6527L0.564121 34.6284L0.344459 34.6779C0.186174 34.7213 0.0754759 34.7318 -0.0180143 34.7007C-0.111504 34.6696 -0.0901884 34.711 -0.13505 34.6991C-0.118725 34.7307 -0.0169724 34.7528 0.0702389 34.7717C0.171076 34.7866 0.284881 34.7975 0.409759 34.8044C0.184703 34.9435 0.173934 34.9476 0.502687 34.9844C0.83144 35.0213 0.718012 35.0766 0.993113 35.0844C1.26821 35.0923 0.95541 35.1864 0.771288 35.2048C0.634795 35.2169 0.495626 35.2356 0.363314 35.2599C0.231001 35.2841 0.108691 35.3132 0.00482703 35.3451L0.0600817 35.4522C0.14105 35.4433 0.222153 35.4318 0.300569 35.418C0.567067 35.3592 0.8095 35.3038 1.04655 35.338L0.933669 35.4194L1.76114 35.3722C1.73973 35.4332 1.6136 35.5026 1.40937 35.5659V35.5659C1.44014 35.6006 1.45902 35.6372 1.46588 35.6753C1.4797 35.7021 1.56137 35.6853 1.61449 35.6882C1.804 35.6926 1.9595 35.7108 2.06736 35.741C2.17522 35.7712 2.23213 35.8125 2.23304 35.8614C2.25439 35.9027 1.96309 35.9886 1.78095 35.9857C1.32616 35.994 0.834391 36.0258 0.332201 36.0795C0.0260526 36.0864 -0.0171708 35.9777 -0.520908 36.0519C-0.530916 36.1021 -0.466393 36.1428 -0.337092 36.1678C-0.207791 36.1927 -0.0207378 36.2006 0.195806 36.1903C0.072683 36.3018 -0.609244 36.3309 -0.639411 36.4475C-0.469604 36.4392 -0.288021 36.4199 -0.112642 36.3912C0.0627372 36.3626 0.225831 36.3258 0.360525 36.2844C0.389595 36.2742 0.426098 36.2647 0.466647 36.257C0.507196 36.2493 0.550508 36.2434 0.592523 36.24C0.634538 36.2367 0.673927 36.2359 0.707033 36.2377C0.740139 36.2395 0.765896 36.244 0.781919 36.2506C0.687519 36.2927 0.583586 36.3414 0.46514 36.387C0.346693 36.4326 0.318167 36.4523 0.232746 36.4618C-0.404507 36.5525 -0.707473 36.7157 -1.25877 36.8228C-1.40305 36.8433 -1.42101 36.9086 -1.29575 36.9012C-1.17658 36.8938 -1.06871 36.8948 -0.984181 36.904C-0.899657 36.9132 -0.841813 36.9303 -0.817147 36.9533C-0.72468 36.9801 -0.609526 37.0015 -0.474593 37.0169C-1.03999 37.1844 -1.71412 37.3324 -2.43372 37.447C-2.57 37.4696 -2.71215 37.4834 -2.83931 37.4864C-3.24101 37.4865 -3.66725 37.4998 -4.10949 37.526C-4.26633 37.5331 -4.41125 37.5324 -4.53639 37.524C-4.9468 37.504 -5.27271 37.5478 -5.57044 37.6711L-6.06324 37.8665C-6.04692 37.8981 -5.96421 37.9334 -5.90051 37.9818L-6.28545 38.0861L-9.22306 37.8458L-9.81276 38.0785L-10.6584 38.0656C-10.7232 38.0723 -10.7883 38.0816 -10.8507 38.0929C-11.0218 38.1617 -11.1555 38.2277 -11.341 38.2932C-11.5266 38.3588 -11.858 38.3668 -12.0892 38.444C-12.3203 38.5213 -12.5518 38.5229 -12.8379 38.5688C-12.8648 38.6286 -12.837 38.6824 -12.7563 38.727C-12.7299 38.778 -12.5845 38.8096 -12.5594 38.8583C-12.5622 38.9074 -12.5082 38.9492 -12.4023 38.9797C-12.2964 39.0103 -12.1419 39.0287 -11.9529 39.0332C-11.4237 39.1379 -10.7854 39.2125 -10.0576 39.2546C-9.99362 39.2577 -9.9406 39.2648 -9.9018 39.2754C-9.863 39.2861 -9.83925 39.3001 -9.832 39.3166C-9.833 39.3643 -9.78447 39.4055 -9.68993 39.4373C-9.59539 39.469 -9.45723 39.4905 -9.28558 39.5C-9.23987 39.5019 -9.20537 39.5079 -9.18638 39.5172C-9.12128 39.5233 -9.07382 39.5348 -9.04866 39.5506C-9.02349 39.5665 -9.02147 39.5863 -9.04272 39.6079C-9.06398 39.6296 -9.10782 39.6525 -9.17002 39.6743C-9.23222 39.6962 -9.31069 39.7163 -9.39781 39.7327C-9.52418 39.7592 -9.65326 39.7845 -9.78453 39.8086C-9.77699 39.8232 -9.64672 39.8256 -9.66575 39.8388C-9.71718 39.8807 -9.72908 39.9201 -9.70055 39.9536C-9.67203 39.9872 -9.60384 40.0141 -9.50138 40.0321L-10.2034 40.3723C-10.6296 40.4194 -11.0476 40.4993 -11.3782 40.5968C-11.3786 40.6128 -11.3596 40.6261 -11.323 40.6356C-11.2864 40.6451 -11.2336 40.6503 -11.1697 40.6507C-10.9983 40.6577 -10.8364 40.6712 -10.6518 40.6789C-10.5389 40.6846 -10.445 40.6973 -10.3755 40.7161C-10.3059 40.7349 -10.2622 40.7595 -10.2468 40.7885L-10.659 40.915C-10.5269 40.9458 -10.4289 40.9606 -10.3417 40.9795C-10.3911 41.0193 -10.4761 41.0604 -10.5901 41.0997C-10.7041 41.1391 -10.8441 41.1755 -10.9991 41.2062C-11.0407 41.2126 -11.0831 41.2172 -11.1238 41.2199C-11.1646 41.2225 -11.2029 41.2231 -11.2364 41.2217C-11.5556 41.1783 -11.929 41.2549 -12.2917 41.3274C-12.6544 41.3999 -12.8513 41.4435 -13.1191 41.4999L-13.6314 41.5075C-13.761 41.5341 -13.8768 41.5655 -13.9693 41.5991C-14.0618 41.6326 -14.1284 41.6674 -14.164 41.7007C-14.1364 41.7543 -13.8934 41.7249 -13.7486 41.7304C-13.405 41.7638 -12.9533 41.7567 -12.4684 41.7103C-12.3481 41.6932 -12.2249 41.707 -12.1079 41.7086C-11.8555 41.7153 -11.6129 41.7261 -11.3813 41.7411C-11.2287 41.7551 -11.0862 41.7723 -10.9545 41.7927C-10.9194 41.8609 -11.473 41.9135 -11.1588 41.9471C-11.267 41.9625 -11.3075 41.984 -11.3632 41.9762C-11.7196 42.0205 -12.0708 42.0423 -12.376 42.0393C-12.9617 42.0299 -13.6268 42.0609 -14.3168 42.1299C-15.0616 42.2013 -15.776 42.2313 -16.4012 42.2174C-16.6393 42.2166 -16.9054 42.2312 -17.1793 42.2601C-17.5027 42.3002 -17.8239 42.3254 -18.122 42.3341C-18.2207 42.3344 -18.3306 42.3413 -18.4429 42.354C-18.5552 42.3668 -18.6666 42.3852 -18.768 42.4077V42.4077C-18.7592 42.4248 -18.6625 42.4371 -18.6841 42.4454C-18.9926 42.5728 -19.1176 42.7055 -19.5925 42.8358C-19.9171 42.8819 -20.2899 42.9349 -20.5021 42.8737C-20.7144 42.8125 -20.6384 42.7599 -20.2159 42.6032C-20.3076 42.6009 -20.418 42.6082 -20.5279 42.6239C-20.6377 42.6395 -20.7401 42.6624 -20.8171 42.6887L-21.1824 42.8059L-21.5117 42.9181C-21.4829 42.974 -21.4603 43.0178 -21.4364 43.064C-21.3987 43.1131 -21.4401 43.1729 -21.5547 43.235C-21.6238 43.2688 -21.684 43.3027 -21.7347 43.3363C-21.9406 43.4706 -22.0002 43.5976 -21.9069 43.7029C-21.7281 43.8544 -21.4791 43.9937 -21.1628 44.1194C-20.8286 44.2416 -20.6458 44.3958 -20.3705 44.5291C-20.2301 44.5897 -20.0596 44.6441 -19.8607 44.6916C-19.4835 44.7973 -19.0703 44.8978 -18.6918 45.0059C-18.3134 45.114 -17.8861 45.1917 -17.4658 45.2808C-16.84 45.3865 -16.1636 45.4778 -15.4404 45.5542C-14.9928 45.6212 -14.5333 45.6864 -14.1193 45.7633C-13.6303 45.85 -13.0559 45.9123 -12.4104 45.9486C-11.8402 45.992 -11.3308 46.0563 -10.8919 46.1401C-10.8458 46.1491 -10.8095 46.1607 -10.7839 46.1743C-10.7048 46.2598 -10.4833 46.32 -10.1533 46.3458C-10.1733 46.3708 -10.199 46.3963 -10.2301 46.422C-10.2759 46.4527 -10.2854 46.4814 -10.2574 46.5045C-10.2295 46.5275 -10.1652 46.5438 -10.0731 46.5512C-9.80907 46.5723 -9.58961 46.6083 -9.42456 46.6574C-9.36393 46.6698 -9.32633 46.6877 -9.31496 46.7097C-9.30359 46.7318 -9.31877 46.7572 -9.35926 46.7839C-9.39511 46.8114 -9.39775 46.8367 -9.36681 46.8565C-9.33588 46.8763 -9.2728 46.8898 -9.18575 46.8951C-8.96225 46.9211 -8.72296 46.942 -8.46938 46.9577C-7.92979 46.9924 -7.30219 46.992 -6.62443 46.9565C-6.55229 46.9463 -6.47962 46.962 -6.39546 46.9501C-5.91618 46.9103 -5.47105 46.9042 -5.11398 46.9324C-4.69531 46.9433 -4.25763 46.9412 -3.81617 46.9463C-3.17838 46.9428 -2.59004 46.9637 -2.06757 47.0084C-1.47034 46.9652 -1.13477 47.0403 -0.630684 47.0417C-0.165292 47.0494 0.275822 47.0679 0.688468 47.097C1.3537 47.1356 2.0164 47.1693 2.67211 47.2145C3.28725 47.236 3.85362 47.2771 4.36166 47.3372C4.55636 47.3643 4.90879 47.3221 5.0414 47.3789C5.174 47.4358 5.44158 47.4291 5.65782 47.448L6.34011 47.4946C6.45744 47.5057 6.58646 47.5127 6.72519 47.5156C7.35955 47.5194 7.79884 47.5953 8.38763 47.6108L8.44777 47.6023C9.49317 47.7152 10.6895 47.7771 12.0016 47.7863C12.7681 47.821 13.6061 47.8193 14.4194 47.8447C14.6134 47.8954 15.0715 47.8329 15.3149 47.8793C15.5582 47.9256 15.9555 47.8952 16.2692 47.9028C16.5829 47.9105 16.8895 47.9295 17.2248 47.9289C17.5159 47.9291 17.7617 47.9498 17.9399 47.9891C18.3465 48.0541 18.8423 48.0923 19.4049 48.102C20.1493 48.1189 20.8531 48.1572 21.6102 48.1488C21.5994 48.1961 21.6458 48.2364 21.7448 48.2655C21.8437 48.2945 21.9916 48.3114 22.1731 48.3142C22.9827 48.3323 23.7168 48.3793 24.5371 48.3933L24.7565 48.3934L27.2098 48.4206C27.8708 48.4258 28.5076 48.4345 29.1818 48.4405C29.4343 48.4045 29.4404 48.4664 29.615 48.4546C29.6639 48.4241 29.7215 48.4107 29.8074 48.4272L29.8263 48.4637L32.6261 48.5121C33.7223 48.5475 34.8754 48.5582 36.0755 48.5439C36.3602 48.5475 36.626 48.5596 36.8685 48.58C37.0933 48.5874 37.3278 48.5907 37.5705 48.5898C37.8988 48.5806 38.2195 48.576 38.5313 48.5759C39.3516 48.5899 40.2124 48.5824 41.1106 48.5722C42.0088 48.5619 42.6893 48.5801 43.4887 48.5787C44.0301 48.5774 44.569 48.5713 45.1295 48.5569C45.397 48.5502 45.7267 48.5137 46.0038 48.5005C46.2809 48.4872 46.3713 48.4874 46.4079 48.5083C46.5285 48.5669 46.8316 48.529 47.0739 48.5233C47.5464 48.5135 47.6135 48.4935 47.7418 48.3421L47.162 48.294C47.0199 48.2784 46.8412 48.2757 46.6431 48.286C46.445 48.2964 46.2341 48.3194 46.0309 48.353C45.9509 48.3673 45.8673 48.3787 45.7849 48.3864C45.7025 48.3941 45.6228 48.3979 45.5507 48.3977C44.9657 48.3895 44.3889 48.3723 43.8267 48.3583L43.7445 48.3491L43.7393 48.214C43.8137 48.2007 43.8908 48.1898 43.9677 48.1815L46.7877 48.0939C47.4348 48.0723 48.1067 48.0238 48.7418 48.004C49.3769 47.9842 49.7191 47.9721 50.2119 47.9516C50.4198 47.94 50.6319 47.9246 50.8464 47.9058C50.834 47.8928 50.8268 47.8789 50.8251 47.8644C50.8138 47.8425 50.7987 47.8133 50.8899 47.7899C50.9893 47.7569 51.1223 47.7286 51.2621 47.7109C51.3934 47.6991 51.5208 47.6925 51.6391 47.6912C52.211 47.6799 52.8643 47.6085 53.4595 47.4924L53.6673 47.5699C54.5612 47.5263 55.4683 47.4835 56.402 47.4421C56.589 47.4309 56.7852 47.4092 56.9759 47.3788C57.1803 47.3497 57.3684 47.289 57.5836 47.2558C57.7962 47.2319 58.0073 47.2133 58.2131 47.2002C58.1574 47.1803 58.0839 47.1644 57.9951 47.1529C57.9076 47.1489 57.8439 47.1364 57.8132 47.1173C57.7824 47.0982 57.7862 47.0735 57.8241 47.0466C57.8906 47.0006 57.9199 46.9573 57.7751 46.9518C57.6413 46.9413 57.5455 46.9185 57.4992 46.8863C57.4528 46.854 57.4577 46.8135 57.5133 46.7696C57.5377 46.7439 57.5549 46.7188 57.5648 46.6944V46.6944L57.6249 46.6858C57.8233 46.5949 58.2193 46.5621 58.5036 46.4877C58.6377 46.4662 58.7766 46.4538 58.8984 46.4525C59.2128 46.4365 59.5189 46.4295 59.8441 46.4094C59.9994 46.4001 60.1618 46.3833 60.3218 46.3597C60.5503 46.3273 60.5743 46.3238 60.7069 46.2057C60.501 46.2078 60.3377 46.1901 60.2447 46.1558C60.1517 46.1214 60.1347 46.0724 60.1966 46.0171C60.3666 45.8963 60.546 45.769 61.3148 45.6831C61.0642 45.6789 60.8228 45.6705 60.592 45.658C60.5248 45.6553 60.4746 45.6464 60.4479 45.6325C60.4212 45.6187 60.4194 45.6005 60.4427 45.5804C60.466 45.5603 60.5134 45.5393 60.5784 45.5202C60.6434 45.5011 60.723 45.4847 60.8065 45.4734C61.2122 45.405 61.6356 45.3593 62.0289 45.3413C62.3604 45.3333 62.6595 45.3378 63.0466 45.3376L63.5035 45.2726C63.496 45.258 63.5631 45.238 63.546 45.23C63.4299 45.1551 63.3019 45.0819 63.17 45.0014C63.3806 44.958 63.5631 44.9055 63.6965 44.85C63.83 44.7946 63.909 44.7384 63.9244 44.6878C63.9358 44.6726 63.9328 44.6587 63.9157 44.6471C63.8986 44.6356 63.8678 44.6266 63.8254 44.6209C63.7051 44.6112 63.6123 44.5925 63.554 44.5664C63.4958 44.5402 63.4737 44.5074 63.4895 44.4702L63.8448 44.3335C64.9146 44.236 65.9652 44.1663 66.977 44.1257L67.8904 44.0951C68.0006 44.0585 67.9665 44.0425 67.8628 44.0415C67.7591 44.0406 67.4675 44.0508 67.2638 44.0562C67.0879 44.0634 66.9317 44.0587 66.8103 44.0425C66.6889 44.0264 66.6065 43.9994 66.5709 43.9641L66.8776 43.8082C66.8626 43.779 66.8412 43.7376 66.6749 43.7404C66.5612 43.737 66.4775 43.7223 66.4372 43.6987C66.3969 43.675 66.4023 43.6438 66.4527 43.6101C66.4604 43.5856 66.4489 43.5634 66.4188 43.5444C66.1728 43.5428 65.928 43.5436 65.7048 43.5362C65.6008 43.5338 65.513 43.5247 65.4474 43.5097C65.3817 43.4947 65.3398 43.4741 65.3243 43.4493C65.3163 43.4251 65.3359 43.3975 65.3816 43.3688C65.4273 43.34 65.4979 43.311 65.5875 43.2839C65.9373 43.2504 66.2574 43.25 66.4774 43.2827C66.5558 43.3083 66.6818 43.3223 66.8387 43.3229C66.9957 43.3234 67.1762 43.3104 67.3565 43.2856C67.563 43.2571 67.769 43.2446 67.9376 43.2503C68.1061 43.256 68.2261 43.2796 68.276 43.3168C68.4879 43.3023 68.6758 43.2913 68.8612 43.2754C69.0799 43.2553 69.2866 43.2494 69.459 43.2583C69.7348 43.2645 70.032 43.2609 70.3439 43.2473C71.2428 43.2135 72.1429 43.1821 73.0133 43.168C73.2435 43.164 73.4427 43.1749 73.6704 43.166C73.8982 43.1571 74.0783 43.1811 74.3631 43.1328C74.4173 43.1253 74.4719 43.1204 74.5226 43.1187C74.5732 43.1169 74.6184 43.1183 74.6547 43.1226C75.1548 43.1609 75.7412 43.1663 76.3794 43.1385C77.2536 43.1317 78.16 43.1125 79.0354 43.1082C79.2921 43.1119 79.5347 43.122 79.7607 43.1382C79.9327 43.148 80.1128 43.1547 80.3001 43.1581C80.4437 43.1612 80.581 43.1521 80.5568 43.2052C80.5325 43.2583 80.7477 43.225 80.8717 43.2152C81.2977 43.1895 81.7332 43.1547 82.1731 43.1111C82.6066 43.0638 83.0314 43.0363 83.4219 43.0302C83.704 43.0266 83.9949 43.0401 84.3576 42.9676C84.3438 42.9408 84.33 42.9141 84.251 42.8861C84.5468 42.8092 84.8843 42.7431 85.2355 42.6931C85.5868 42.6432 85.9417 42.6109 86.271 42.5989L86.725 42.4533C86.8368 42.4362 86.951 42.4238 87.0605 42.4167C87.17 42.4097 87.2726 42.4082 87.3621 42.4123C87.4313 42.4144 87.5156 42.409 87.5995 42.3971C87.6834 42.3852 87.7614 42.3675 87.819 42.3474C87.9053 42.3217 88.0105 42.2996 88.1218 42.2838C88.233 42.268 88.3452 42.2592 88.4442 42.2584C88.7562 42.2426 89.0892 42.2061 89.4092 42.1526C89.4922 42.1212 89.5443 42.0888 89.5589 42.0593C89.5735 42.0298 89.55 42.0046 89.4914 41.9868C89.3969 41.9552 89.3438 41.9151 89.3354 41.8687C89.327 41.8223 89.3634 41.7707 89.4424 41.7169C89.4829 41.6839 89.4964 41.6527 89.4822 41.6251C89.468 41.5975 89.4262 41.5741 89.3596 41.5563C89.1107 41.4742 89.1773 41.4282 89.5845 41.2919C89.6506 41.2692 89.7303 41.248 89.8186 41.2296C89.9069 41.2112 90.0017 41.196 90.0972 41.185C90.3211 41.1628 90.542 41.1463 90.7558 41.1358C90.876 41.1187 90.9993 41.1325 91.1379 41.1258C91.8305 41.0926 91.9319 41.039 92.1563 40.9235L92.3198 40.8402C92.623 40.7727 92.9546 40.7167 93.2907 40.6761C93.6269 40.6355 93.9591 40.6114 94.2636 40.6056C94.3846 40.6051 94.5238 40.5936 94.6597 40.5727C95.102 40.509 95.55 40.4649 95.9739 40.4433C96.238 40.4312 96.5227 40.3998 96.7939 40.3529C97.065 40.306 97.311 40.2456 97.5023 40.1789C97.6742 40.1189 97.899 40.065 98.1455 40.0248C98.4341 39.9837 98.4608 39.9355 98.2996 39.8984C98.1385 39.8612 97.8686 39.8134 97.629 39.7744C97.5457 39.7611 97.494 39.7395 97.4798 39.712C97.4657 39.6845 97.4895 39.6522 97.5487 39.6187C97.5867 39.5612 97.5933 39.5068 97.5683 39.4566C97.5549 39.4357 97.5641 39.4118 97.5953 39.3864C97.6265 39.361 97.6789 39.3348 97.749 39.3095C97.8191 39.2841 97.9053 39.2603 98.0017 39.2396C98.0981 39.2189 98.2026 39.2018 98.308 39.1894C98.7529 39.1262 99.1858 39.0646 99.6394 39.0184C99.8295 38.9966 100.019 38.9696 100.205 38.938C100.583 38.8599 100.989 38.7952 101.397 38.7475C101.591 38.7262 101.78 38.689 101.924 38.6438C102.379 38.5222 102.797 38.3943 103.173 38.2625C103.263 38.2217 103.382 38.1818 103.521 38.1454C103.66 38.109 103.816 38.0769 103.98 38.0511C104.112 38.0323 104.22 37.9909 104.322 37.9633C104.396 37.8995 104.404 37.8405 104.345 37.7918C104.286 37.743 104.162 37.7063 103.985 37.6848C103.816 37.6591 103.659 37.6293 103.514 37.5977C103.338 37.5722 103.13 37.5569 102.897 37.5523C102.62 37.5386 102.415 37.4994 102.309 37.4399C103.067 37.3322 103.787 37.1775 104.451 37.2137L104.956 37.1158C104.936 37.0769 104.918 37.0428 104.902 37.0112C104.782 36.9536 104.744 36.881 104.792 36.7995C104.832 36.7601 104.829 36.7242 104.782 36.6955C104.736 36.6668 104.648 36.6463 104.527 36.6361C103.815 36.5311 102.991 36.4602 102.323 36.3411C102.114 36.3187 101.868 36.3086 101.598 36.311C101.336 36.3039 101.347 36.2501 101.648 36.1837C101.817 36.149 101.99 36.1158 102.165 36.0842C102.936 36.0789 103.251 36.2379 104.131 36.1936L104.539 35.9841C104.65 35.9809 104.757 35.9796 104.86 35.9803L106.337 36.0654C106.46 36.0697 106.555 36.0842 106.613 36.1074C106.67 36.1306 106.688 36.1615 106.662 36.1967C106.652 36.2396 106.673 36.279 106.723 36.3134C106.755 36.3375 106.734 36.3696 106.665 36.4025C106.51 36.4769 106.709 36.4877 106.835 36.5064C106.867 36.5082 106.904 36.508 106.944 36.5058C106.984 36.5036 107.026 36.4994 107.067 36.4936C107.109 36.4877 107.149 36.4802 107.185 36.4715C107.222 36.4629 107.254 36.4532 107.28 36.4431C107.502 36.3724 107.696 36.2978 107.913 36.2198C107.759 36.1452 107.941 36.0227 107.699 35.9552C107.672 35.9417 107.662 35.9252 107.668 35.9069C107.674 35.8885 107.696 35.8686 107.735 35.8483C107.833 35.796 107.88 35.745 107.87 35.7005C107.861 35.656 107.796 35.6195 107.681 35.5947L107.667 35.568C107.969 35.478 107.889 35.398 108.008 35.3028L108.298 35.2406C109.021 35.0907 109.023 35.0932 109.645 35.0987C109.77 35.0417 109.611 35.033 109.491 35.0265L108.491 34.9625C107.836 34.9198 107.163 34.8902 106.431 34.8741C105.7 34.8579 104.885 34.804 104.13 34.7653C104.091 34.7623 104.062 34.7563 104.044 34.7479C104.027 34.7396 104.021 34.729 104.027 34.7171C104.057 34.7043 104.097 34.6919 104.142 34.6809C104.188 34.6699 104.239 34.6605 104.291 34.6535C104.532 34.6193 104.779 34.5972 105.035 34.5686L105.513 34.519L105.66 34.4537C105.755 34.4139 105.821 34.3655 105.948 34.3369C106.053 34.3156 106.166 34.2995 106.277 34.2901C106.388 34.2808 106.492 34.2786 106.579 34.2838C106.818 34.2968 107.034 34.3157 107.262 34.3328C107.49 34.35 107.616 34.3687 107.814 34.3771C108.216 34.3809 108.605 34.391 108.978 34.4074C109.293 34.4461 109.584 34.4919 109.849 34.5447C110.015 34.5655 110.17 34.5905 110.453 34.5633C110.587 34.5387 110.703 34.5063 110.779 34.472C110.856 34.4377 110.889 34.4035 110.872 34.3757C110.857 34.3539 110.814 34.3366 110.747 34.3256C110.681 34.3145 110.592 34.3099 110.491 34.3124C110.207 34.3084 109.945 34.2949 109.709 34.2722C109.38 34.231 108.981 34.2133 108.533 34.22C108.381 34.2259 108.28 34.2038 108.147 34.1966C108.014 34.1893 107.902 34.1714 107.753 34.1846C107.294 34.2187 107.073 34.1665 106.797 34.1325C106.704 34.1175 106.646 34.0932 106.63 34.0623C106.614 34.0314 106.641 33.9951 106.707 33.9574C106.834 33.8823 106.99 33.8067 107.171 33.732C107.265 33.6953 107.385 33.6604 107.521 33.6301C107.658 33.5998 107.808 33.5749 107.959 33.5573C108.049 33.5113 108.098 33.4661 108.099 33.4257C108.101 33.3854 108.056 33.3511 107.969 33.3261C107.746 33.269 107.548 33.211 107.048 33.2429C106.813 33.2551 106.592 33.2574 106.393 33.2498C105.953 33.2394 105.445 33.2622 104.918 33.316C104.781 33.3298 104.647 33.3393 104.519 33.344C103.607 33.3771 102.738 33.3936 101.866 33.4053C101.404 33.4109 100.939 33.4092 100.457 33.4255C99.3264 33.4609 98.2975 33.4427 97.2064 33.4542C96.635 33.4601 96.1235 33.4363 95.6988 33.3839C95.6161 33.3664 95.5451 33.3459 95.4865 33.3227C95.768 33.2619 96.0771 33.2137 96.3843 33.1828C96.6915 33.152 96.9865 33.1394 97.2411 33.1463C97.381 33.1634 97.5619 33.1665 97.7635 33.1553C97.9651 33.1442 98.1796 33.1192 98.3829 33.0832V33.0832L97.7916 33.0628C97.3995 33.0533 96.9979 33.0503 96.6166 33.0367C96.0108 33.0131 95.4493 32.9755 94.8219 32.9602C94.3154 32.9462 93.8621 32.9104 93.4764 32.8538C93.1977 32.8126 92.8794 32.7834 92.528 32.7667C92.2782 32.7578 92.2782 32.7578 92.1185 32.6735C92.2452 32.6189 92.409 32.6113 92.5633 32.6102C93.4886 32.5759 94.3691 32.5699 95.187 32.5923C95.5996 32.5943 95.9657 32.6174 96.2676 32.6606C96.3415 32.6788 96.5307 32.6702 96.6825 32.6643C97.1584 32.6553 97.6133 32.6579 98.0417 32.6721C98.6339 32.6957 99.2935 32.6901 99.9949 32.6555C100.128 32.613 99.9748 32.6165 99.9672 32.6019C99.424 32.5747 98.8916 32.5434 98.3376 32.5203C98.1862 32.5121 98.0243 32.508 97.8538 32.5081C97.2173 32.5224 96.6869 32.4828 96.3369 32.3948C96.3193 32.3607 96.0891 32.3647 95.9874 32.3426C95.9373 32.3235 95.904 32.301 95.8883 32.2758C96.0366 32.2129 96.2042 32.2126 96.3332 32.2125C96.7076 32.2195 97.0678 32.2328 97.412 32.2523C97.732 32.2709 98.0863 32.2759 98.4651 32.2671C98.7447 32.2587 98.9837 32.2717 99.2658 32.2681C99.4188 32.2607 99.5772 32.2487 99.7378 32.2324C99.559 32.1885 99.316 32.1616 99.0259 32.1534C98.8059 32.1272 98.5308 32.1193 98.4956 32.0512C98.5995 32.0025 98.7153 32.0017 98.8083 32.0068C99.0017 32.0066 99.1886 32.0096 99.368 32.016C99.7482 32.0298 100.16 32.03 100.594 32.0165C100.823 32.0115 101.04 32.013 101.242 32.0211C101.699 32.0318 102.137 32.0556 102.556 32.0666C103.414 32.0778 104.196 32.1181 105.02 32.1393C105.203 32.1445 105.368 32.163 105.61 32.1312C105.851 32.0994 105.862 32.0953 105.891 32.0756C105.958 32.0426 105.979 32.0107 105.948 31.9865C105.9 31.9638 105.806 31.9511 105.684 31.9508C104.948 31.9147 104.249 31.864 103.592 31.7991C103.304 31.7861 103.051 31.7595 102.842 31.7204C102.677 31.6934 102.481 31.6756 102.26 31.6674C101.939 31.6479 101.604 31.6336 101.257 31.6246C101.095 31.6198 100.958 31.6053 100.853 31.5821C100.748 31.5589 100.677 31.5275 100.645 31.4896L101.071 31.3638C101.137 31.3579 101.204 31.3529 101.269 31.3486L104.801 31.4392L105.15 31.4417C105.534 31.4342 105.627 31.4157 105.991 31.2699C105.161 31.2356 104.509 31.1357 104.099 30.9801C104.198 30.9634 104.299 30.949 104.4 30.9374C105.063 30.9006 105.69 30.8908 106.256 30.9084C106.593 30.9102 106.939 30.9054 107.286 30.903C107.184 30.8312 106.795 30.8526 106.542 30.8364C105.936 30.8111 105.4 30.7589 104.951 30.6813C104.797 30.651 104.603 30.6317 104.38 30.6241C104.156 30.6215 103.97 30.6032 103.836 30.5708C103.702 30.5384 103.626 30.4928 103.613 30.4381C103.592 30.3886 103.546 30.3425 103.477 30.3007C103.599 30.2413 103.793 30.1845 104.023 30.1408C104.252 30.0971 104.501 30.0696 104.723 30.0635C105.197 30.039 105.688 29.999 106.184 29.9444C106.432 29.9169 106.674 29.9011 106.896 29.8981C107.092 29.8957 107.314 29.8758 107.53 29.8414C107.745 29.8071 107.941 29.7601 108.088 29.7076C108.287 29.6428 108.473 29.5772 108.658 29.5116C108.844 29.4461 109.059 29.3632 109.276 29.2828C109.467 29.2702 109.653 29.2621 109.831 29.2586C109.97 29.2616 110.132 29.2528 110.298 29.2334C110.464 29.2139 110.628 29.1846 110.769 29.1489V29.1489C110.686 29.1136 110.592 29.0825 110.494 29.0417C110.629 28.9878 110.727 28.9328 110.782 28.8801C110.837 28.8274 110.847 28.778 110.813 28.7351C110.793 28.6962 110.94 28.6309 110.991 28.5793C111.056 28.5347 111.068 28.4932 111.026 28.4601C110.984 28.427 110.888 28.4038 110.753 28.3937C110.585 28.3749 110.448 28.3467 110.349 28.3102C110.316 28.3007 110.299 28.2877 110.3 28.2724C110.301 28.2571 110.319 28.2399 110.354 28.2225C110.389 28.2051 110.438 28.188 110.498 28.1728C110.558 28.1575 110.626 28.1446 110.697 28.1353C110.913 28.1087 111.128 28.0914 111.329 28.0845C111.675 28.0719 112.007 28.0639 112.324 28.0607C112.674 28.0558 113.063 28.0256 113.453 27.9732C113.802 27.9236 114.114 27.8791 114.285 27.7844C114.455 27.6896 114.728 27.6926 114.937 27.6236C114.82 27.5615 114.61 27.5182 114.331 27.4984C114.148 27.4913 113.995 27.4727 113.882 27.4437C113.769 27.4148 113.699 27.3762 113.676 27.3303L114.312 27.138C114.821 27.0474 115.102 27.1171 115.651 27.0808L115.085 27.0098C115.074 27.0028 115.069 26.9945 115.073 26.9854C115.127 26.8418 115.215 26.8111 115.793 26.7315L116.118 26.6853L116.632 26.6305C116.714 26.6011 116.771 26.5704 116.797 26.5415C116.823 26.5126 116.817 26.4866 116.779 26.4659C116.704 26.4312 116.681 26.3869 116.712 26.337C116.762 26.3039 116.766 26.2734 116.724 26.2508C116.682 26.2282 116.596 26.2149 116.481 26.2132C116.389 26.2106 116.382 26.1724 116.332 26.1507C116.283 26.1209 116.198 26.098 116.084 26.0837C115.969 26.0693 115.828 26.0637 115.67 26.0674C115.203 26.0704 114.765 26.0592 114.362 26.034L114.434 26.0237C114.015 26.0458 113.623 26.0485 113.277 26.0316C112.93 26.0104 112.486 26.024 112.117 26.0111C111.818 26.014 111.59 25.9847 111.482 25.9292C111.377 25.8762 110.996 25.8885 110.704 25.8987C110.532 25.9052 110.365 25.908 110.205 25.907C109.991 25.895 109.724 25.9063 109.447 25.939C109.364 25.949 109.283 25.9544 109.21 25.9544C108.507 25.9682 107.806 25.9844 107.113 25.9916C106.953 25.9874 106.765 25.9969 106.572 26.0189C106.491 26.0284 106.412 26.0324 106.345 26.0302C105.25 26.0084 104.014 26.064 102.94 26.0339C102.81 26.0268 102.666 26.0253 102.512 26.0295C102.166 26.0472 101.866 26.0358 101.656 25.9971C101.543 25.9765 101.399 25.9652 101.231 25.9638C101.064 25.9624 100.878 25.9711 100.684 25.9891C100.362 26.013 100.065 26.0156 99.8233 25.9966C99.3522 25.9791 98.8567 25.9719 98.3408 25.975C98.1828 25.9781 98.0438 25.9713 97.9347 25.9551C97.8257 25.9389 97.7494 25.9138 97.7119 25.8817C97.8386 25.8271 97.9771 25.8204 98.1087 25.8252C98.6185 25.8128 99.1271 25.7979 99.6274 25.7921C100.075 25.7753 100.505 25.7702 100.91 25.7768C101.111 25.7842 101.362 25.7673 101.609 25.7297C101.91 25.6821 102.221 25.6584 102.478 25.6635C102.668 25.6648 102.869 25.6607 103.078 25.6513C103.212 25.6399 103.349 25.6205 103.475 25.5948C103.525 25.5837 103.579 25.5744 103.635 25.5674C103.69 25.5604 103.746 25.5559 103.797 25.5543C103.848 25.5526 103.895 25.5538 103.933 25.5578C103.972 25.5617 104.002 25.5684 104.021 25.5773C104.214 25.6517 104.646 25.6137 105.016 25.6055C105.571 25.4796 105.983 25.5541 106.502 25.483C106.543 25.4783 106.583 25.4754 106.62 25.4746C106.658 25.4738 106.691 25.475 106.719 25.4783C107.722 25.5211 108.891 25.4854 109.944 25.5002C110.06 25.5023 110.195 25.4949 110.333 25.4788C111.235 25.372 112.103 25.3417 112.767 25.3938C112.848 25.3985 112.939 25.3987 113.038 25.3944C113.492 25.3519 113.926 25.335 114.303 25.345C114.895 25.3418 115.465 25.3444 116.066 25.3346C116.481 25.3207 116.844 25.3356 117.121 25.3779C117.13 25.3949 117.314 25.3765 117.455 25.3748C117.536 25.3319 117.606 25.2932 117.69 25.2551C117.765 25.2081 117.877 25.1605 118.018 25.1156C118.16 25.0707 118.328 25.0295 118.511 24.9948C118.823 24.9503 118.855 24.8858 118.636 24.8621C118.072 24.7836 117.363 24.7514 116.561 24.768C115.89 24.7694 115.208 24.7724 114.528 24.7803C114.131 24.7871 113.713 24.8021 113.328 24.8048C113.197 24.8106 113.064 24.8191 112.928 24.8303C112.761 24.8465 112.599 24.8554 112.451 24.8563C111.974 24.8427 111.443 24.8546 110.881 24.8915C110.676 24.8995 110.478 24.9022 110.292 24.8996C109.851 24.8896 109.373 24.8969 108.871 24.9215C108.558 24.9354 108.256 24.9426 107.965 24.9432C107.863 24.9447 107.78 24.933 107.681 24.9419C106.812 25.0341 106.197 24.9675 105.415 25.0029C105.035 25.0128 104.672 25.0128 104.331 25.003C103.665 25.0035 102.981 25.0136 102.282 25.0333C101.356 25.0657 100.499 25.0544 99.6149 25.0678C99.4405 25.0706 99.272 25.0701 99.1108 25.0664C98.3266 25.0415 97.4749 25.0468 96.5764 25.0821C96.3724 25.0872 96.1891 25.0809 96.0381 25.0637C95.8872 25.0466 95.7717 25.0188 95.6989 24.9822C95.6681 24.9571 95.6881 24.9245 95.7549 24.8907C95.8658 24.8475 95.991 24.8052 96.1285 24.7644L101.13 24.6277C101.34 24.6206 101.545 24.6167 101.744 24.6162C102.328 24.615 102.93 24.6044 103.547 24.5843C104.157 24.5655 104.739 24.5689 105.33 24.5632C105.504 24.5613 105.683 24.5568 105.865 24.5498C107.099 24.494 108.301 24.4599 109.465 24.4478C109.955 24.4461 110.483 24.4205 110.983 24.4122C111.482 24.4039 112.164 24.4009 112.756 24.3977L114.589 24.3982C114.949 24.3965 115.301 24.4014 115.65 24.4039C116.075 24.226 116.221 24.1844 116.787 24.1064C116.981 24.0777 117.178 24.0605 117.355 24.057C117.918 24.071 118.623 24.0125 119.156 24.0202C119.478 24.0164 119.751 24.0362 119.947 24.0775C120.118 24.1099 120.313 24.1356 120.529 24.1541C121.122 24.0019 121.174 23.9031 120.728 23.8646C120.607 23.8557 120.441 23.8584 120.354 23.8395C120.304 23.828 120.235 23.8214 120.154 23.8202C120.073 23.8191 119.981 23.8234 119.886 23.8329C119.585 23.8578 119.303 23.8637 119.068 23.8499C118.848 23.8317 118.577 23.8324 118.282 23.852C118.066 23.8828 117.876 23.8394 117.688 23.8268C117.501 23.8142 117.348 23.7917 117.055 23.8254C117.002 23.8321 116.949 23.8362 116.9 23.8372C116.851 23.8382 116.808 23.8363 116.774 23.8314C116.46 23.8097 116.086 23.812 115.681 23.8381C115.06 23.8638 114.477 23.8647 113.953 23.8409C113.639 23.8201 113.372 23.7832 113.161 23.7316C113.103 23.7143 113.018 23.704 112.913 23.7015C112.386 23.7123 111.813 23.7528 111.232 23.8205C111.013 23.8476 110.795 23.869 110.581 23.8843C110.142 23.9184 109.717 23.9374 109.32 23.941C108.742 23.9415 108.14 23.9546 107.52 23.9801C107.137 23.9943 106.769 23.9996 106.418 23.9958C106.058 23.994 105.673 24.0048 105.273 24.028C104.875 24.0469 104.524 24.0361 104.263 23.9967C104.177 23.9755 104.108 23.9503 104.057 23.9216C104.64 23.8282 105.242 23.7808 105.743 23.7888C105.934 23.7826 106.092 23.7889 106.293 23.7525L106.299 23.7647C106.339 23.7725 106.399 23.7744 106.468 23.7699C106.537 23.7654 106.61 23.7548 106.673 23.7401V23.7401C106.65 23.6939 106.627 23.6501 106.611 23.6185C106.229 23.6241 105.858 23.6236 105.5 23.6171C105.198 23.6078 104.789 23.6895 104.528 23.6588C104.018 23.6972 103.694 23.6441 103.237 23.6594C102.781 23.6748 102.278 23.7254 101.821 23.7407C101.422 23.7492 101.035 23.751 100.662 23.7462C100.533 23.7395 100.385 23.7411 100.226 23.7508C100.002 23.7691 99.7942 23.7722 99.6256 23.7597C99.4571 23.7472 99.3349 23.7195 99.2729 23.68C99.3313 23.643 99.4099 23.5953 99.5005 23.5458C99.3338 23.5052 99.0806 23.4881 98.7784 23.497L98.3515 23.4951C98.2383 23.4961 98.1519 23.4851 98.1099 23.4644C98.068 23.4436 98.0737 23.4146 98.1261 23.3835C98.9356 23.2266 98.9654 23.2093 99.5596 23.3102L100.348 23.2633L100.335 23.2626ZM89.6648 23.6936L89.7249 23.6851L89.6648 23.6936ZM-8.64635 40.3885L-8.63254 40.4152L-8.64761 40.386L-8.77985 40.4049L-8.78864 40.3878L-8.64635 40.3885ZM10.5565 28.6578C10.7434 28.6286 10.9322 28.6017 11.1216 28.5774C11.1712 28.5736 11.2176 28.5728 11.2569 28.5749C11.2962 28.5771 11.3273 28.5821 11.3474 28.5897C11.3625 28.6189 11.2567 28.6392 11.1606 28.6528C11.0393 28.6712 10.9153 28.6829 10.8016 28.6867C10.6878 28.6905 10.5883 28.6862 10.5134 28.6744L10.4047 28.6637L10.5565 28.6578ZM106.844 35.7738C106.721 35.7787 106.604 35.7795 106.497 35.7762C106.02 35.7526 105.564 35.7183 105.075 35.6964C104.458 35.6408 103.749 35.6182 102.975 35.6294C102.673 35.6348 102.417 35.6168 102.239 35.5774C102.132 35.5563 101.994 35.5439 101.833 35.5411L99.7862 35.477C99.6597 35.4637 99.5504 35.445 99.4607 35.4214C99.6411 35.3958 99.7613 35.3787 99.8334 35.3684C99.9831 35.3655 100.112 35.3733 100.207 35.3911C100.308 35.4212 100.48 35.4331 100.688 35.4244C100.898 35.4173 101.103 35.4134 101.302 35.4129C101.677 35.4144 102.055 35.4208 102.431 35.4247C102.577 35.5084 103.009 35.4704 103.379 35.4622L103.665 35.4659C104.6 35.5093 105.492 35.5689 106.339 35.6446C106.502 35.6574 106.643 35.6778 106.757 35.7052C106.8 35.7266 106.814 35.7533 106.797 35.7831L106.858 35.7745L106.844 35.7738ZM65.1163 43.7714C64.8896 43.7771 64.6536 43.7888 64.4116 43.8063C64.2252 43.8242 64.0433 43.8351 63.8732 43.8385C62.9202 43.8572 61.927 43.9005 60.9071 43.9678C60.7737 43.978 60.6455 43.983 60.5275 43.9826L59.6927 43.9655C59.4296 43.9559 59.4246 43.9462 59.6161 43.8171C59.775 43.7921 59.9357 43.7692 60.097 43.7487C60.1932 43.735 60.3495 43.7128 60.3861 43.7337C60.6092 43.7908 61.016 43.7538 61.3582 43.7417C62.3488 43.7105 63.3704 43.6645 64.3705 43.6267C64.582 43.6175 64.7868 43.6128 64.9828 43.6128C65.1045 43.6108 65.2154 43.6145 65.3111 43.6236C65.339 43.6245 65.3624 43.6272 65.3797 43.6315C65.3969 43.6358 65.4078 43.6416 65.4113 43.6485C65.4149 43.6554 65.4111 43.6632 65.4003 43.6715C65.3895 43.6798 65.372 43.6883 65.3487 43.6965C65.2669 43.7253 65.1723 43.7528 65.0682 43.7782L65.1163 43.7714ZM57.8597 25.0358L56.8839 25.0205C56.7669 25.0188 56.6676 25.0016 56.5424 25.009C55.8742 25.0323 55.2555 25.0258 54.7127 24.9897C54.5278 24.975 54.3116 24.9721 54.0758 24.9811C53.3539 25.0077 52.6729 25.0088 52.0512 24.9843C51.6494 24.9794 51.2734 24.9629 50.9287 24.935C50.9022 24.9286 50.8856 24.9198 50.8802 24.9093C50.8748 24.8988 50.8806 24.8868 50.8973 24.8742C50.9017 24.8662 50.9135 24.8577 50.9319 24.8491C50.9504 24.8405 50.9751 24.8321 51.0043 24.8245C51.0334 24.8168 51.0664 24.8102 51.101 24.8049C51.1355 24.7996 51.1708 24.7959 51.2044 24.794C51.6398 24.7563 52.0532 24.7431 52.4107 24.7556C52.7421 24.7706 53.099 24.775 53.4757 24.7687C53.8362 24.767 54.0808 24.8158 54.5262 24.7786C54.7147 24.7663 54.8809 24.7704 54.9968 24.79C55.2301 24.8226 55.5557 24.8244 55.9158 24.7951C56.1312 24.7803 56.337 24.774 56.5256 24.7763C56.9828 24.787 57.4198 24.8085 57.8435 24.8292C57.977 24.834 58.12 24.8346 58.2704 24.8311L60.3919 24.7906C60.9017 24.7782 61.4103 24.7633 61.9106 24.7574C62.3198 24.7447 62.7005 24.7487 63.0395 24.7692C63.4009 24.7908 63.7951 24.7996 64.2146 24.7954C64.866 24.8072 65.5136 24.8117 66.2227 24.8101C66.6749 24.8111 67.1379 24.808 67.6104 24.7982C67.8494 24.7857 68.0523 24.7959 68.1801 24.8269C68.2578 24.8524 68.4407 24.8316 68.5925 24.8257C69.4023 24.7686 70.1617 24.7551 70.8177 24.7861C70.9015 24.7911 70.9935 24.7929 71.0916 24.7915C71.7235 24.7905 72.3781 24.7835 72.9847 24.7835C73.1443 24.7859 73.2946 24.7925 73.4336 24.8032C73.4188 24.8207 73.3763 24.8396 73.3151 24.8561C73.254 24.8726 73.1787 24.8853 73.105 24.8917C72.5314 24.9405 71.9775 24.9663 71.4666 24.968C70.6163 24.9618 69.7255 24.9758 68.8037 25.0098C68.0884 25.0441 67.4362 25.0369 66.8956 24.9887C66.473 24.9527 65.9233 24.9662 65.3408 25.027C65.0915 25.056 64.8496 25.0676 64.6481 25.0602C64.4541 25.0505 64.2316 25.0528 63.9934 25.0671C63.4914 25.0942 63.0085 25.1068 62.5544 25.1046C62.1104 25.0946 61.6962 25.0673 61.2403 25.0591C60.7843 25.0508 60.0898 25.0555 59.5276 25.0415C58.9654 25.0274 58.4094 25.0255 57.8597 25.0358ZM98.296 23.6126C98.2445 23.6879 98.0621 23.7347 97.866 23.7547C97.1897 23.8438 96.5212 23.8817 95.9726 23.8621C95.6762 23.8347 95.2812 23.8453 94.865 23.8916C94.3804 23.9399 93.9275 23.9479 93.586 23.9142C93.5024 23.9083 93.4383 23.8959 93.3996 23.8781C93.392 23.8635 93.3782 23.8367 93.3757 23.8318C93.4116 23.8195 93.4556 23.8081 93.5043 23.7984C93.553 23.7888 93.6052 23.7812 93.6567 23.7762L95.8967 23.6901L96.287 23.6711C97 23.6215 97.6794 23.6017 98.296 23.6126V23.6126ZM93.89 24.8033C93.5404 24.9262 93.5392 24.9238 93.3601 24.9518C92.4961 25.0685 91.6326 25.1314 90.8725 25.1332C90.7036 25.1329 90.5602 25.121 90.4545 25.0987C90.4002 25.0956 90.3656 25.086 90.3583 25.0719C90.351 25.0577 90.3716 25.0403 90.4156 25.0232L90.6936 24.9367C91.1985 24.8992 91.6961 24.8695 92.1834 24.8476C92.7509 24.8217 93.2537 24.8207 93.842 24.8102L93.89 24.8033ZM65.1582 43.2274C64.8325 43.3965 64.8312 43.3941 64.2859 43.4377C63.9058 43.4686 63.5372 43.4867 63.1908 43.4915C62.7677 43.4969 62.3338 43.5064 61.9119 43.5141C61.8088 43.5195 61.7215 43.515 61.6669 43.5016C61.6122 43.4881 61.5941 43.4666 61.6161 43.4413C61.6715 43.4138 61.7581 43.3871 61.8619 43.3657C61.9656 43.3443 62.0805 43.3294 62.1877 43.3234L62.418 43.3194C62.6976 43.311 62.9879 43.2984 63.258 43.2966C63.4332 43.3036 63.6363 43.2982 63.8512 43.2807C64.0661 43.2633 64.2871 43.2343 64.4968 43.1961L65.1582 43.2274ZM92.1506 23.8337C92.0636 23.863 91.9652 23.891 91.8581 23.9171C91.4432 23.9893 91.0041 24.0303 90.6268 24.0321C90.4485 24.0366 90.2853 24.0206 90.1037 24.0438C89.778 24.0749 89.4623 24.0914 89.1738 24.0925C89.1738 24.0925 89.0928 24.0857 89.0663 24.0843L89.011 23.9772C89.1476 23.9524 89.2901 23.9322 89.4319 23.9174C89.9076 23.8889 90.3751 23.8694 90.8413 23.8475C91.3075 23.8256 91.4701 23.8156 91.775 23.8061C91.911 23.8113 92.0368 23.8205 92.1506 23.8337ZM102.453 37.1427L101.83 37.3618C101.629 37.3808 101.441 37.3843 101.294 37.3716C101.148 37.359 101.052 37.3309 101.02 37.2916C100.968 37.2733 100.963 37.2461 101.005 37.2158C101.047 37.1854 101.134 37.1543 101.245 37.129C101.353 37.0989 101.476 37.0719 101.607 37.0498C101.737 37.0276 101.873 37.0107 102.005 37.0001L102.453 37.1427ZM97.2693 36.0517C97.6765 36.0145 98.066 35.9993 98.408 36.0073C98.6234 36.029 98.9154 36.0221 99.2239 35.9879C99.7851 35.9197 100.326 35.9008 100.733 35.9352C100.733 35.9352 100.748 35.9644 100.817 35.9729C100.886 35.9814 100.612 36.002 100.552 36.0105C100.111 36.0315 99.6677 36.0475 99.2844 36.055C99.0464 36.0547 98.7947 36.0616 98.5336 36.0756C98.1743 36.0972 97.8335 36.1042 97.5247 36.0963C97.5247 36.0963 97.4052 36.0898 97.2706 36.0541L97.2693 36.0517ZM53.783 24.6388C53.9775 24.5975 54.1884 24.564 54.3999 24.5407C54.6114 24.5174 54.818 24.505 55.0042 24.5043C55.1468 24.5022 55.2622 24.513 55.3321 24.5353C55.402 24.5575 55.4224 24.5898 55.3902 24.627C55.2459 24.6475 55.0535 24.6749 54.9453 24.6903C54.5702 24.6888 54.2503 24.669 53.783 24.6388ZM17.3755 28.1163C17.5315 28.0831 17.7034 28.0577 17.8716 28.043C18.0397 28.0284 18.1973 28.025 18.3264 28.0333C18.3928 28.0369 18.3477 28.0747 18.359 28.0966C18.3664 28.1016 18.3663 28.1077 18.3588 28.1145C18.3512 28.1212 18.3365 28.1283 18.3162 28.1349C18.2959 28.1415 18.2706 28.1475 18.2432 28.1521C18.2158 28.1568 18.1871 28.16 18.1602 28.1614C17.9909 28.1757 17.8311 28.18 17.695 28.1738C17.559 28.1677 17.4509 28.1512 17.3805 28.1261L17.3755 28.1163ZM14.9361 28.5912C14.9603 28.5716 15.0116 28.5512 15.0808 28.5337C15.15 28.5162 15.2324 28.5027 15.3128 28.4959C15.4549 28.4949 15.5841 28.5004 15.6954 28.512C15.8161 28.5209 15.7293 28.5777 15.5659 28.6113C15.4968 28.6248 15.4229 28.6354 15.3501 28.6421C15.2774 28.6489 15.2078 28.6516 15.1469 28.6501C15.086 28.6486 15.0354 28.643 14.9993 28.6336C14.9631 28.6242 14.9424 28.6114 14.9386 28.5961L14.9361 28.5912ZM85.818 24.0422C86.1819 23.9722 86.4621 23.9898 86.7702 23.9616C87.0783 23.9335 87.1542 23.9305 87.1129 23.9756C87.0717 24.0206 86.8604 24.0115 86.7282 24.0303C86.5495 24.0552 86.3697 24.0696 86.209 24.0717C86.0482 24.0738 85.9128 24.0636 85.818 24.0422V24.0422ZM9.9802 35.8931C10.173 35.8773 10.3618 35.8662 10.5438 35.8599C10.5678 35.8664 10.5828 35.8749 10.588 35.885C10.5932 35.895 10.5884 35.9063 10.574 35.9183C10.574 35.9183 10.4505 35.9541 10.3784 35.9644C10.1126 35.9996 10.0995 35.9492 9.9802 35.8931V35.8931ZM-17.2653 42.4186C-17.3957 42.4659 -17.4566 42.498 -17.561 42.5207C-17.609 42.5286 -17.6586 42.5343 -17.7061 42.5375C-17.7537 42.5406 -17.7979 42.5411 -17.8356 42.5389C-17.8815 42.5253 -17.8923 42.5044 -17.8657 42.4805C-17.8657 42.4805 -17.7328 42.4381 -17.6822 42.4361C-17.5378 42.4261 -17.3979 42.4202 -17.2653 42.4186V42.4186ZM92.0128 23.6417C92.2893 23.6024 92.5539 23.5648 92.7453 23.6107C92.3062 23.6601 92.3062 23.6601 92.0128 23.6417ZM87.5337 24.0907C87.813 24.0066 87.9768 23.999 88.1109 24.0086C88.1394 24.0111 88.1582 24.0165 88.1646 24.0241C88.171 24.0317 88.1645 24.041 88.1462 24.0507C88.1278 24.0604 88.0986 24.0699 88.063 24.0778C88.0274 24.0857 87.9872 24.0915 87.9487 24.0944C87.803 24.0968 87.6641 24.0956 87.5337 24.0907V24.0907ZM73.1617 24.1263C73.1554 24.1141 73.1479 24.0995 73.22 24.0892C73.2389 24.084 73.2611 24.0796 73.2843 24.0763C73.3075 24.0729 73.3309 24.0709 73.3523 24.0704C73.3523 24.0704 73.3598 24.085 73.3648 24.0948L73.1617 24.1263ZM63.1814 44.3234L63.342 44.3345L63.2698 44.3448L63.0794 44.351L63.1814 44.3234ZM6.62975 28.4014C6.68987 28.3928 6.74999 28.3843 6.75878 28.4013C6.77147 28.404 6.77932 28.4078 6.78173 28.4124C6.78413 28.4171 6.78101 28.4224 6.7726 28.4281C6.7726 28.4281 6.68843 28.4401 6.65235 28.4452L6.62975 28.4014ZM15.9925 28.5376C16.0321 28.5366 16.0678 28.5378 16.0975 28.541C16.0975 28.541 16.105 28.5556 16.105 28.5556L15.9848 28.5727L15.9925 28.5376ZM97.5869 32.0159C97.6333 32.0071 97.6825 32.0001 97.7312 31.9954L97.7913 31.9869C97.7913 31.9869 97.7267 32.0117 97.6906 32.0168C97.6545 32.022 97.6255 32.0157 97.5869 32.0159Z" fill="#2E7D32"/>
</g>
</svg>
