<svg width="228" height="184" viewBox="0 0 228 184" fill="none" xmlns="http://www.w3.org/2000/svg">
<path d="M115.928 183.718C171.996 183.718 217.449 174.106 217.449 162.248C217.449 150.39 171.996 140.777 115.928 140.777C59.8593 140.777 14.4069 150.39 14.4069 162.248C14.4069 174.106 59.8593 183.718 115.928 183.718Z" fill="#92E3A9"/>
<path opacity="0.3" d="M115.928 183.718C171.996 183.718 217.449 174.106 217.449 162.248C217.449 150.39 171.996 140.777 115.928 140.777C59.8593 140.777 14.4069 150.39 14.4069 162.248C14.4069 174.106 59.8593 183.718 115.928 183.718Z" fill="white"/>
<path d="M0.11964 18.3903C-0.00403988 17.943 -0.0322203 17.4747 0.0369273 17.0158C0.106075 16.5569 0.271003 16.1176 0.520997 15.7267C0.77099 15.3357 1.10045 15.0017 1.48798 14.7463C1.8755 14.491 2.31241 14.32 2.77032 14.2446C5.54293 13.8682 8.9464 17.5898 10.0279 19.8428C10.118 20.039 11.226 23.2516 11.173 23.2516C11.12 23.2516 6.25861 23.3629 4.28121 22.4829C2.54766 21.7354 0.580858 20.3094 0.11964 18.3903ZM71.3275 9.83388C70.9193 11.7636 68.9896 13.2427 67.3037 14.0379C65.6179 14.8331 61.6154 14.9709 60.6346 14.9868C60.1045 15.6177 59.5372 16.3015 58.9276 17.0649C57.8673 18.4221 56.6904 19.9648 55.5241 21.7248C55.2113 22.1966 54.8933 22.7109 54.5752 23.2092C55.2856 22.4829 56.2663 21.5022 56.3723 21.4173C58.3285 19.864 63.0149 18.0033 65.3422 19.5513C65.722 19.8184 66.0413 20.1625 66.2793 20.5611C66.5174 20.9598 66.6688 21.4041 66.7238 21.8652C66.7788 22.3262 66.7362 22.7937 66.5986 23.2371C66.461 23.6806 66.2316 24.0901 65.9254 24.4391C64.6689 25.9659 62.278 26.39 60.412 26.3158C58.5459 26.2416 54.819 24.4656 54.0238 24.068C53.34 25.176 52.6614 26.3317 52.0252 27.5775C50.8408 29.8233 49.8596 32.1706 49.0936 34.5912L49.2367 34.6601C49.8039 33.9126 51.0392 32.37 51.1558 32.2586C52.9265 30.4933 57.3849 28.1342 59.8712 29.4118C60.2734 29.6372 60.6241 29.944 60.9009 30.3126C61.1777 30.6813 61.3746 31.1037 61.4789 31.5527C61.5832 32.0018 61.5926 32.4677 61.5065 32.9206C61.4205 33.3735 61.2409 33.8035 60.9792 34.183C59.9189 35.8423 57.5704 36.5262 55.7097 36.6534C53.5891 36.8072 49.1307 35.132 48.961 35.063C48.273 37.488 47.7418 39.9547 47.3706 42.4478C47.0844 44.2927 46.867 46.1588 46.6655 48.062C47.0525 47.5318 48.6748 45.5014 48.7861 45.3689C50.5567 43.6088 55.0152 41.2444 57.4962 42.5273C57.9033 42.7514 58.2586 43.0587 58.539 43.4292C58.8194 43.7997 59.0186 44.2251 59.1237 44.6777C59.2287 45.1304 59.2372 45.6001 59.1486 46.0562C59.06 46.5123 58.8763 46.9447 58.6095 47.3251C57.5492 48.9791 55.2007 49.663 53.34 49.7902C51.2459 49.9386 46.9783 48.3535 46.6284 48.1998C46.5383 49.0586 46.4482 49.9121 46.3634 50.7763C46.0877 53.5807 45.8332 56.401 45.4833 59.1736C45.3614 60.1332 45.213 61.0768 45.0645 62.0204C45.6689 61.2358 46.7928 59.831 46.9041 59.7197C48.6748 57.9596 53.1332 55.5952 55.6195 56.8781C56.0223 57.1029 56.3736 57.4094 56.6509 57.778C56.9282 58.1466 57.1254 58.5692 57.2297 59.0185C57.334 59.4678 57.3433 59.9339 57.2568 60.387C57.1703 60.8401 56.99 61.2701 56.7275 61.6493C55.6673 63.3034 53.3187 63.9872 51.458 64.1198C49.5972 64.2523 45.9817 62.9959 44.9691 62.6248C44.7093 64.2152 44.439 65.7473 44.0573 67.2582C43.8876 67.9102 43.7604 68.5835 43.559 69.1985L43.0288 71.0486C42.6047 72.2998 42.2177 73.4608 41.7936 74.6165C41.5815 75.1996 41.3748 75.7456 41.1627 76.3129C41.6558 75.4223 42.4616 74.0333 42.5464 73.9114C44.0308 71.9022 48.0757 68.8963 50.7264 69.7869C51.1629 69.9459 51.5609 70.1952 51.8945 70.5184C52.2281 70.8417 52.4897 71.2317 52.6623 71.663C52.8349 72.0943 52.9146 72.5571 52.8962 73.0212C52.8778 73.4854 52.7616 73.9405 52.5554 74.3567C51.7389 76.1591 49.5389 77.1876 47.7152 77.5958C45.7113 78.0517 41.4066 77.177 40.8818 77.0657C40.3516 78.4493 39.8215 79.7853 39.3232 81.0311C37.7328 84.97 36.2219 88.1932 35.1457 90.4357L34.9708 90.7962H42.8115L40.1025 143.598C40.0283 145.55 39.1993 147.397 37.79 148.75C36.3808 150.102 34.5015 150.855 32.548 150.85C30.6135 150.851 28.7524 150.109 27.3494 148.777C25.9464 147.445 25.1087 145.625 25.0095 143.693L22.3005 90.8916H30.7191C30.6767 90.5258 30.6342 90.1388 30.5865 89.7041C30.3056 87.2655 29.8496 83.7772 29.1181 79.6315C28.9113 78.4334 28.6727 77.1664 28.4077 75.8676C27.8775 75.9365 23.5198 76.4878 21.553 75.8676C19.7718 75.3374 17.6512 74.1287 16.9727 72.2733C16.7987 71.8428 16.7174 71.3806 16.7338 70.9166C16.7503 70.4526 16.8643 69.9973 17.0683 69.5803C17.2723 69.1633 17.5618 68.7939 17.918 68.4961C18.2742 68.1983 18.689 67.9788 19.1356 67.8519C21.8446 67.1574 25.6563 70.4655 26.9869 72.5754C27.0717 72.7133 27.8934 74.4256 28.2963 75.3109C28.1373 74.5263 27.9836 73.747 27.8033 72.9306C27.5489 71.759 27.2732 70.5291 26.9604 69.331C26.7908 68.716 26.6158 68.0958 26.4303 67.4702C26.2447 66.8447 26.0327 66.2509 25.8365 65.6254C25.529 64.7241 25.1632 63.807 24.7762 62.8899C23.5993 63.2185 20.1217 64.1145 18.3351 63.8547C16.5485 63.5949 14.2106 62.7308 13.2617 61.0026C13.0238 60.6033 12.8728 60.1583 12.8184 59.6967C12.764 59.2351 12.8075 58.7672 12.9461 58.3236C13.0846 57.8799 13.3151 57.4704 13.6225 57.1218C13.9299 56.7732 14.3073 56.4933 14.7302 56.3003C17.3013 55.2029 21.5689 57.8907 23.2123 59.7833C23.2654 59.8416 23.5728 60.2763 23.928 60.7958C23.5463 59.9158 23.1699 59.0305 22.7564 58.1451C21.5795 55.6429 20.3019 53.1248 19.0455 50.6013C18.7804 50.0712 18.5153 49.541 18.2609 49.0109C17.2695 49.2919 13.4897 50.2991 11.6395 50.0288C9.78931 49.7584 7.51503 48.9049 6.56609 47.1713C6.3322 46.7722 6.18464 46.3284 6.13293 45.8686C6.08123 45.4089 6.12654 44.9434 6.26592 44.5023C6.40531 44.0611 6.63568 43.6541 6.94215 43.3076C7.24863 42.961 7.62439 42.6826 8.04517 42.4902C10.6163 41.3982 14.8839 44.0806 16.5273 45.9785C16.5857 46.0421 16.9514 46.5617 17.3491 47.1501C16.6811 45.7665 16.029 44.3828 15.4247 42.9833C14.381 40.5948 13.4955 38.1403 12.774 35.6356C12.4294 35.7363 8.04517 37.0086 5.96173 36.6959C4.11686 36.4308 1.84258 35.572 0.893637 33.8437C0.655613 33.4447 0.504301 33.0001 0.449553 32.5387C0.394805 32.0774 0.437852 31.6097 0.575886 31.1661C0.713921 30.7224 0.943849 30.3129 1.2507 29.964C1.55755 29.6152 1.93443 29.3349 2.35681 29.1414C4.93327 28.0493 9.20086 30.7318 10.839 32.6244C10.9556 32.7623 12.2491 34.6495 12.6892 35.344C12.6868 35.314 12.6868 35.2839 12.6892 35.2539C12.0408 32.7751 11.615 30.2434 11.4168 27.6888C11.2219 25.4095 11.1582 23.1209 11.226 20.8342C11.279 18.7137 11.4539 16.7734 11.6236 15.061C11.7243 14.1333 11.8303 13.2851 11.9417 12.4952L11.894 12.527C11.8462 12.5588 10.9132 9.29315 10.8761 9.08109C10.4626 6.61596 11.12 1.61678 13.601 0.328551C14.0197 0.126759 14.4762 0.0153205 14.9408 0.00147131C15.4053 -0.0123779 15.8677 0.0716718 16.2976 0.248164C16.7276 0.424657 17.1157 0.689642 17.4365 1.0259C17.7574 1.36216 18.004 1.76216 18.1602 2.19993C18.8811 4.0395 18.0859 6.33499 17.0999 7.9307C16.1138 9.52641 12.8588 11.8431 12.0636 12.3997C11.9682 13.2214 11.8727 14.1015 11.7879 15.0504C11.6554 16.7628 11.5229 18.6978 11.5176 20.813C11.5176 21.3802 11.5176 21.9846 11.5441 22.573C11.7349 21.5764 12.0159 20.2192 12.0742 20.0867C12.8429 17.7117 15.7268 13.5766 18.5259 13.5819C18.9902 13.5955 19.4465 13.7066 19.865 13.9081C20.2835 14.1096 20.6549 14.3971 20.9549 14.7516C21.255 15.1062 21.477 15.52 21.6065 15.966C21.7361 16.4121 21.7702 16.8805 21.7068 17.3406C21.5053 19.3074 19.74 20.9773 18.1443 21.9475C16.5485 22.9176 12.44 23.5167 11.56 23.6174C11.6024 24.9215 11.6713 26.2681 11.8303 27.6464C12.0818 30.1717 12.5573 32.6697 13.2511 35.1107H13.4101C13.4738 34.1724 13.654 32.2056 13.6858 32.0413C14.2159 29.5973 16.6016 25.1495 19.3848 24.8685C19.8477 24.8311 20.3134 24.8917 20.7514 25.0462C21.1894 25.2006 21.59 25.4456 21.927 25.7652C22.2641 26.0848 22.5301 26.4717 22.7077 26.9009C22.8853 27.33 22.9706 27.7918 22.9579 28.2561C22.9579 30.2282 21.4046 32.089 19.9255 33.2235C18.2185 34.5329 13.5957 35.5826 13.4207 35.6197C14.1759 38.027 15.0879 40.3823 16.1509 42.6705C16.9302 44.3669 17.7838 46.058 18.6585 47.7439C18.6903 47.0812 18.9235 44.4995 18.9607 44.3139C19.4908 41.87 21.8764 37.4221 24.6596 37.1359C25.1224 37.0993 25.5877 37.1604 26.0253 37.3152C26.463 37.47 26.8632 37.7151 27.2001 38.0344C27.537 38.3538 27.803 38.7404 27.9809 39.1692C28.1588 39.598 28.2446 40.0594 28.2327 40.5234C28.2327 42.5008 26.6741 44.3563 25.1951 45.4908C23.5304 46.7684 19.1091 47.7969 18.7327 47.8817C19.1303 48.6451 19.5279 49.4138 19.9308 50.1772C21.2508 52.6741 22.5815 55.1658 23.8326 57.668C24.262 58.5374 24.6543 59.4069 25.0519 60.2763C25.1208 59.2849 25.2905 57.4931 25.317 57.3393C25.8471 54.8954 28.238 50.4476 31.0159 50.1613C31.4789 50.1239 31.9445 50.1844 32.3826 50.3389C32.8206 50.4934 33.2212 50.7384 33.5582 51.058C33.8953 51.3775 34.1613 51.7645 34.3389 52.1936C34.5165 52.6228 34.6017 53.0846 34.5891 53.5489C34.5891 55.5263 33.0358 57.3817 31.5567 58.5162C30.0776 59.6507 26.3667 60.5997 25.3223 60.8541C25.9744 62.3173 26.5999 63.7487 27.1301 65.2119C27.3474 65.848 27.6072 66.4789 27.7821 67.0991L28.3441 68.9493C28.678 70.2269 28.9961 71.4091 29.2824 72.6072C29.4308 73.2116 29.5528 73.7841 29.6906 74.3673C29.6111 73.36 29.5157 71.7537 29.521 71.6053C29.6535 69.1136 31.3658 64.3689 34.0695 63.6533C34.5217 63.5462 34.9913 63.5356 35.4478 63.6221C35.9043 63.7086 36.3375 63.8903 36.7191 64.1554C37.1007 64.4204 37.4221 64.7629 37.6626 65.1605C37.903 65.5581 38.057 66.0019 38.1145 66.463C38.1518 66.705 38.1678 66.9498 38.1622 67.1946C39.2508 69.1011 39.833 71.2548 39.8533 73.4502C39.8533 73.6092 39.5935 75.4912 39.4398 76.4507C39.742 75.7085 40.0389 74.9716 40.3357 74.1976C40.7757 73.0791 41.1998 71.8863 41.624 70.7306L42.2177 68.891C42.4298 68.2707 42.557 67.6558 42.7478 67.0249C42.9917 66.1025 43.1932 65.1323 43.3946 64.1728C42.2336 63.7911 38.8354 62.6248 37.4889 61.4214C36.1424 60.218 34.6739 58.2088 34.8382 56.242C34.861 55.7782 34.981 55.3243 35.1904 54.9099C35.3998 54.4955 35.694 54.1297 36.0539 53.8363C36.4138 53.5428 36.8314 53.3283 37.2795 53.2067C37.7276 53.085 38.1963 53.0589 38.6552 53.1301C41.4066 53.6602 43.4847 58.2353 43.8028 60.711C43.8028 60.7905 43.8293 61.3207 43.8399 61.9515C44.0096 61.0079 44.1845 60.0589 44.3223 59.0941C44.7253 56.3586 45.0433 53.5542 45.3826 50.7497C45.4515 50.1613 45.5311 49.5782 45.6 48.995C44.6192 48.6822 40.9295 47.4523 39.5193 46.1906C38.1092 44.9289 36.7043 42.978 36.8686 41.0112C36.8898 40.5468 37.0087 40.0921 37.2176 39.6768C37.4265 39.2616 37.7207 38.8951 38.081 38.6014C38.4413 38.3076 38.8595 38.0933 39.3084 37.9723C39.7572 37.8513 40.2265 37.8264 40.6856 37.8993C43.437 38.4294 45.5098 43.0045 45.8332 45.4802C45.8332 45.565 45.8332 46.2012 45.8703 46.9116C46.0718 45.3848 46.2945 43.8739 46.5648 42.3736C47.0047 39.7938 47.6193 37.2468 48.4044 34.7503C48.0545 34.6442 43.7021 33.2871 42.1329 31.8875C40.7386 30.6417 39.3126 28.6749 39.4822 26.7081C39.5033 26.2437 39.6222 25.789 39.8311 25.3738C40.0401 24.9585 40.3343 24.592 40.6946 24.2983C41.0549 24.0046 41.4731 23.7902 41.9219 23.6692C42.3708 23.5482 42.8401 23.5233 43.2992 23.5962C46.0453 24.1263 48.1234 28.7014 48.4468 31.1771C48.4468 31.3521 48.5051 33.6423 48.4892 34.464C48.4892 34.4322 48.4892 34.4004 48.5157 34.3739C49.344 31.9487 50.3854 29.6017 51.6276 27.3602C52.7306 25.348 53.9484 23.401 55.2749 21.5287C56.489 19.7845 57.703 18.2683 58.795 16.9324C59.3888 16.2114 59.9454 15.5646 60.4703 14.9656H60.412C60.3589 14.9656 61.3821 11.7212 61.4722 11.525C62.4901 9.24543 65.7928 5.43376 68.5707 5.73063C69.0334 5.79369 69.4775 5.95397 69.8738 6.20095C70.2701 6.44793 70.6096 6.776 70.87 7.1636C71.1304 7.55119 71.3057 7.98952 71.3846 8.44976C71.4635 8.90999 71.444 9.38171 71.3275 9.83388ZM39.2596 76.9491C38.7824 76.7211 35.1192 74.908 33.6878 73.3547C32.4489 74.0295 31.1708 74.6297 29.8603 75.1519C30.1836 76.5939 30.4911 77.9987 30.7509 79.3188C31.5779 83.4962 32.1133 87.0057 32.4526 89.4709C32.5215 90.001 32.5851 90.4622 32.6382 90.8916H32.8237L33.4387 89.6988C34.5466 87.5093 36.0893 84.3497 37.7752 80.4798C38.2629 79.3665 38.7612 78.179 39.2596 76.9491ZM53.9125 23.5644C53.9549 23.5644 54.8031 20.3041 54.8349 20.0867C55.1795 17.6163 54.3896 12.633 51.8715 11.4137C51.4472 11.2235 50.9877 11.1247 50.5227 11.1238C50.0578 11.1229 49.5978 11.2199 49.1728 11.4084C48.7478 11.5969 48.3672 11.8727 48.0558 12.218C47.7444 12.5632 47.5091 12.9702 47.3653 13.4123C46.6921 15.2678 47.5509 17.5421 48.5634 19.106C49.7509 20.9667 53.9072 23.5644 53.9125 23.5644Z" fill="#92E3A9"/>
<path opacity="0.3" d="M0.11964 18.3903C-0.00403988 17.943 -0.0322203 17.4747 0.0369273 17.0158C0.106075 16.5569 0.271003 16.1176 0.520997 15.7267C0.77099 15.3357 1.10045 15.0017 1.48798 14.7463C1.8755 14.491 2.31241 14.32 2.77032 14.2446C5.54293 13.8682 8.9464 17.5898 10.0279 19.8428C10.118 20.039 11.226 23.2516 11.173 23.2516C11.12 23.2516 6.25861 23.3629 4.28121 22.4829C2.54766 21.7354 0.580858 20.3094 0.11964 18.3903ZM71.3275 9.83388C70.9193 11.7636 68.9896 13.2427 67.3037 14.0379C65.6179 14.8331 61.6154 14.9709 60.6346 14.9868C60.1045 15.6177 59.5372 16.3015 58.9276 17.0649C57.8673 18.4221 56.6904 19.9648 55.5241 21.7248C55.2113 22.1966 54.8933 22.7109 54.5752 23.2092C55.2856 22.4829 56.2663 21.5022 56.3723 21.4173C58.3285 19.864 63.0149 18.0033 65.3422 19.5513C65.722 19.8184 66.0413 20.1625 66.2793 20.5611C66.5174 20.9598 66.6688 21.4041 66.7238 21.8652C66.7788 22.3262 66.7362 22.7937 66.5986 23.2371C66.461 23.6806 66.2316 24.0901 65.9254 24.4391C64.6689 25.9659 62.278 26.39 60.412 26.3158C58.5459 26.2416 54.819 24.4656 54.0238 24.068C53.34 25.176 52.6614 26.3317 52.0252 27.5775C50.8408 29.8233 49.8596 32.1706 49.0936 34.5912L49.2367 34.6601C49.8039 33.9126 51.0392 32.37 51.1558 32.2586C52.9265 30.4933 57.3849 28.1342 59.8712 29.4118C60.2734 29.6372 60.6241 29.944 60.9009 30.3126C61.1777 30.6813 61.3746 31.1037 61.4789 31.5527C61.5832 32.0018 61.5926 32.4677 61.5065 32.9206C61.4205 33.3735 61.2409 33.8035 60.9792 34.183C59.9189 35.8423 57.5704 36.5262 55.7097 36.6534C53.5891 36.8072 49.1307 35.132 48.961 35.063C48.273 37.488 47.7418 39.9547 47.3706 42.4478C47.0844 44.2927 46.867 46.1588 46.6655 48.062C47.0525 47.5318 48.6748 45.5014 48.7861 45.3689C50.5567 43.6088 55.0152 41.2444 57.4962 42.5273C57.9033 42.7514 58.2586 43.0587 58.539 43.4292C58.8194 43.7997 59.0186 44.2251 59.1237 44.6777C59.2287 45.1304 59.2372 45.6001 59.1486 46.0562C59.06 46.5123 58.8763 46.9447 58.6095 47.3251C57.5492 48.9791 55.2007 49.663 53.34 49.7902C51.2459 49.9386 46.9783 48.3535 46.6284 48.1998C46.5383 49.0586 46.4482 49.9121 46.3634 50.7763C46.0877 53.5807 45.8332 56.401 45.4833 59.1736C45.3614 60.1332 45.213 61.0768 45.0645 62.0204C45.6689 61.2358 46.7928 59.831 46.9041 59.7197C48.6748 57.9596 53.1332 55.5952 55.6195 56.8781C56.0223 57.1029 56.3736 57.4094 56.6509 57.778C56.9282 58.1466 57.1254 58.5692 57.2297 59.0185C57.334 59.4678 57.3433 59.9339 57.2568 60.387C57.1703 60.8401 56.99 61.2701 56.7275 61.6493C55.6673 63.3034 53.3187 63.9872 51.458 64.1198C49.5972 64.2523 45.9817 62.9959 44.9691 62.6248C44.7093 64.2152 44.439 65.7473 44.0573 67.2582C43.8876 67.9102 43.7604 68.5835 43.559 69.1985L43.0288 71.0486C42.6047 72.2998 42.2177 73.4608 41.7936 74.6165C41.5815 75.1996 41.3748 75.7456 41.1627 76.3129C41.6558 75.4223 42.4616 74.0333 42.5464 73.9114C44.0308 71.9022 48.0757 68.8963 50.7264 69.7869C51.1629 69.9459 51.5609 70.1952 51.8945 70.5184C52.2281 70.8417 52.4897 71.2317 52.6623 71.663C52.8349 72.0943 52.9146 72.5571 52.8962 73.0212C52.8778 73.4854 52.7616 73.9405 52.5554 74.3567C51.7389 76.1591 49.5389 77.1876 47.7152 77.5958C45.7113 78.0517 41.4066 77.177 40.8818 77.0657C40.3516 78.4493 39.8215 79.7853 39.3232 81.0311C37.7328 84.97 36.2219 88.1932 35.1457 90.4357L34.9708 90.7962H42.8115L40.1025 143.598C40.0283 145.55 39.1993 147.397 37.79 148.75C36.3808 150.102 34.5015 150.855 32.548 150.85C30.6135 150.851 28.7524 150.109 27.3494 148.777C25.9464 147.445 25.1087 145.625 25.0095 143.693L22.3005 90.8916H30.7191C30.6767 90.5258 30.6342 90.1388 30.5865 89.7041C30.3056 87.2655 29.8496 83.7772 29.1181 79.6315C28.9113 78.4334 28.6727 77.1664 28.4077 75.8676C27.8775 75.9365 23.5198 76.4878 21.553 75.8676C19.7718 75.3374 17.6512 74.1287 16.9727 72.2733C16.7987 71.8428 16.7174 71.3806 16.7338 70.9166C16.7503 70.4526 16.8643 69.9973 17.0683 69.5803C17.2723 69.1633 17.5618 68.7939 17.918 68.4961C18.2742 68.1983 18.689 67.9788 19.1356 67.8519C21.8446 67.1574 25.6563 70.4655 26.9869 72.5754C27.0717 72.7133 27.8934 74.4256 28.2963 75.3109C28.1373 74.5263 27.9836 73.747 27.8033 72.9306C27.5489 71.759 27.2732 70.5291 26.9604 69.331C26.7908 68.716 26.6158 68.0958 26.4303 67.4702C26.2447 66.8447 26.0327 66.2509 25.8365 65.6254C25.529 64.7241 25.1632 63.807 24.7762 62.8899C23.5993 63.2185 20.1217 64.1145 18.3351 63.8547C16.5485 63.5949 14.2106 62.7308 13.2617 61.0026C13.0238 60.6033 12.8728 60.1583 12.8184 59.6967C12.764 59.2351 12.8075 58.7672 12.9461 58.3236C13.0846 57.8799 13.3151 57.4704 13.6225 57.1218C13.9299 56.7732 14.3073 56.4933 14.7302 56.3003C17.3013 55.2029 21.5689 57.8907 23.2123 59.7833C23.2654 59.8416 23.5728 60.2763 23.928 60.7958C23.5463 59.9158 23.1699 59.0305 22.7564 58.1451C21.5795 55.6429 20.3019 53.1248 19.0455 50.6013C18.7804 50.0712 18.5153 49.541 18.2609 49.0109C17.2695 49.2919 13.4897 50.2991 11.6395 50.0288C9.78931 49.7584 7.51503 48.9049 6.56609 47.1713C6.3322 46.7722 6.18464 46.3284 6.13293 45.8686C6.08123 45.4089 6.12654 44.9434 6.26592 44.5023C6.40531 44.0611 6.63568 43.6541 6.94215 43.3076C7.24863 42.961 7.62439 42.6826 8.04517 42.4902C10.6163 41.3982 14.8839 44.0806 16.5273 45.9785C16.5857 46.0421 16.9514 46.5617 17.3491 47.1501C16.6811 45.7665 16.029 44.3828 15.4247 42.9833C14.381 40.5948 13.4955 38.1403 12.774 35.6356C12.4294 35.7363 8.04517 37.0086 5.96173 36.6959C4.11686 36.4308 1.84258 35.572 0.893637 33.8437C0.655613 33.4447 0.504301 33.0001 0.449553 32.5387C0.394805 32.0774 0.437852 31.6097 0.575886 31.1661C0.713921 30.7224 0.943849 30.3129 1.2507 29.964C1.55755 29.6152 1.93443 29.3349 2.35681 29.1414C4.93327 28.0493 9.20086 30.7318 10.839 32.6244C10.9556 32.7623 12.2491 34.6495 12.6892 35.344C12.6868 35.314 12.6868 35.2839 12.6892 35.2539C12.0408 32.7751 11.615 30.2434 11.4168 27.6888C11.2219 25.4095 11.1582 23.1209 11.226 20.8342C11.279 18.7137 11.4539 16.7734 11.6236 15.061C11.7243 14.1333 11.8303 13.2851 11.9417 12.4952L11.894 12.527C11.8462 12.5588 10.9132 9.29315 10.8761 9.08109C10.4626 6.61596 11.12 1.61678 13.601 0.328551C14.0197 0.126759 14.4762 0.0153205 14.9408 0.00147131C15.4053 -0.0123779 15.8677 0.0716718 16.2976 0.248164C16.7276 0.424657 17.1157 0.689642 17.4365 1.0259C17.7574 1.36216 18.004 1.76216 18.1602 2.19993C18.8811 4.0395 18.0859 6.33499 17.0999 7.9307C16.1138 9.52641 12.8588 11.8431 12.0636 12.3997C11.9682 13.2214 11.8727 14.1015 11.7879 15.0504C11.6554 16.7628 11.5229 18.6978 11.5176 20.813C11.5176 21.3802 11.5176 21.9846 11.5441 22.573C11.7349 21.5764 12.0159 20.2192 12.0742 20.0867C12.8429 17.7117 15.7268 13.5766 18.5259 13.5819C18.9902 13.5955 19.4465 13.7066 19.865 13.9081C20.2835 14.1096 20.6549 14.3971 20.9549 14.7516C21.255 15.1062 21.477 15.52 21.6065 15.966C21.7361 16.4121 21.7702 16.8805 21.7068 17.3406C21.5053 19.3074 19.74 20.9773 18.1443 21.9475C16.5485 22.9176 12.44 23.5167 11.56 23.6174C11.6024 24.9215 11.6713 26.2681 11.8303 27.6464C12.0818 30.1717 12.5573 32.6697 13.2511 35.1107H13.4101C13.4738 34.1724 13.654 32.2056 13.6858 32.0413C14.2159 29.5973 16.6016 25.1495 19.3848 24.8685C19.8477 24.8311 20.3134 24.8917 20.7514 25.0462C21.1894 25.2006 21.59 25.4456 21.927 25.7652C22.2641 26.0848 22.5301 26.4717 22.7077 26.9009C22.8853 27.33 22.9706 27.7918 22.9579 28.2561C22.9579 30.2282 21.4046 32.089 19.9255 33.2235C18.2185 34.5329 13.5957 35.5826 13.4207 35.6197C14.1759 38.027 15.0879 40.3823 16.1509 42.6705C16.9302 44.3669 17.7838 46.058 18.6585 47.7439C18.6903 47.0812 18.9235 44.4995 18.9607 44.3139C19.4908 41.87 21.8764 37.4221 24.6596 37.1359C25.1224 37.0993 25.5877 37.1604 26.0253 37.3152C26.463 37.47 26.8632 37.7151 27.2001 38.0344C27.537 38.3538 27.803 38.7404 27.9809 39.1692C28.1588 39.598 28.2446 40.0594 28.2327 40.5234C28.2327 42.5008 26.6741 44.3563 25.1951 45.4908C23.5304 46.7684 19.1091 47.7969 18.7327 47.8817C19.1303 48.6451 19.5279 49.4138 19.9308 50.1772C21.2508 52.6741 22.5815 55.1658 23.8326 57.668C24.262 58.5374 24.6543 59.4069 25.0519 60.2763C25.1208 59.2849 25.2905 57.4931 25.317 57.3393C25.8471 54.8954 28.238 50.4476 31.0159 50.1613C31.4789 50.1239 31.9445 50.1844 32.3826 50.3389C32.8206 50.4934 33.2212 50.7384 33.5582 51.058C33.8953 51.3775 34.1613 51.7645 34.3389 52.1936C34.5165 52.6228 34.6017 53.0846 34.5891 53.5489C34.5891 55.5263 33.0358 57.3817 31.5567 58.5162C30.0776 59.6507 26.3667 60.5997 25.3223 60.8541C25.9744 62.3173 26.5999 63.7487 27.1301 65.2119C27.3474 65.848 27.6072 66.4789 27.7821 67.0991L28.3441 68.9493C28.678 70.2269 28.9961 71.4091 29.2824 72.6072C29.4308 73.2116 29.5528 73.7841 29.6906 74.3673C29.6111 73.36 29.5157 71.7537 29.521 71.6053C29.6535 69.1136 31.3658 64.3689 34.0695 63.6533C34.5217 63.5462 34.9913 63.5356 35.4478 63.6221C35.9043 63.7086 36.3375 63.8903 36.7191 64.1554C37.1007 64.4204 37.4221 64.7629 37.6626 65.1605C37.903 65.5581 38.057 66.0019 38.1145 66.463C38.1518 66.705 38.1678 66.9498 38.1622 67.1946C39.2508 69.1011 39.833 71.2548 39.8533 73.4502C39.8533 73.6092 39.5935 75.4912 39.4398 76.4507C39.742 75.7085 40.0389 74.9716 40.3357 74.1976C40.7757 73.0791 41.1998 71.8863 41.624 70.7306L42.2177 68.891C42.4298 68.2707 42.557 67.6558 42.7478 67.0249C42.9917 66.1025 43.1932 65.1323 43.3946 64.1728C42.2336 63.7911 38.8354 62.6248 37.4889 61.4214C36.1424 60.218 34.6739 58.2088 34.8382 56.242C34.861 55.7782 34.981 55.3243 35.1904 54.9099C35.3998 54.4955 35.694 54.1297 36.0539 53.8363C36.4138 53.5428 36.8314 53.3283 37.2795 53.2067C37.7276 53.085 38.1963 53.0589 38.6552 53.1301C41.4066 53.6602 43.4847 58.2353 43.8028 60.711C43.8028 60.7905 43.8293 61.3207 43.8399 61.9515C44.0096 61.0079 44.1845 60.0589 44.3223 59.0941C44.7253 56.3586 45.0433 53.5542 45.3826 50.7497C45.4515 50.1613 45.5311 49.5782 45.6 48.995C44.6192 48.6822 40.9295 47.4523 39.5193 46.1906C38.1092 44.9289 36.7043 42.978 36.8686 41.0112C36.8898 40.5468 37.0087 40.0921 37.2176 39.6768C37.4265 39.2616 37.7207 38.8951 38.081 38.6014C38.4413 38.3076 38.8595 38.0933 39.3084 37.9723C39.7572 37.8513 40.2265 37.8264 40.6856 37.8993C43.437 38.4294 45.5098 43.0045 45.8332 45.4802C45.8332 45.565 45.8332 46.2012 45.8703 46.9116C46.0718 45.3848 46.2945 43.8739 46.5648 42.3736C47.0047 39.7938 47.6193 37.2468 48.4044 34.7503C48.0545 34.6442 43.7021 33.2871 42.1329 31.8875C40.7386 30.6417 39.3126 28.6749 39.4822 26.7081C39.5033 26.2437 39.6222 25.789 39.8311 25.3738C40.0401 24.9585 40.3343 24.592 40.6946 24.2983C41.0549 24.0046 41.4731 23.7902 41.9219 23.6692C42.3708 23.5482 42.8401 23.5233 43.2992 23.5962C46.0453 24.1263 48.1234 28.7014 48.4468 31.1771C48.4468 31.3521 48.5051 33.6423 48.4892 34.464C48.4892 34.4322 48.4892 34.4004 48.5157 34.3739C49.344 31.9487 50.3854 29.6017 51.6276 27.3602C52.7306 25.348 53.9484 23.401 55.2749 21.5287C56.489 19.7845 57.703 18.2683 58.795 16.9324C59.3888 16.2114 59.9454 15.5646 60.4703 14.9656H60.412C60.3589 14.9656 61.3821 11.7212 61.4722 11.525C62.4901 9.24543 65.7928 5.43376 68.5707 5.73063C69.0334 5.79369 69.4775 5.95397 69.8738 6.20095C70.2701 6.44793 70.6096 6.776 70.87 7.1636C71.1304 7.55119 71.3057 7.98952 71.3846 8.44976C71.4635 8.90999 71.444 9.38171 71.3275 9.83388ZM39.2596 76.9491C38.7824 76.7211 35.1192 74.908 33.6878 73.3547C32.4489 74.0295 31.1708 74.6297 29.8603 75.1519C30.1836 76.5939 30.4911 77.9987 30.7509 79.3188C31.5779 83.4962 32.1133 87.0057 32.4526 89.4709C32.5215 90.001 32.5851 90.4622 32.6382 90.8916H32.8237L33.4387 89.6988C34.5466 87.5093 36.0893 84.3497 37.7752 80.4798C38.2629 79.3665 38.7612 78.179 39.2596 76.9491ZM53.9125 23.5644C53.9549 23.5644 54.8031 20.3041 54.8349 20.0867C55.1795 17.6163 54.3896 12.633 51.8715 11.4137C51.4472 11.2235 50.9877 11.1247 50.5227 11.1238C50.0578 11.1229 49.5978 11.2199 49.1728 11.4084C48.7478 11.5969 48.3672 11.8727 48.0558 12.218C47.7444 12.5632 47.5091 12.9702 47.3653 13.4123C46.6921 15.2678 47.5509 17.5421 48.5634 19.106C49.7509 20.9667 53.9072 23.5644 53.9125 23.5644Z" fill="white"/>
<path d="M203.989 42.3102C203.989 42.3102 198.804 46.2756 198.088 49.3292C197.372 52.3828 198.295 55.6325 198.905 57.5675C199.514 59.5025 199.615 68.8594 193.921 73.0263C188.228 77.1931 185.683 81.3653 186.293 86.5553C186.902 91.7453 194.632 97.439 201.041 98.7484C207.45 100.058 216.5 97.1209 220.057 89.4923C223.614 81.8636 218.838 73.4504 216.192 68.6791C213.547 63.9079 213.754 59.423 216.722 59.2215C219.691 59.0201 221.197 59.7517 221.303 55.5583C221.409 51.3649 220.386 44.8814 214.994 41.6263C209.603 38.3713 203.989 42.3102 203.989 42.3102Z" fill="#2E353A" stroke="#2E353A" stroke-width="0.0576912" stroke-linecap="round" stroke-linejoin="round"/>
<path d="M191.223 93.4678C191.753 93.823 196.524 95.7686 200.055 90.287C203.586 84.8054 198.777 79.7532 199.705 74.9131" stroke="white" stroke-width="0.0288456" stroke-miterlimit="10"/>
<path d="M209.788 48.6184C209.788 48.6184 208.134 43.2746 211.718 45.0081C215.561 46.8636 218.61 55.6109 217.284 57.5989" stroke="white" stroke-width="0.0288456" stroke-miterlimit="10"/>
<path d="M208.802 47.9244C208.802 47.9244 206.814 44.0809 208.14 42.3579C209.465 40.635 212.513 42.623 214.104 43.8158" stroke="white" stroke-width="0.0288456" stroke-miterlimit="10"/>
<path d="M213.308 58.3945C213.308 58.3945 213.839 60.7801 212.248 65.5514C210.658 70.3226 207.742 75.7565 210.658 80.7928C213.573 85.829 215.827 89.2749 212.513 94.3112" stroke="white" stroke-width="0.0288456" stroke-miterlimit="10"/>
<path d="M213.308 61.1777C213.424 64.2851 213.201 67.3957 212.646 70.4551C211.718 75.7565 214.634 79.2023 217.682 82.5157C220.73 85.829 219.935 88.6123 218.875 91.6605" stroke="white" stroke-width="0.0288456" stroke-miterlimit="10"/>
<path d="M208.67 48.719C208.67 48.719 202.44 49.2492 200.585 48.454C198.729 47.6588 199.127 46.9961 199.127 46.9961" stroke="white" stroke-width="0.0288456" stroke-miterlimit="10"/>
<path d="M209.497 69.8926C209.497 69.8926 210.308 78.1309 211.347 82.8968C212.386 87.6627 214.04 93.6798 213.626 95.3391C213.213 96.9984 204.084 111.095 204.084 111.095L201.391 109.229L206.989 92.4339L202.276 76.6889C202.276 76.6889 206.592 70.3644 209.497 69.8926Z" fill="white" stroke="#2E353A" stroke-width="0.0576912" stroke-linecap="round" stroke-linejoin="round"/>
<path d="M208.77 68.5518C207.445 67.025 204.598 63.0596 204.598 63.0596L200.124 57.7583L193.921 49.2178C193.105 48.0992 190.359 48.5021 182.428 48.6081C174.497 48.7142 150.424 44.1338 150.424 44.1338L149.613 49.4351C149.613 49.4351 171.645 54.2064 177.238 54.7365C182.831 55.2666 188.021 55.9558 188.021 55.9558C187.257 57.4776 186.577 59.0404 185.985 60.6369C185.375 62.4659 178.256 72.231 178.256 72.231C178.256 72.231 178.081 72.337 177.779 72.5385C177.699 74.3091 177.869 78.0678 180.514 80.0505C182.56 81.5826 185.556 82.2293 187.719 82.4997C187.756 82.3778 187.788 82.2717 187.814 82.1975C188.122 81.3811 190.359 80.1618 191.578 80.077C192.797 79.9922 196.561 80.1777 198.804 79.9762C201.046 79.7748 202.26 76.7212 202.26 76.7212C202.26 76.7212 207.201 71.897 209.475 69.9249C209.334 69.4247 209.095 68.9578 208.77 68.5518Z" fill="white" stroke="#2E353A" stroke-width="0.0576912" stroke-linecap="round" stroke-linejoin="round"/>
<path d="M190.836 57.1853L188.021 55.9395L190.067 59.1945" stroke="#2E353A" stroke-width="0.0432684" stroke-linecap="round" stroke-linejoin="round"/>
<path d="M183.737 75.709C185.856 77.0234 188.363 77.5682 190.836 77.2517" stroke="#2E353A" stroke-width="0.0432684" stroke-linecap="round" stroke-linejoin="round"/>
<path d="M181.4 72.0029C181.4 72.0029 181.861 73.8584 184.798 75.0936" stroke="#2E353A" stroke-width="0.0432684" stroke-linecap="round" stroke-linejoin="round"/>
<path d="M206.973 92.4346C206.973 92.4346 208.898 91.6076 210.44 93.7705" stroke="#2E353A" stroke-width="0.0432684" stroke-linecap="round" stroke-linejoin="round"/>
<path d="M207.509 78.0254L202.26 76.6895L206.888 80.3421" stroke="#2E353A" stroke-width="0.0432684" stroke-linecap="round" stroke-linejoin="round"/>
<path d="M193.153 51.1844C193.153 51.1844 190.528 55.8125 187.443 55.6588C183.25 55.4467 171.385 51.9478 171.385 50.7179C171.385 49.488 174.63 49.0215 174.63 49.0215" stroke="#2E353A" stroke-width="0.0432684" stroke-linecap="round" stroke-linejoin="round"/>
<path d="M202.26 55.0222C202.26 55.0222 200.14 54.4921 198.597 55.4304C197.054 56.3688 193.004 65.1955 193.004 65.1955C193.004 65.1955 193.306 65.6038 194.531 65.6038C195.756 65.6038 196.058 67.2313 196.058 68.7528C196.058 70.2742 195.952 70.9899 196.461 70.8733C196.97 70.7567 200.023 69.654 200.633 70.0622C201.242 70.4704 199.816 72.5008 200.103 72.7129C200.389 72.9249 202.949 70.3697 203.766 67.6236C204.582 64.8775 205.393 60.8113 205.187 59.1838C204.98 57.5563 203.665 55.4252 202.26 55.0222Z" fill="#92E3A9" stroke="#2E353A" stroke-width="0.0576912" stroke-linecap="round" stroke-linejoin="round"/>
<path d="M203.989 63.4678C202.869 64.7174 201.681 65.9049 200.431 67.025C198.088 69.1456 196.159 70.6883 196.259 69.6757C196.36 68.6631 198.698 63.1656 199.308 60.1333C199.917 57.1009 201.041 55.0439 202.26 55.0439C203.48 55.0439 206.125 61.2571 203.989 63.4678Z" fill="white" stroke="#2E353A" stroke-width="0.0576912" stroke-linecap="round" stroke-linejoin="round"/>
<path d="M202.769 50.3464C202.851 50.594 202.983 50.8217 203.159 51.0145C203.334 51.2072 203.548 51.3607 203.787 51.465C204.498 51.6664 209.788 48.6182 209.788 48.6182C209.788 48.6182 213.552 56.6497 212.937 57.869C212.322 59.0883 210.499 60.6204 208.463 62.0412C206.427 63.462 202.669 64.5858 201.243 63.7694C199.816 62.953 200.834 54.6193 200.834 54.6193C200.834 54.6193 199.716 53.294 200.935 51.1575C202.154 49.0211 202.769 50.3464 202.769 50.3464Z" fill="white" stroke="#2E353A" stroke-width="0.0576912" stroke-linecap="round" stroke-linejoin="round"/>
<path d="M211.288 58.6436C211.288 58.6436 211.379 58.0127 210.202 58.0127C209.025 58.0127 206.957 60.1756 206.957 60.1756" stroke="#2E353A" stroke-width="0.0432684" stroke-linecap="round" stroke-linejoin="round"/>
<path d="M206.146 60.3555L205.515 59.7246" stroke="#2E353A" stroke-width="0.0432684" stroke-linecap="round" stroke-linejoin="round"/>
<path d="M205.256 61.5331C205.256 61.5331 203.633 61.2627 203.363 59.1846" stroke="#2E353A" stroke-width="0.0432684" stroke-linecap="round" stroke-linejoin="round"/>
<path d="M209.009 55.3669C209.009 55.3669 208.606 53.3895 206.888 53.0078" stroke="#2E353A" stroke-width="0.0432684" stroke-linecap="round" stroke-linejoin="round"/>
<path d="M206.968 56.4276C206.555 56.751 206.099 56.857 205.945 56.6608C205.791 56.4647 205.998 56.0459 206.406 55.7225C206.814 55.3991 207.276 55.2931 207.429 55.4892C207.583 55.6854 207.376 56.1042 206.968 56.4276Z" fill="#2E353A"/>
<path d="M209.523 59.767C209.184 60.0321 208.808 60.1222 208.68 59.9579C208.553 59.7935 208.723 59.4277 209.062 59.1786C209.401 58.9294 209.778 58.8287 209.905 58.9877C210.032 59.1468 209.863 59.4966 209.523 59.767Z" fill="#2E353A"/>
<path d="M199.626 146.328L204.826 153.554C204.826 153.554 204.826 154.879 202.971 154.879C201.115 154.879 200.055 154.879 198.995 153.554C197.934 152.228 197.934 151.433 196.874 150.903C195.814 150.373 194.754 150.373 195.284 147.457C195.814 144.541 199.626 146.328 199.626 146.328Z" fill="white" stroke="#2E353A" stroke-width="0.0576912" stroke-linecap="round" stroke-linejoin="round"/>
<path d="M204.805 153.718C203.981 154.114 203.057 154.251 202.154 154.111C200.277 153.771 199.138 151.895 198.443 151.089C197.749 150.283 196.901 150.288 196.1 149.615C195.719 149.29 195.387 148.911 195.114 148.491C195.003 150.378 195.92 150.442 196.832 150.903C197.892 151.433 197.892 152.229 198.952 153.554C200.012 154.879 201.073 154.879 202.928 154.879C204.418 154.879 204.725 154.074 204.805 153.718Z" fill="white" stroke="#2E353A" stroke-width="0.0576912" stroke-linecap="round" stroke-linejoin="round"/>
<path d="M199.329 145.411C198.268 142.23 196.758 123.188 195.973 117.16C194.383 104.903 187.311 88.9938 187.311 88.9938L187.719 82.4837C185.556 82.2133 182.561 81.5666 180.514 80.0345C177.864 78.0518 177.699 74.2931 177.779 72.5225C176.437 73.3866 172.477 75.9895 169.1 78.725C164.933 82.0808 162.081 93.9824 161.27 97.741C160.459 101.5 159.542 112.585 159.542 112.585C159.542 112.585 152.216 115.432 149.268 119.477C146.32 123.522 137.366 132.698 137.366 132.698L138.183 135.752C138.183 135.752 140.929 133.822 143.267 131.988C145.605 130.154 163.815 119.986 165.034 119.265C166.254 118.544 167.685 117.144 169.307 113.062C169.901 111.572 170.738 109.134 171.566 106.637L174.391 97.8364L177.111 95.5197C179.793 102.772 186.028 116.752 186.913 118.75C187.973 121.147 188.779 131.802 191.711 138.466C194.642 145.13 195.422 148.327 195.422 148.327C195.422 148.327 200.394 148.608 199.329 145.411Z" fill="#2E353A" stroke="#2E353A" stroke-width="0.0576912" stroke-linecap="round" stroke-linejoin="round"/>
<path d="M187.544 83.7402L188.556 89.6512" stroke="white" stroke-width="0.0288456" stroke-miterlimit="10"/>
<path d="M44.1899 38.085L28.8795 168.127C28.8588 168.315 28.891 168.504 28.9725 168.674C29.0539 168.844 29.1814 168.987 29.3405 169.088C29.4995 169.189 29.6837 169.244 29.8721 169.245C30.0605 169.247 30.2456 169.196 30.4063 169.097L40.2456 163.043C40.8296 162.681 41.5314 162.56 42.2029 162.706C42.8744 162.851 43.4633 163.251 43.8453 163.823L56.208 182.202L61.3662 104.887L44.1899 38.085Z" fill="#92E3A9" stroke="#2E353A" stroke-width="0.0576912" stroke-linecap="round" stroke-linejoin="round"/>
<path d="M44.0944 41.3556L30.2579 164.877C30.228 165.144 30.2765 165.413 30.3976 165.653C30.5187 165.892 30.707 166.091 30.9394 166.225C31.1719 166.359 31.4384 166.422 31.7062 166.407C31.9741 166.392 32.2316 166.298 32.4473 166.139L39.6413 160.838C40.0154 160.561 40.4421 160.363 40.8951 160.257C41.3482 160.151 41.8182 160.139 42.2763 160.221C42.7344 160.303 43.1709 160.477 43.5592 160.734C43.9475 160.99 44.2793 161.323 44.5344 161.712L52.953 174.563C53.0442 174.706 53.1806 174.814 53.3404 174.87C53.5003 174.926 53.6743 174.927 53.8348 174.873C53.9953 174.818 54.133 174.712 54.2258 174.57C54.3187 174.428 54.3614 174.26 54.3472 174.091L44.5185 41.3609C44.5083 41.3126 44.4819 41.2692 44.4438 41.2378C44.4056 41.2065 44.3579 41.1891 44.3086 41.1885C44.2592 41.1879 44.2111 41.2041 44.1722 41.2344C44.1332 41.2648 44.1058 41.3075 44.0944 41.3556Z" fill="#92E3A9" stroke="#2E353A" stroke-width="0.0576912" stroke-linecap="round" stroke-linejoin="round"/>
<path opacity="0.6" d="M44.2852 39.5638L30.2472 164.867C30.2173 165.133 30.2658 165.403 30.3869 165.642C30.508 165.882 30.6963 166.081 30.9287 166.214C31.1612 166.348 31.4277 166.412 31.6955 166.396C31.9634 166.381 32.2209 166.288 32.4366 166.128L39.6306 160.827C40.0047 160.55 40.4314 160.353 40.8845 160.247C41.3376 160.141 41.8075 160.128 42.2656 160.21C42.7237 160.292 43.1602 160.467 43.5485 160.723C43.9368 160.98 44.2686 161.313 44.5237 161.702L52.9423 174.552C53.0335 174.695 53.1699 174.803 53.3297 174.859C53.4896 174.915 53.6636 174.916 53.8241 174.862C53.9846 174.808 54.1223 174.701 54.2152 174.56C54.308 174.418 54.3508 174.249 54.3365 174.08L44.3859 39.5638C44.3824 39.5532 44.3757 39.544 44.3666 39.5374C44.3576 39.5309 44.3467 39.5273 44.3355 39.5273C44.3244 39.5273 44.3135 39.5309 44.3044 39.5374C44.2954 39.544 44.2887 39.5532 44.2852 39.5638Z" fill="black"/>
<path d="M41.7247 160.148C42.2816 160.158 42.8277 160.303 43.3156 160.572C43.8034 160.841 44.2182 161.225 44.5238 161.691L52.9423 174.541C53.0336 174.684 53.17 174.792 53.3298 174.848C53.4897 174.905 53.6637 174.906 53.8242 174.851C53.9847 174.797 54.1223 174.69 54.2152 174.549C54.3081 174.407 54.3508 174.238 54.3366 174.07L53.1332 157.826L41.5444 160.095C41.606 160.107 41.6664 160.125 41.7247 160.148Z" fill="#92E3A9" stroke="#2E353A" stroke-width="0.0576912" stroke-linecap="round" stroke-linejoin="round"/>
<path opacity="0.3" d="M41.7247 160.148C42.2816 160.158 42.8277 160.303 43.3156 160.572C43.8034 160.841 44.2182 161.225 44.5238 161.691L52.9423 174.541C53.0336 174.684 53.17 174.792 53.3298 174.848C53.4897 174.905 53.6637 174.906 53.8242 174.851C53.9847 174.797 54.1223 174.69 54.2152 174.549C54.3081 174.407 54.3508 174.238 54.3366 174.07L53.1332 157.826L41.5444 160.095C41.606 160.107 41.6664 160.125 41.7247 160.148Z" fill="black"/>
<path d="M44.5026 38.0049L56.2027 182.202L192.633 156.204L160.57 43.7463L44.5026 38.0049Z" fill="#2E353A" stroke="#2E353A" stroke-width="0.0576912" stroke-linecap="round" stroke-linejoin="round"/>
<path d="M50.8271 41.1172L58.864 174.579L187.157 151.253L160.115 47.5636L50.8271 41.1172Z" fill="#92E3A9" stroke="#2E353A" stroke-width="0.0576912" stroke-linecap="round" stroke-linejoin="round"/>
<path d="M58.6677 106.796L64.7695 170.057L181.336 148.862L170.505 101.314L58.6677 106.796Z" fill="white" stroke="#2E353A" stroke-width="0.0576912" stroke-linecap="round" stroke-linejoin="round"/>
<path d="M81.1667 166.908L79.2317 146.588" stroke="#2E353A" stroke-width="0.0576912" stroke-linecap="round" stroke-linejoin="round"/>
<path d="M99.0057 163.764L97.1396 146.826" stroke="#2E353A" stroke-width="0.0576912" stroke-linecap="round" stroke-linejoin="round"/>
<path d="M116.495 160.376L114.316 146.826" stroke="#2E353A" stroke-width="0.0576912" stroke-linecap="round" stroke-linejoin="round"/>
<path d="M134.514 157.285L131.922 141.132" stroke="#2E353A" stroke-width="0.0576912" stroke-linecap="round" stroke-linejoin="round"/>
<path d="M150.387 154.423L148.176 138.657" stroke="#2E353A" stroke-width="0.0576912" stroke-linecap="round" stroke-linejoin="round"/>
<path d="M165.607 151.608L162.315 132.65" stroke="#2E353A" stroke-width="0.0576912" stroke-linecap="round" stroke-linejoin="round"/>
<path d="M201.375 109.229C201.375 109.229 199.753 110.861 199.647 111.71C199.541 112.558 200.389 115.113 200.389 115.113L202.944 115.537L204.068 111.095L201.375 109.229Z" fill="white" stroke="#2E353A" stroke-width="0.0576912" stroke-linecap="round" stroke-linejoin="round"/>
<g opacity="0.49" style="mix-blend-mode:multiply">
<path d="M51.4738 77.9883C51.4738 77.9883 54.1669 116.746 56.6426 130.88C59.1184 145.013 63.7093 166.166 63.7093 166.166C63.7093 166.166 143.23 153.856 182.46 137.242L179.279 122.048L51.4738 77.9883Z" fill="#92E3A9"/>
</g>
<path d="M47.8794 39.665L159.563 45.6821C159.563 45.6821 170.436 78.2589 181.256 96.6546C192.076 115.05 209.921 113.852 209.921 113.852C209.921 113.852 168.994 136.229 137.117 148.141C103.941 160.531 75.1708 162.757 75.1708 162.757C75.1708 162.757 48.9662 126.962 47.8794 39.665Z" fill="#92E3A9" stroke="#2E353A" stroke-width="0.0576912" stroke-linecap="round" stroke-linejoin="round"/>
<path d="M60.6664 33.8652C58.5936 33.8652 57.0933 35.7048 56.6215 38.5887L58.742 38.7054C59.0707 37.0407 59.7228 35.9858 60.6611 35.9858C61.7532 35.9858 62.9672 37.7405 62.9672 40.264C62.9672 42.7874 61.7532 44.5475 60.6611 44.5475C60.3799 44.5475 60.1102 44.6592 59.9114 44.858C59.7125 45.0568 59.6008 45.3265 59.6008 45.6077C59.6008 45.8889 59.7125 46.1586 59.9114 46.3575C60.1102 46.5563 60.3799 46.668 60.6611 46.668C63.1421 46.668 65.0877 43.853 65.0877 40.264C65.0877 36.6749 63.1474 33.8652 60.6664 33.8652Z" fill="white" stroke="#2E353A" stroke-width="0.0576912" stroke-miterlimit="10"/>
<path d="M63.7093 41.9814C63.6078 42.3553 63.4766 42.7205 63.317 43.0735" stroke="#2E353A" stroke-width="0.0432684" stroke-linecap="round" stroke-linejoin="round"/>
<path d="M57.6711 37.6337C57.6711 37.6337 58.4663 34.7604 60.8148 34.9195C62.6597 35.0467 64.1812 37.7875 63.9267 40.7191" stroke="#2E353A" stroke-width="0.0432684" stroke-linecap="round" stroke-linejoin="round"/>
<path d="M79.0833 34.793C77.0104 34.793 75.5102 36.6325 75.0383 39.5165L77.1589 39.6331C77.4876 37.9685 78.1396 36.9135 79.078 36.9135C80.17 36.9135 81.3841 38.6683 81.3841 41.1917C81.3841 43.7151 80.17 45.4752 79.078 45.4752C78.7968 45.4752 78.5271 45.5869 78.3282 45.7857C78.1294 45.9846 78.0177 46.2543 78.0177 46.5355C78.0177 46.8167 78.1294 47.0864 78.3282 47.2852C78.5271 47.484 78.7968 47.5957 79.078 47.5957C81.559 47.5957 83.5046 44.7807 83.5046 41.1917C83.5046 37.6027 81.5696 34.793 79.0833 34.793Z" fill="white" stroke="#2E353A" stroke-width="0.0576912" stroke-miterlimit="10"/>
<path d="M82.1316 42.9092C82.03 43.2831 81.8988 43.6482 81.7393 44.0013" stroke="#2E353A" stroke-width="0.0432684" stroke-linecap="round" stroke-linejoin="round"/>
<path d="M76.0934 38.5625C76.0934 38.5625 76.8886 35.6891 79.2371 35.8482C81.082 35.9754 82.6035 38.7162 82.349 41.6478" stroke="#2E353A" stroke-width="0.0432684" stroke-linecap="round" stroke-linejoin="round"/>
<path d="M97.5108 35.7207C95.4379 35.7207 93.9376 37.5603 93.4658 40.4442L95.5864 40.5608C95.915 38.8962 96.5671 37.8412 97.5055 37.8412C98.5975 37.8412 99.8115 39.596 99.8115 42.1194C99.8115 44.6429 98.5975 46.4029 97.5055 46.4029C97.2243 46.4029 96.9546 46.5146 96.7557 46.7135C96.5569 46.9123 96.4452 47.182 96.4452 47.4632C96.4452 47.7444 96.5569 48.0141 96.7557 48.2129C96.9546 48.4118 97.2243 48.5235 97.5055 48.5235C99.9865 48.5235 101.932 45.7085 101.932 42.1194C101.932 38.5304 99.9918 35.7207 97.5108 35.7207Z" fill="white" stroke="#2E353A" stroke-width="0.0576912" stroke-miterlimit="10"/>
<path d="M100.554 43.8369C100.452 44.2108 100.321 44.576 100.161 44.929" stroke="#2E353A" stroke-width="0.0432684" stroke-linecap="round" stroke-linejoin="round"/>
<path d="M94.5156 39.4902C94.5156 39.4902 95.3108 36.6169 97.6593 36.7759C99.5042 36.9031 101.026 39.6439 100.771 42.5756" stroke="#2E353A" stroke-width="0.0432684" stroke-linecap="round" stroke-linejoin="round"/>
<path d="M115.933 36.6484C113.86 36.6484 112.36 38.488 111.888 41.3719L114.009 41.4886C114.337 39.824 114.989 38.769 115.928 38.769C117.02 38.769 118.234 40.5237 118.234 43.0472C118.234 45.5706 117.02 47.3307 115.928 47.3307C115.646 47.3307 115.377 47.4424 115.178 47.6412C114.979 47.8401 114.867 48.1097 114.867 48.3909C114.867 48.6721 114.979 48.9418 115.178 49.1407C115.377 49.3395 115.646 49.4512 115.928 49.4512C118.409 49.4512 120.354 46.6362 120.354 43.0472C120.354 39.4582 118.414 36.6484 115.933 36.6484Z" fill="white" stroke="#2E353A" stroke-width="0.0576912" stroke-miterlimit="10"/>
<path d="M118.976 44.7646C118.874 45.1385 118.743 45.5037 118.584 45.8567" stroke="#2E353A" stroke-width="0.0432684" stroke-linecap="round" stroke-linejoin="round"/>
<path d="M112.938 40.4179C112.938 40.4179 113.733 37.5446 116.082 37.7036C117.926 37.8309 119.448 40.5717 119.193 43.5033" stroke="#2E353A" stroke-width="0.0432684" stroke-linecap="round" stroke-linejoin="round"/>
<path d="M134.689 37.4697C132.616 37.4697 131.116 39.3093 130.65 42.1985L132.77 42.3152C133.104 40.6505 133.756 39.5903 134.689 39.5903C135.781 39.5903 137.001 41.3503 137.001 43.8738C137.001 46.3972 135.781 48.152 134.689 48.152C134.408 48.152 134.138 48.2637 133.939 48.4625C133.741 48.6613 133.629 48.931 133.629 49.2122C133.629 49.4934 133.741 49.7631 133.939 49.962C134.138 50.1608 134.408 50.2725 134.689 50.2725C137.176 50.2725 139.121 47.4628 139.121 43.8738C139.121 40.2847 137.176 37.4697 134.689 37.4697Z" fill="white" stroke="#2E353A" stroke-width="0.0576912" stroke-miterlimit="10"/>
<path d="M137.732 45.5918C137.631 45.9642 137.5 46.3277 137.34 46.6786" stroke="#2E353A" stroke-width="0.0432684" stroke-linecap="round" stroke-linejoin="round"/>
<path d="M131.694 41.2445C131.694 41.2445 132.494 38.3659 134.838 38.5249C136.688 38.6521 138.204 41.3983 137.955 44.3299" stroke="#2E353A" stroke-width="0.0432684" stroke-linecap="round" stroke-linejoin="round"/>
<path d="M152.709 38.4609C150.636 38.4609 149.135 40.3005 148.669 43.1844L150.789 43.3064C151.123 41.6418 151.776 40.5815 152.709 40.5815C153.801 40.5815 155.02 42.3415 155.02 44.8597C155.02 47.3778 153.801 49.1432 152.709 49.1432C152.427 49.1432 152.158 49.2549 151.959 49.4537C151.76 49.6526 151.648 49.9222 151.648 50.2034C151.648 50.4846 151.76 50.7543 151.959 50.9532C152.158 51.152 152.427 51.2637 152.709 51.2637C155.195 51.2637 157.141 48.4487 157.141 44.8597C157.141 41.2707 155.195 38.4609 152.709 38.4609Z" fill="white" stroke="#2E353A" stroke-width="0.0576912" stroke-miterlimit="10"/>
<path d="M155.751 46.5508C155.652 46.9252 155.52 47.2905 155.359 47.6429" stroke="#2E353A" stroke-width="0.0432684" stroke-linecap="round" stroke-linejoin="round"/>
<path d="M149.713 42.2094C149.713 42.2094 150.514 39.3307 152.857 39.4898C154.707 39.617 156.223 42.3578 155.974 45.2894" stroke="#2E353A" stroke-width="0.0432684" stroke-linecap="round" stroke-linejoin="round"/>
<path d="M204.068 111.089C204.068 111.089 205.128 112.542 205.128 113.162C205.128 113.782 203.676 114.821 203.676 116.269C203.676 117.716 201.81 117.329 201.603 116.269C201.396 115.208 202.017 113.782 202.017 113.782C202.017 113.782 201.152 113.252 200.956 111.386C200.76 109.52 202.441 110.05 202.441 110.05L204.068 111.089Z" fill="white" stroke="#2E353A" stroke-width="0.0576912" stroke-linecap="round" stroke-linejoin="round"/>
<path d="M177.561 96.7387C169.88 83.6762 161.811 63.0486 158.943 55.457L59.1343 51.4121C59.0707 125.18 81.4 155.658 81.4 155.658C81.4 155.658 106.82 153.691 136.136 142.739C164.308 132.215 197.908 114.551 197.908 114.551C197.908 114.551 187.12 112.998 177.561 96.7387Z" fill="white" stroke="#2E353A" stroke-width="0.0576912" stroke-linecap="round" stroke-linejoin="round"/>
<path d="M158.943 55.457L59.1343 51.4121C59.1343 58.6697 59.341 65.4978 59.7227 71.9284L165.124 70.9423C162.394 64.4375 160.194 58.7386 158.943 55.457Z" fill="#2E353A" stroke="#2E353A" stroke-width="0.0576912" stroke-linecap="round" stroke-linejoin="round"/>
<path d="M160.708 77.4475L165.426 77.2832" stroke="#2E353A" stroke-width="0.173074" stroke-linecap="round" stroke-linejoin="round"/>
<path d="M146.84 77.9187L157.172 77.5635" stroke="#2E353A" stroke-width="0.173074" stroke-linecap="round" stroke-linejoin="round"/>
<path d="M130.051 78.4868L143.331 78.0361" stroke="#2E353A" stroke-width="0.173074" stroke-linecap="round" stroke-linejoin="round"/>
<path d="M112.97 79.064L127.119 78.5869" stroke="#2E353A" stroke-width="0.173074" stroke-linecap="round" stroke-linejoin="round"/>
<path d="M96.4559 79.6265L109.428 79.1865" stroke="#2E353A" stroke-width="0.173074" stroke-linecap="round" stroke-linejoin="round"/>
<path d="M79.0568 80.2197L92.0398 79.7744" stroke="#2E353A" stroke-width="0.173074" stroke-linecap="round" stroke-linejoin="round"/>
<path d="M63.7412 80.7397L75.823 80.3262" stroke="#2E353A" stroke-width="0.173074" stroke-linecap="round" stroke-linejoin="round"/>
<path d="M61.7745 92.1112L171.581 85.4209" stroke="#2E353A" stroke-width="0.0576912" stroke-linecap="round" stroke-linejoin="round"/>
<path d="M79.1257 91.167C79.1257 91.167 80.9282 120.367 100.177 152.779" stroke="#2E353A" stroke-width="0.0576912" stroke-linecap="round" stroke-linejoin="round"/>
<path d="M96.843 89.9961C96.843 89.9961 98.8734 123.395 119.978 147.85" stroke="#2E353A" stroke-width="0.0576912" stroke-linecap="round" stroke-linejoin="round"/>
<path d="M112.885 89.0098C112.885 89.0098 113.945 119.758 137.669 141.854" stroke="#2E353A" stroke-width="0.0576912" stroke-linecap="round" stroke-linejoin="round"/>
<path d="M129.515 88.2939C129.515 88.2939 132.134 122.477 155.094 134.516" stroke="#2E353A" stroke-width="0.0576912" stroke-linecap="round" stroke-linejoin="round"/>
<path d="M146.941 86.9209C146.941 86.9209 148.786 112.776 172.271 126.936" stroke="#2E353A" stroke-width="0.0576912" stroke-linecap="round" stroke-linejoin="round"/>
<path d="M160.661 86.083C160.661 86.083 166.98 112.59 184.66 121.173" stroke="#2E353A" stroke-width="0.0576912" stroke-linecap="round" stroke-linejoin="round"/>
<path d="M64.1813 107.172L176.337 94.8359" stroke="#2E353A" stroke-width="0.0576912" stroke-linecap="round" stroke-linejoin="round"/>
<path d="M67.1075 120.367C67.1075 120.367 91.0537 119.429 181.553 102.751" stroke="#2E353A" stroke-width="0.0576912" stroke-linecap="round" stroke-linejoin="round"/>
<path d="M71.3328 134.336C71.3328 134.336 94.6587 136.987 186.044 107.888" stroke="#2E353A" stroke-width="0.0576912" stroke-linecap="round" stroke-linejoin="round"/>
<path d="M76.3795 146.524C76.3795 146.524 95.8249 152.965 191.345 112.065" stroke="#2E353A" stroke-width="0.0576912" stroke-linecap="round" stroke-linejoin="round"/>
<path d="M102.245 65.8428L66.2912 65.3604C65.9999 65.356 65.7201 65.2461 65.5037 65.0512C65.2873 64.8562 65.1489 64.5893 65.1143 64.3001L64.8068 61.3949C64.7888 61.2278 64.8065 61.0586 64.8587 60.8988C64.9109 60.739 64.9965 60.592 65.1098 60.4677C65.223 60.3434 65.3614 60.2446 65.5157 60.1778C65.6701 60.111 65.8368 60.0777 66.0049 60.0802L101.524 60.6952C101.787 60.6998 102.04 60.7905 102.246 60.9533C102.452 61.1161 102.599 61.3421 102.664 61.5964L103.385 64.3584C103.43 64.5331 103.435 64.7157 103.399 64.8925C103.363 65.0692 103.287 65.2355 103.177 65.3785C103.067 65.5216 102.926 65.6378 102.765 65.7182C102.603 65.7987 102.425 65.8413 102.245 65.8428Z" fill="white"/>
</svg>
