<svg width="36" height="36" viewBox="0 0 36 36" fill="none" xmlns="http://www.w3.org/2000/svg">
<path d="M21 24.24L15.06 18.3" stroke="#2E7D32" stroke-width="2.25" stroke-miterlimit="10" stroke-linecap="round" stroke-linejoin="round"/>
<path d="M20.94 18.36L15 24.3" stroke="#2E7D32" stroke-width="2.25" stroke-miterlimit="10" stroke-linecap="round" stroke-linejoin="round"/>
<path d="M15 9H21C24 9 24 7.5 24 6C24 3 22.5 3 21 3H15C13.5 3 12 3 12 6C12 9 13.5 9 15 9Z" stroke="#2E7D32" stroke-width="2.25" stroke-miterlimit="10" stroke-linecap="round" stroke-linejoin="round"/>
<path d="M24 6.03003C28.995 6.30003 31.5 8.14503 31.5 15V24C31.5 30 30 33 22.5 33H13.5C6 33 4.5 30 4.5 24V15C4.5 8.16003 7.005 6.30003 12 6.03003" stroke="#2E7D32" stroke-width="2.25" stroke-miterlimit="10" stroke-linecap="round" stroke-linejoin="round"/>
</svg>
