<svg width="28" height="28" viewBox="0 0 28 28" fill="none" xmlns="http://www.w3.org/2000/svg">
<path d="M18.1767 13.9999C18.1767 16.3099 16.31 18.1766 14 18.1766C11.69 18.1766 9.82336 16.3099 9.82336 13.9999C9.82336 11.6899 11.69 9.82324 14 9.82324C16.31 9.82324 18.1767 11.6899 18.1767 13.9999Z" stroke="#2E7D32" stroke-width="1.75" stroke-linecap="round" stroke-linejoin="round"/>
<path d="M14 23.6484C18.1183 23.6484 21.9567 21.2218 24.6283 17.0218C25.6783 15.3768 25.6783 12.6118 24.6283 10.9668C21.9567 6.76675 18.1183 4.34009 14 4.34009C9.88167 4.34009 6.04333 6.76675 3.37167 10.9668C2.32167 12.6118 2.32167 15.3768 3.37167 17.0218C6.04333 21.2218 9.88167 23.6484 14 23.6484Z" stroke="#2E7D32" stroke-width="1.75" stroke-linecap="round" stroke-linejoin="round"/>
</svg>
