<svg width="28" height="28" viewBox="0 0 28 28" fill="none" xmlns="http://www.w3.org/2000/svg">
<path d="M12.2384 2.60157L6.41672 4.78323C5.07506 5.2849 3.97839 6.87155 3.97839 8.30655V16.9749C3.97839 18.3515 4.88841 20.1599 5.99674 20.9882L11.0134 24.7332C12.6584 25.9699 15.365 25.9699 17.01 24.7332L22.0267 20.9882C23.1351 20.1599 24.045 18.3515 24.045 16.9749V8.30655C24.045 6.87155 22.9484 5.2849 21.6067 4.78323L15.7851 2.60157C14.7934 2.23991 13.2067 2.23991 12.2384 2.60157Z" stroke="#2E7D32" stroke-width="1.75" stroke-linecap="round" stroke-linejoin="round"/>
<path d="M14.0001 12.74C13.9534 12.74 13.895 12.74 13.8484 12.74C12.7517 12.705 11.8767 11.795 11.8767 10.6866C11.8767 9.55498 12.7984 8.6333 13.9301 8.6333C15.0617 8.6333 15.9834 9.55498 15.9834 10.6866C15.9717 11.8066 15.0967 12.705 14.0001 12.74Z" stroke="#2E7D32" stroke-width="1.75" stroke-linecap="round" stroke-linejoin="round"/>
<path d="M11.6784 16.0067C10.5584 16.7533 10.5584 17.9783 11.6784 18.725C12.95 19.5767 15.0384 19.5767 16.31 18.725C17.43 17.9783 17.43 16.7533 16.31 16.0067C15.05 15.155 12.9617 15.155 11.6784 16.0067Z" stroke="#2E7D32" stroke-width="1.75" stroke-linecap="round" stroke-linejoin="round"/>
</svg>
