<svg width="36" height="36" viewBox="0 0 36 36" fill="none" xmlns="http://www.w3.org/2000/svg">
<path d="M18 18C22.1421 18 25.5 14.6421 25.5 10.5C25.5 6.35786 22.1421 3 18 3C13.8579 3 10.5 6.35786 10.5 10.5C10.5 14.6421 13.8579 18 18 18Z" stroke="#2E7D32" stroke-width="2.25" stroke-linecap="round" stroke-linejoin="round"/>
<path d="M5.11499 33C5.11499 27.195 10.89 22.5 18 22.5C19.44 22.5 20.835 22.695 22.14 23.055" stroke="#2E7D32" stroke-width="2.25" stroke-linecap="round" stroke-linejoin="round"/>
<path d="M33 27C33 27.48 32.94 27.945 32.82 28.395C32.685 28.995 32.445 29.58 32.13 30.09C31.095 31.83 29.19 33 27 33C25.455 33 24.06 32.415 23.01 31.455C22.56 31.065 22.17 30.6 21.87 30.09C21.315 29.19 21 28.125 21 27C21 25.38 21.645 23.895 22.695 22.815C23.79 21.69 25.32 21 27 21C28.77 21 30.375 21.765 31.455 22.995C32.415 24.06 33 25.47 33 27Z" stroke="#2E7D32" stroke-width="2.25" stroke-miterlimit="10" stroke-linecap="round" stroke-linejoin="round"/>
<path d="M28.545 25.41L25.38 28.575" stroke="#2E7D32" stroke-width="2.25" stroke-miterlimit="10" stroke-linecap="round" stroke-linejoin="round"/>
<path d="M25.41 25.4401L28.59 28.605" stroke="#2E7D32" stroke-width="2.25" stroke-miterlimit="10" stroke-linecap="round" stroke-linejoin="round"/>
</svg>
