<svg width="143" height="6" viewBox="0 0 143 6" fill="none" xmlns="http://www.w3.org/2000/svg">
<mask id="mask0_2229_1318" style="mask-type:alpha" maskUnits="userSpaceOnUse" x="0" y="0" width="143" height="6">
<rect width="143" height="5.95041" transform="matrix(-1 0 0 1 143 0)" fill="#C4C4C4"/>
</mask>
<g mask="url(#mask0_2229_1318)">
<path d="M119.566 -0.737925L119.139 -0.807098L119.97 -0.906272L119.572 -0.978868C119.172 -0.978204 118.655 -0.869427 118.373 -0.927226C118.339 -0.983186 118.774 -1.00115 118.885 -1.04573C118.983 -1.09143 119.063 -1.13683 119.124 -1.18139C118.907 -1.18091 118.667 -1.17014 118.421 -1.14969C118.089 -1.1163 117.764 -1.10007 117.481 -1.10279C116.902 -1.09378 116.343 -1.10277 115.713 -1.10079L115.923 -1.23547L115.112 -1.20396C115.026 -1.1937 114.923 -1.2102 114.839 -1.19751C114.136 -1.09011 113.838 -1.14863 113.501 -1.19716C113.432 -1.20971 113.348 -1.21909 113.253 -1.22504C112.315 -1.19931 111.47 -1.04878 110.625 -0.971499C110.466 -0.951768 110.314 -0.926443 110.179 -0.897315C109.885 -0.840691 109.558 -0.794461 109.228 -0.762853C108.899 -0.731245 108.576 -0.715272 108.291 -0.716386C107.659 -0.717637 106.946 -0.680184 106.22 -0.607653C106.004 -0.583762 105.788 -0.568003 105.585 -0.561376C105.383 -0.55475 105.198 -0.557401 105.044 -0.569166L104.553 -0.492286C104.34 -0.523481 104.07 -0.540598 103.759 -0.542594C103.449 -0.54459 103.104 -0.531426 102.746 -0.503901C102.365 -0.474041 101.977 -0.453912 101.581 -0.422341C100.764 -0.361986 99.9678 -0.325075 99.2186 -0.312754C98.103 -0.276241 97.0129 -0.24801 95.8874 -0.202488C95.1833 -0.180515 94.4973 -0.168429 93.8335 -0.166295C93.0382 -0.1577 92.1781 -0.116094 91.2944 -0.0434827C91.3363 0.0246432 91.7238 0.00451711 91.9838 0.00221155C92.8228 -0.0091117 93.6814 -0.0384538 94.5445 -0.0604954C94.9333 -0.0690991 95.3114 -0.0723582 95.6766 -0.070248C96.2872 -0.0730729 96.9308 -0.0912246 97.5965 -0.124395C98.6482 -0.160894 99.6662 -0.178438 100.64 -0.17685C100.717 -0.174151 100.787 -0.16937 100.849 -0.162585C100.862 -0.156708 100.865 -0.149297 100.856 -0.141064C100.848 -0.132831 100.83 -0.124049 100.803 -0.115561C100.775 -0.107074 100.74 -0.0991663 100.701 -0.0925918C100.662 -0.0860168 100.619 -0.0809945 100.578 -0.0780106C100.191 -0.0318419 99.7756 0.0177446 99.4108 0.0247203C99.3967 0.0252417 99.3817 0.0264321 99.3668 0.0282064C99.3519 0.0299806 99.3376 0.0322945 99.3248 0.0349799C98.5081 0.132447 97.8366 0.115953 97.2004 0.13181C96.1442 0.174668 95.126 0.194687 94.1612 0.191565C94.0154 0.191777 93.8579 0.197349 93.6946 0.208077C92.6841 0.251568 91.7393 0.256433 90.9043 0.22245C90.5607 0.213841 90.2412 0.194514 89.8718 0.19419C89.6444 0.19286 89.4464 0.180527 89.2897 0.157928C89.1331 0.13533 89.0211 0.102933 88.9604 0.0626867C88.8046 0.0838761 88.6464 0.10276 88.4876 0.119113C88.3928 0.128464 88.3018 0.130947 88.2332 0.126054C88.1645 0.121161 88.1233 0.109257 88.1177 0.0927507C88.0892 0.0465226 88.3056 0.0233069 88.4934 0.00351094C88.3802 -0.0064035 88.2526 -0.012236 88.1136 -0.0138459C87.3312 -0.0244092 86.492 -0.0119415 85.6141 0.0232823C84.9326 0.0654438 84.3886 0.0311269 83.6715 0.0905835C83.5855 0.100843 83.5148 0.0857847 83.4356 0.0821689C83.2293 0.0631288 82.9723 0.0588492 82.6869 0.0697043C82.4014 0.0805599 82.0962 0.106223 81.7976 0.144467C81.4257 0.0399818 80.6225 0.159347 80.0292 0.170075C79.8466 0.22321 80.0562 0.213869 80.0652 0.228468C80.0741 0.243066 80.0652 0.228465 80.1368 0.219915C80.7291 0.295165 81.5405 0.311573 82.4573 0.266834C82.6268 0.267019 82.7884 0.270448 82.9403 0.277085C83.1706 0.28648 83.4301 0.285542 83.7076 0.274312C84.0109 0.266064 84.2894 0.269981 84.5299 0.285874C84.6682 0.285615 84.7852 0.293577 84.87 0.309025C84.9548 0.324474 85.0046 0.34691 85.0149 0.374246C84.9225 0.395321 84.8201 0.414604 84.7116 0.43133C84.1453 0.497374 83.5805 0.524711 83.1285 0.507963C82.3417 0.479106 81.4055 0.507266 80.5689 0.497415C80.0034 0.493424 79.4016 0.504791 78.775 0.531305C78.775 0.531305 78.7914 0.558069 78.7929 0.560502C78.7188 0.57209 78.6409 0.581387 78.5637 0.587862C78.5637 0.587862 78.5637 0.587862 78.5562 0.575696C78.5905 0.564014 78.6371 0.553024 78.6905 0.543999L78.8768 0.521768C78.7502 0.515983 78.6319 0.498759 78.4999 0.509283C78.2219 0.528834 77.9562 0.537088 77.7188 0.533554C77.4814 0.530021 77.2772 0.514769 77.1185 0.488718C76.8372 0.45533 76.4873 0.440147 76.0914 0.444148C75.788 0.440503 75.4956 0.432669 75.2157 0.420685C75.2157 0.420685 75.1977 0.39149 75.0651 0.375974C75.1907 0.356834 75.3217 0.341206 75.452 0.329806C76.0189 0.301325 76.5873 0.275275 77.1444 0.255802C77.3496 0.253698 77.5425 0.256961 77.7194 0.265526C78.2096 0.275549 78.7602 0.261324 79.3393 0.223678C79.3393 0.223678 79.454 0.21 79.5113 0.20316C79.3488 0.138982 78.7885 0.203232 78.5618 0.159768C78.4239 0.16056 78.1812 0.166025 78.1895 0.154583C78.2084 0.139314 78.2106 0.12513 78.1961 0.113047C78.1816 0.100964 78.1506 0.0912813 78.1053 0.0846948C78.0601 0.0781083 78.0018 0.074779 77.9346 0.0749483C77.8674 0.0751172 77.7929 0.0787819 77.7165 0.0856746C77.0787 0.122962 76.478 0.133332 75.9511 0.116147C75.7514 0.116479 75.5275 0.127531 75.3293 0.130295C75.2079 0.133626 75.0971 0.131774 75.0029 0.124842C74.524 0.0737872 73.8795 0.0700588 73.1662 0.114216C72.8215 0.130091 72.4994 0.132215 72.2165 0.120476C72.0153 0.118375 71.93 0.154673 71.7867 0.171773L71.1783 0.207818L71.9596 0.252985C71.7926 0.356492 71.6598 0.390622 71.3869 0.39707C70.9889 0.406808 70.6012 0.411208 70.2262 0.410241C69.9488 0.40939 69.7198 0.387099 69.3443 0.426691C69.2779 0.43315 69.214 0.43524 69.1634 0.432612C68.7236 0.397463 68.194 0.389395 67.6108 0.408962C67.3089 0.343142 66.7945 0.407136 66.3187 0.458698C66.1652 0.409118 66.4434 0.386359 66.6094 0.356107C66.2114 0.359204 65.8104 0.357435 65.3996 0.364675C65.276 0.362039 65.1348 0.366548 64.987 0.377846C64.8392 0.389143 64.6888 0.40692 64.5476 0.429788C64.4788 0.444563 64.3959 0.455683 64.316 0.460839C64.2361 0.465995 64.1655 0.464792 64.1187 0.457479C63.9054 0.435914 63.5639 0.455777 63.3877 0.419349C63.3251 0.410971 63.2355 0.409801 63.1351 0.416044C63.0347 0.422288 62.9299 0.435539 62.8396 0.453425C62.9385 0.459004 63.0265 0.467791 63.1018 0.479592C63.3714 0.517926 63.2724 0.581977 62.9298 0.675097C62.4037 0.669975 61.8663 0.67143 61.3788 0.653879C61.107 0.638125 60.774 0.64305 60.4172 0.668102C60.0603 0.693153 59.6939 0.737337 59.3589 0.795685C59.2377 0.818123 59.0996 0.833662 58.9719 0.83922C58.8443 0.844778 58.7364 0.839945 58.6699 0.82568C58.6285 0.809183 58.6157 0.788304 58.6325 0.764854L58.9764 0.723816C58.9764 0.723816 58.9629 0.701919 58.9599 0.697052L58.4655 0.693374C58.204 0.693246 57.9311 0.699696 57.6839 0.697859C57.3207 0.685638 56.9062 0.69245 56.4658 0.717871C56.0596 0.743938 55.6604 0.76364 55.2717 0.776807C54.8955 0.790359 54.6229 0.747156 54.2649 0.740257C53.9942 0.735057 53.6964 0.740614 53.383 0.756713C52.8415 0.785265 52.3445 0.785318 51.9373 0.756866C51.4626 0.910157 51.2318 0.935081 50.7911 0.89366L50.5839 0.881827L50.5272 0.914706L50.369 0.907475C50.0728 0.901036 49.7766 0.894599 49.4676 0.892302C49.0379 0.906528 48.5739 0.944801 48.121 1.00339C48.035 1.01365 47.918 1.0485 47.8425 1.07579C47.767 1.10308 47.6023 1.18542 47.4815 1.23901C47.6132 1.27814 47.7593 1.31555 47.8639 1.36053C47.8743 1.36821 47.8733 1.37737 47.8608 1.38728C47.8484 1.39718 47.8248 1.40755 47.7921 1.41756C47.7593 1.42756 47.7183 1.43692 47.6723 1.44488C47.6263 1.45283 47.5766 1.45917 47.5272 1.46338C47.4309 1.47245 47.3359 1.4785 47.246 1.48127C46.8033 1.48606 46.3793 1.4825 45.9783 1.47064C45.8319 1.45391 45.6314 1.45231 45.4086 1.46612C45.1859 1.47993 44.9536 1.50835 44.7487 1.54687C44.224 1.52374 43.6142 1.53058 42.9615 1.56689C42.2712 1.5448 41.4374 1.58947 40.7925 1.54108C40.8074 1.56541 40.7409 1.6073 40.6481 1.63143C40.5013 1.66809 40.335 1.70207 40.1563 1.73192L38.7925 1.7902C38.7415 1.82017 38.6778 1.85051 38.6022 1.88082C38.5504 1.90476 38.4601 1.92819 38.3506 1.94614C38.241 1.96409 38.1208 1.97515 38.0153 1.97697C37.744 1.98585 37.5165 1.96599 37.1929 2.01506C37.6911 2.06143 38.3632 2.05527 39.0893 1.99767C39.7714 1.95386 40.4276 1.93197 41.0334 1.9328C41.2331 1.93247 41.4962 1.93503 41.5586 1.96153C41.697 2.03642 42.0588 2.02458 42.4809 2.01077C42.8125 1.99564 43.1155 1.99734 43.3647 2.01572C43.614 2.0341 43.8025 2.06863 43.9148 2.11648C43.9432 2.16271 43.8752 2.20217 43.5841 2.22907L42.3739 2.33694C42.1956 2.32307 42.0263 2.30665 41.8669 2.28776C41.5983 2.26266 41.2668 2.25577 40.8979 2.26762C40.5291 2.27948 40.133 2.30976 39.7404 2.35611C39.5398 2.38005 39.3392 2.40399 39.1938 2.39261C39.0662 2.37955 38.9486 2.36391 38.842 2.3458C38.8205 2.33366 38.8119 2.3197 38.8166 2.30444C38.7394 2.31153 38.6621 2.32076 38.5873 2.3318C37.9898 2.46056 37.527 2.45833 37.1066 2.42493C36.9929 2.41501 36.9063 2.39922 36.791 2.38686C36.6757 2.3745 36.6351 2.35846 36.5303 2.36313C35.695 2.40536 35.4545 2.26431 34.7505 2.26997C34.7161 2.26446 34.6948 2.25623 34.6886 2.24602C34.6823 2.23582 34.6912 2.22397 34.7146 2.21158C34.7643 2.20039 34.8218 2.19077 34.8819 2.1836C34.942 2.17643 35.0027 2.17194 35.0584 2.17054C35.3824 2.15244 35.6686 2.15799 35.8679 2.18624C36.009 2.19779 36.1585 2.20699 36.3154 2.21379L37.0203 2.00953C36.3374 2.02825 35.6915 2.02813 35.0976 2.00917C34.968 1.99851 34.7486 2.01687 34.5662 2.02035L33.2245 2.03944C32.9486 2.04103 32.7136 2.00901 32.3289 2.08365C32.3289 2.08365 32.0748 2.09569 32.0071 2.08549C31.9393 2.0753 31.6388 2.01191 31.4596 1.97062C31.2516 1.98239 30.9635 2.01416 30.8339 2.00351C30.6075 1.97735 30.4115 1.94381 30.2495 1.9035L29.439 1.96105C29.4399 2.01217 29.4695 2.06027 29.5273 2.1046C29.5905 2.14736 29.5883 2.19868 29.521 2.25438C29.4536 2.31007 29.3231 2.36855 29.1399 2.42505L28.3396 2.72427C28.209 2.74431 28.0699 2.75779 27.9409 2.7629C27.812 2.76801 27.6996 2.76449 27.619 2.75282C27.2747 2.71817 26.8889 2.69108 26.5446 2.65643C26.1004 2.70944 26.2146 2.79506 25.8917 2.87016L24.8457 2.99498C24.6862 3.11065 24.5237 3.22146 25.0089 3.26018C25.1053 3.26696 25.0403 3.31128 25.1284 3.32949C24.7511 3.4163 24.3365 3.44229 23.9541 3.49575C23.8033 3.53421 23.6773 3.57491 23.582 3.6159C23.4773 3.67761 23.2652 3.74066 22.9914 3.79141C22.7176 3.84217 22.4041 3.87657 22.1186 3.88717C21.6396 3.91967 21.1492 3.96848 20.6693 4.03141C20.5054 4.05329 20.3369 4.06923 20.1752 4.07816C20.0136 4.08709 19.8625 4.0888 19.7322 4.08317C19.2679 4.07326 18.8749 4.03919 18.5787 3.98317C18.2859 3.93563 17.8912 3.91271 17.4304 3.91651C16.6423 4.01055 16.4834 4.15227 16.0065 4.27709L16.8302 4.29108C16.8602 4.33974 16.8056 4.40109 17.1433 4.39997C17.481 4.39885 17.3097 4.44541 17.2002 4.49243C17.1616 4.51608 17.0863 4.54041 16.987 4.5613C16.8877 4.58219 16.7706 4.59835 16.6555 4.60705L15.9542 4.66723C15.7056 4.69014 15.4649 4.69992 15.2587 4.6955C15.0525 4.69108 14.8887 4.67264 14.7853 4.6422C14.6666 4.61329 14.5028 4.59374 14.304 4.58473C14.0505 4.56115 13.8421 4.52608 13.6864 4.48084L12.6965 4.54675C12.6543 4.50129 12.5183 4.46942 12.3114 4.45652C12.1045 4.44361 11.8394 4.45047 11.561 4.47594L10.8937 4.5164C10.1519 4.56053 9.98915 4.546 9.77189 4.41784L10.6616 4.18892C10.5322 4.12862 10.4073 4.07562 10.2825 4.02262C10.5041 3.9472 10.7998 3.87586 11.1396 3.81586C11.4566 3.75139 11.7827 3.68894 12.1165 3.62876C12.4785 3.56727 12.8609 3.5138 13.3104 3.44449C13.3889 3.42206 13.5029 3.38234 13.6486 3.34407C13.7943 3.30687 13.9464 3.27042 14.1043 3.23483C14.0744 3.18617 14.0474 3.14238 14.1049 3.08589C13.8281 3.10392 13.5421 3.13544 13.2727 3.17762C13.0033 3.2198 12.759 3.27131 12.5618 3.32751C12.5286 3.33748 12.488 3.34684 12.4426 3.35497C12.3972 3.36309 12.348 3.36979 12.2985 3.3746C11.8122 3.40913 11.5798 3.48127 11.342 3.56972C11.1818 3.61493 10.9754 3.65509 10.7513 3.68461C10.3214 3.73591 9.90056 3.80181 9.48953 3.85869C9.36374 3.87765 9.23299 3.89325 9.10268 3.90486C8.67303 3.94177 8.24063 3.99337 7.82745 4.05705C7.69261 4.07323 7.5632 4.09465 7.45007 4.11951C7.33693 4.14437 7.24337 4.17195 7.17714 4.19995C7.27944 4.23062 7.33465 4.26935 7.33943 4.31378C7.35739 4.34297 7.0556 4.40249 6.91297 4.44563C6.77031 4.48877 7.05006 4.46844 7.14501 4.47278C7.53463 4.48113 7.60692 4.49862 7.37359 4.59437C7.29565 4.62448 7.24391 4.6546 7.2216 4.68287C7.1993 4.71114 7.2069 4.73695 7.24393 4.75871C7.2993 4.84873 7.46779 4.92264 7.58347 5.01069C7.40383 5.06869 7.1036 5.13064 7.07088 5.20245C7.05514 5.21838 7.0219 5.23526 6.9736 5.25186C6.9253 5.26847 6.86314 5.28438 6.79157 5.29846C6.60297 5.32885 6.43146 5.3652 6.29038 5.40468C6.14931 5.44416 6.04242 5.48572 5.97801 5.52613C5.95694 5.54285 5.90606 5.56058 5.83554 5.57578C5.76502 5.59098 5.68006 5.60252 5.59777 5.60807C5.49943 5.6149 5.41137 5.614 5.35179 5.60556C5.29221 5.59711 5.26569 5.58177 5.27769 5.5627C5.27528 5.52688 5.28826 5.48953 5.31659 5.45098C5.30013 5.42422 5.28367 5.39745 5.34869 5.35313C5.05502 5.3693 4.74669 5.40172 4.45721 5.44686C4.16772 5.492 3.90817 5.54813 3.70674 5.60915C3.48411 5.67228 3.27878 5.73857 3.03198 5.81243C3.08286 5.89515 3.08286 5.89515 2.55762 6.04141L-0.228393 6.11273L-0.799392 6.2096C-1.3319 6.29404 -1.4585 6.28826 -1.79295 6.2446L-2.01809 6.20357C-2.49092 6.25999 -3.03541 6.32497 -3.33114 6.21924C-3.42717 6.28816 -3.48984 6.3113 -3.46803 6.32176C-3.32689 6.42346 -3.0816 6.50976 -2.74186 6.57722C-2.65525 6.593 -2.59429 6.61707 -2.49336 6.63114C-2.16793 6.71056 -2.09245 6.83328 -2.28235 6.9742C-2.37663 7.03656 -2.51353 7.10042 -2.6887 7.16372C-2.43231 7.25157 -2.09271 7.32435 -1.67893 7.38012C-1.32779 7.42327 -1.03865 7.48105 -0.819735 7.55181C-0.623205 7.62315 -0.328901 7.67678 0.0463104 7.70962C0.236655 7.72357 0.375527 7.75112 0.449163 7.78951C0.471053 7.89343 0.420727 8.00468 0.299215 8.1208C0.276338 8.15614 0.211324 8.19431 0.109276 8.23231C0.00724368 8.27032 -0.129043 8.30713 -0.2889 8.33985C-0.2889 8.33985 -0.36589 8.36471 -0.402888 8.37957C-0.433724 8.50541 -0.318315 8.61631 -0.0644292 8.70481C-0.0228463 8.72993 0.062276 8.74807 0.181768 8.75728C0.30126 8.76649 0.450552 8.76642 0.613639 8.75709C0.95816 8.74209 1.28 8.74024 1.61318 8.73182C1.97222 8.71991 2.28846 8.7293 2.52868 8.759C2.76888 8.7887 2.92416 8.83761 2.97815 8.9006C2.98168 8.91844 2.99218 8.93551 3.00958 8.95169C3.01972 8.96004 3.02523 8.969 3.02604 8.97846L2.26087 9.18469L3.12651 9.26681C3.17739 9.34953 2.76185 9.39912 2.55355 9.46055L2.6823 9.4948C2.84803 9.5142 3.07129 9.47711 3.27337 9.4556L3.47399 9.43166L3.49793 9.47059C3.62281 9.52359 4.07829 9.46401 4.256 9.50287C4.43369 9.54173 4.30686 9.58559 4.04063 9.62781C3.85553 9.6592 3.65678 9.68422 3.45932 9.701C3.26186 9.71778 3.07082 9.72588 2.90058 9.72469C2.79892 9.72053 2.7146 9.71105 2.65275 9.69681C2.29341 9.63619 1.89647 9.58407 1.46485 9.54085C1.13395 9.50203 0.719566 9.48552 0.250823 9.49247C0.113286 9.48954 -0.052605 9.49874 -0.217678 9.51844C-0.382766 9.53814 -0.536461 9.56708 -0.651815 9.6002L-0.894552 9.60566C-0.894552 9.60566 -1.02735 9.63979 -1.00852 9.64538C-0.916131 9.74649 -1.0235 9.87012 -1.31466 9.99792L-1.06146 10.0095C-0.699612 9.99765 -0.929069 10.0747 -0.874978 10.1126C-0.617922 10.1054 -0.283893 10.0734 -0.162009 10.1215L0.0203878 10.118L-0.0512323 10.1266L-0.137863 10.1108L-0.478111 10.1828C-0.316868 10.1949 -0.200106 10.2096 -0.0576695 10.2162C0.0209818 10.2218 0.0836002 10.2318 0.126417 10.2456C0.169233 10.2593 0.191356 10.2765 0.191452 10.2961C0.191057 10.3263 0.233467 10.3517 0.314657 10.3699C0.395847 10.3881 0.513118 10.3985 0.655276 10.4001C0.824867 10.4007 0.921942 10.4335 1.02138 10.4452L0.589341 10.643C0.589341 10.643 0.804262 10.6173 0.687281 10.6522L0.672316 10.6279L0.410554 10.6774C0.221938 10.7208 0.0900224 10.7313 -0.0213859 10.7002C-0.132794 10.6691 -0.1074 10.7105 -0.160859 10.6986C-0.141405 10.7302 -0.0201531 10.7523 0.083773 10.7712C0.203934 10.7861 0.339558 10.797 0.48837 10.8039C0.220186 10.943 0.207349 10.9471 0.599109 10.9839C0.990869 11.0208 0.855713 11.0761 1.18354 11.084C1.51136 11.0918 1.13861 11.186 0.919197 11.2043C0.756536 11.2164 0.590691 11.2352 0.433021 11.2594C0.275351 11.2836 0.129599 11.3127 0.00582047 11.3446L0.0716659 11.4517C0.168154 11.4428 0.264804 11.4313 0.358252 11.4175C0.675836 11.3587 0.964723 11.3033 1.24722 11.3375L1.11269 11.4189L2.09876 11.3717C2.07326 11.4327 1.92295 11.5021 1.67958 11.5654C1.71624 11.6001 1.73874 11.6367 1.74692 11.6749C1.76338 11.7016 1.8607 11.6848 1.92401 11.6877C2.14985 11.6922 2.33515 11.7103 2.46368 11.7405C2.59221 11.7707 2.66004 11.812 2.66112 11.8609C2.68656 11.9022 2.33943 11.9881 2.12238 11.9852C1.58042 11.9935 0.994385 12.0253 0.395949 12.079C0.031125 12.0859 -0.0203865 11.9772 -0.620668 12.0514C-0.632601 12.1017 -0.555713 12.1423 -0.401619 12.1673C-0.247541 12.1922 -0.0246386 12.2001 0.233405 12.1898C0.08669 12.3013 -0.725933 12.3304 -0.761886 12.447C-0.559542 12.4387 -0.343155 12.4194 -0.134153 12.3908C0.0748356 12.3622 0.269195 12.3253 0.429699 12.2839C0.464339 12.2737 0.507843 12.2643 0.556163 12.2565C0.604482 12.2488 0.656094 12.2429 0.706161 12.2396C0.756228 12.2362 0.803173 12.2354 0.842619 12.2372C0.88208 12.2391 0.912771 12.2435 0.931867 12.2501C0.819376 12.2922 0.695514 12.3409 0.554372 12.3865C0.413215 12.4321 0.379225 12.4518 0.277426 12.4614C-0.481955 12.552 -0.842989 12.7152 -1.49996 12.8223C-1.67189 12.8429 -1.6933 12.9081 -1.54402 12.9007C-1.40201 12.8933 -1.27346 12.8943 -1.17274 12.9035C-1.07201 12.9127 -1.00308 12.9298 -0.973695 12.9528C-0.863499 12.9797 -0.726277 13.001 -0.565473 13.0164C-1.23924 13.1839 -2.04259 13.3319 -2.90011 13.4465C-3.06251 13.4691 -3.2319 13.4829 -3.38344 13.4859C-3.86212 13.486 -4.37006 13.4993 -4.89706 13.5255C-5.08396 13.5326 -5.25667 13.5319 -5.40579 13.5235C-5.89485 13.5035 -6.28324 13.5473 -6.63804 13.6706L-7.22529 13.866C-7.20583 13.8976 -7.10728 13.9329 -7.03137 13.9813L-7.4901 14.0857L-10.9907 13.8453L-11.6935 14.078L-12.7012 14.0651C-12.7784 14.0718 -12.856 14.0811 -12.9304 14.0924C-13.1342 14.1612 -13.2935 14.2272 -13.5147 14.2928C-13.7358 14.3583 -14.1308 14.3663 -14.4062 14.4436C-14.6817 14.5208 -14.9575 14.5224 -15.2984 14.5683C-15.3305 14.6281 -15.2974 14.682 -15.2011 14.7265C-15.1697 14.7776 -14.9965 14.8091 -14.9666 14.8578C-14.9699 14.907 -14.9055 14.9487 -14.7793 14.9793C-14.6531 15.0098 -14.469 15.0282 -14.2438 15.0327C-13.6131 15.1374 -12.8526 15.212 -11.9852 15.2541C-11.909 15.2572 -11.8458 15.2643 -11.7996 15.2749C-11.7533 15.2856 -11.725 15.2996 -11.7164 15.3161C-11.7176 15.3638 -11.6598 15.4051 -11.5471 15.4368C-11.4344 15.4685 -11.2698 15.49 -11.0652 15.4995C-11.0108 15.5014 -10.9697 15.5074 -10.947 15.5168C-10.8694 15.5228 -10.8129 15.5343 -10.7829 15.5502C-10.7529 15.566 -10.7505 15.5858 -10.7758 15.6074C-10.8012 15.6291 -10.8534 15.652 -10.9275 15.6738C-11.0017 15.6957 -11.0952 15.7158 -11.199 15.7323C-11.3496 15.7587 -11.5034 15.7841 -11.6598 15.8081C-11.6508 15.8227 -11.4956 15.8251 -11.5183 15.8383C-11.5796 15.8802 -11.5937 15.9196 -11.5598 15.9531C-11.5258 15.9867 -11.4445 16.0136 -11.3224 16.0317L-12.159 16.3718C-12.6669 16.4189 -13.165 16.4988 -13.5589 16.5963C-13.5594 16.6123 -13.5368 16.6257 -13.4932 16.6351C-13.4496 16.6446 -13.3866 16.6498 -13.3105 16.6502C-13.1062 16.6572 -12.9133 16.6707 -12.6933 16.6784C-12.5588 16.6842 -12.4469 16.6968 -12.364 16.7156C-12.2812 16.7344 -12.229 16.759 -12.2107 16.788L-12.7019 16.9145C-12.5445 16.9453 -12.4278 16.9601 -12.3238 16.9791C-12.3827 17.0188 -12.484 17.0599 -12.6198 17.0993C-12.7557 17.1386 -12.9224 17.175 -13.1072 17.2057C-13.1567 17.2121 -13.2073 17.2167 -13.2558 17.2194C-13.3044 17.222 -13.35 17.2226 -13.3899 17.2212C-13.7703 17.1778 -14.2153 17.2544 -14.6476 17.3269C-15.0798 17.3994 -15.3144 17.443 -15.6335 17.4994L-16.244 17.507C-16.3985 17.5336 -16.5364 17.565 -16.6466 17.5986C-16.7568 17.6321 -16.8363 17.667 -16.8787 17.7002C-16.8458 17.7538 -16.5562 17.7244 -16.3837 17.73C-15.9742 17.7633 -15.436 17.7562 -14.8581 17.7098C-14.7148 17.6927 -14.5679 17.7065 -14.4284 17.7082C-14.1277 17.7148 -13.8386 17.7257 -13.5626 17.7406C-13.3808 17.7546 -13.211 17.7718 -13.0541 17.7922C-13.0122 17.8604 -13.6719 17.913 -13.2975 17.9467C-13.4264 17.962 -13.4747 17.9835 -13.541 17.9757C-13.9658 18.02 -14.3843 18.0418 -14.748 18.0388C-15.446 18.0294 -16.2386 18.0604 -17.0608 18.1294C-17.9483 18.2008 -18.7997 18.2308 -19.5447 18.2169C-19.8284 18.2161 -20.1455 18.2307 -20.4719 18.2596C-20.8573 18.2997 -21.2401 18.325 -21.5953 18.3336C-21.7129 18.3339 -21.8439 18.3408 -21.9777 18.3536C-22.1115 18.3663 -22.2442 18.3847 -22.3651 18.4072C-22.3547 18.4243 -22.2394 18.4366 -22.2651 18.4449C-22.6327 18.5724 -22.7818 18.7051 -23.3476 18.8353C-23.7345 18.8814 -24.1787 18.9344 -24.4316 18.8732C-24.6846 18.812 -24.594 18.7594 -24.0905 18.6027C-24.1998 18.6004 -24.3314 18.6078 -24.4623 18.6234C-24.5932 18.639 -24.7152 18.6619 -24.8069 18.6882L-25.2423 18.8054L-25.6348 18.9176C-25.6003 18.9735 -25.5734 19.0173 -25.545 19.0636C-25.5001 19.1127 -25.5493 19.1724 -25.6859 19.2345C-25.7683 19.2683 -25.8401 19.3022 -25.9005 19.3358C-26.1458 19.4701 -26.2168 19.5971 -26.1056 19.7024C-25.8925 19.8539 -25.5958 19.9933 -25.2189 20.1189C-24.8207 20.2412 -24.6028 20.3954 -24.2748 20.5286C-24.1075 20.5892 -23.9043 20.6436 -23.6673 20.6911C-23.2178 20.7968 -22.7253 20.8973 -22.2743 21.0054C-21.8234 21.1135 -21.3142 21.1912 -20.8133 21.2803C-20.0676 21.386 -19.2616 21.4773 -18.3997 21.5537C-17.8664 21.6207 -17.3187 21.6859 -16.8254 21.7628C-16.2427 21.8495 -15.5582 21.9118 -14.7889 21.9481C-14.1095 21.9915 -13.5024 22.0558 -12.9794 22.1396C-12.9245 22.1486 -12.8812 22.1602 -12.8507 22.1738C-12.7565 22.2593 -12.4926 22.3195 -12.0992 22.3453C-12.1231 22.3703 -12.1537 22.3958 -12.1908 22.4215C-12.2454 22.4522 -12.2567 22.4809 -12.2234 22.504C-12.19 22.527 -12.1135 22.5433 -12.0037 22.5507C-11.6891 22.5719 -11.4275 22.6078 -11.2309 22.6569C-11.1586 22.6693 -11.1138 22.6872 -11.1003 22.7093C-11.0867 22.7313 -11.1048 22.7568 -11.153 22.7835C-11.1958 22.8109 -11.1989 22.8362 -11.162 22.856C-11.1252 22.8759 -11.05 22.8893 -10.9463 22.8946C-10.6799 22.9206 -10.3948 22.9415 -10.0926 22.9572C-9.44959 22.9919 -8.70169 22.9915 -7.89403 22.956C-7.80806 22.9458 -7.72148 22.9616 -7.62118 22.9496C-7.05004 22.9099 -6.51959 22.9037 -6.09407 22.9319C-5.59518 22.9428 -5.0736 22.9407 -4.54753 22.9458C-3.78749 22.9423 -3.08639 22.9632 -2.46378 23.0079C-1.75208 22.9647 -1.35219 23.0398 -0.751493 23.0412C-0.196902 23.0489 0.328765 23.0674 0.820505 23.0965C1.61322 23.1351 2.40295 23.1688 3.18434 23.214C3.91739 23.2355 4.5923 23.2766 5.19772 23.3367C5.42974 23.3639 5.84971 23.3216 6.00774 23.3785C6.16576 23.4353 6.48462 23.4286 6.74231 23.4475L7.55538 23.4941C7.69518 23.5052 7.84894 23.5122 8.01425 23.5151C8.77021 23.5189 9.29369 23.5948 9.99532 23.6103L10.067 23.6018C11.3128 23.7147 12.7384 23.7766 14.302 23.7858C15.2153 23.8205 16.214 23.8188 17.1832 23.8442C17.4143 23.8949 17.9603 23.8324 18.2503 23.8788C18.5402 23.9251 19.0137 23.8947 19.3875 23.9023C19.7613 23.91 20.1268 23.929 20.5262 23.9284C20.8732 23.9286 21.1661 23.9493 21.3784 23.9886C21.863 24.0536 22.4538 24.0918 23.1242 24.1015C24.0113 24.1184 24.85 24.1567 25.7522 24.1483C25.7393 24.1956 25.7947 24.2359 25.9126 24.265C26.0305 24.294 26.2067 24.3109 26.4231 24.3137C27.3877 24.3318 28.2626 24.3788 29.2401 24.3928L29.5016 24.3929L32.4251 24.4201C33.2127 24.4253 33.9717 24.434 34.7751 24.44C35.076 24.4041 35.0833 24.4659 35.2913 24.4541C35.3495 24.4236 35.4182 24.4102 35.5206 24.4267L35.543 24.4632L38.8795 24.5116C40.1858 24.547 41.5599 24.5577 42.9901 24.5434C43.3294 24.547 43.6461 24.5591 43.9351 24.5795C44.203 24.5869 44.4823 24.5902 44.7716 24.5894C45.1628 24.5802 45.5449 24.5755 45.9166 24.5755C46.8941 24.5894 47.9199 24.5819 48.9902 24.5717C50.0605 24.5615 50.8714 24.5796 51.8241 24.5782C52.4693 24.5769 53.1115 24.5708 53.7793 24.5564C54.0982 24.5497 54.4911 24.5133 54.8212 24.5C55.1514 24.4867 55.2592 24.4869 55.3028 24.5078C55.4465 24.5664 55.8077 24.5285 56.0964 24.5228C56.6595 24.513 56.7395 24.493 56.8924 24.3416L56.2015 24.2935C56.0322 24.2779 55.8192 24.2752 55.5831 24.2855C55.347 24.2959 55.0957 24.3189 54.8535 24.3525C54.7582 24.3669 54.6586 24.3782 54.5604 24.3859C54.4622 24.3936 54.3673 24.3974 54.2813 24.3973C53.5842 24.389 52.8968 24.3718 52.2269 24.3578L52.1289 24.3486L52.1228 24.2135C52.2114 24.2002 52.3033 24.1893 52.395 24.181L55.7554 24.0934C56.5265 24.0719 57.3272 24.0233 58.084 24.0035C58.8409 23.9837 59.2487 23.9716 59.8359 23.9511C60.0837 23.9395 60.3364 23.9242 60.592 23.9053C60.5772 23.8923 60.5687 23.8785 60.5666 23.8639C60.5531 23.842 60.5352 23.8128 60.6438 23.7894C60.7624 23.7564 60.9208 23.7281 61.0874 23.7104C61.2439 23.6986 61.3957 23.692 61.5367 23.6907C62.2182 23.6794 62.9967 23.608 63.706 23.4919L63.9536 23.5694C65.0188 23.5259 66.0998 23.483 67.2125 23.4417C67.4352 23.4304 67.6691 23.4087 67.8964 23.3783C68.14 23.3492 68.3641 23.2886 68.6205 23.2553C68.8739 23.2314 69.1255 23.2128 69.3707 23.1998C69.3043 23.1798 69.2167 23.1639 69.1108 23.1524C69.0066 23.1484 68.9307 23.1359 68.8941 23.1168C68.8574 23.0977 68.862 23.073 68.9071 23.0462C68.9864 23.0001 69.0213 22.9568 68.8487 22.9513C68.6893 22.9408 68.5752 22.918 68.5199 22.8858C68.4646 22.8535 68.4705 22.813 68.5368 22.7691C68.5658 22.7435 68.5863 22.7183 68.5981 22.6939L68.6698 22.6853C68.9061 22.5945 69.3781 22.5616 69.7168 22.4873C69.8767 22.4657 70.0422 22.4533 70.1873 22.452C70.562 22.436 70.9268 22.429 71.3143 22.4089C71.4993 22.3997 71.6929 22.3828 71.8836 22.3593C72.1558 22.3268 72.1844 22.3233 72.3425 22.2052C72.097 22.2073 71.9025 22.1897 71.7916 22.1553C71.6808 22.1209 71.6606 22.072 71.7343 22.0167C71.9369 21.8959 72.1508 21.7685 73.0669 21.6826C72.7682 21.6784 72.4806 21.67 72.2055 21.6575C72.1255 21.6548 72.0656 21.6459 72.0338 21.632C72.002 21.6182 71.9998 21.6 72.0276 21.5799C72.0554 21.5598 72.1119 21.5388 72.1893 21.5197C72.2668 21.5006 72.3616 21.4842 72.4611 21.4729C72.9447 21.4045 73.4491 21.3588 73.9179 21.3408C74.3129 21.3329 74.6693 21.3373 75.1306 21.3371L75.6751 21.2721C75.6661 21.2575 75.7461 21.2376 75.7258 21.2295C75.5874 21.1546 75.4348 21.0814 75.2776 21.001C75.5287 20.9575 75.7461 20.905 75.9051 20.8496C76.0641 20.7941 76.1583 20.7379 76.1767 20.6873C76.1902 20.6721 76.1867 20.6582 76.1663 20.6466C76.1459 20.6351 76.1092 20.6261 76.0587 20.6205C75.9153 20.6107 75.8047 20.592 75.7353 20.5659C75.6659 20.5398 75.6396 20.5069 75.6584 20.4697L76.0818 20.333C77.3566 20.2355 78.6086 20.1658 79.8144 20.1252L80.9028 20.0946C81.0342 20.058 80.9935 20.042 80.8699 20.0411C80.7463 20.0401 80.3988 20.0503 80.1561 20.0557C79.9465 20.0629 79.7603 20.0582 79.6157 20.0421C79.471 20.0259 79.3728 19.9989 79.3304 19.9636L79.6959 19.8077C79.678 19.7785 79.6526 19.7371 79.4543 19.7399C79.3189 19.7365 79.2191 19.7218 79.171 19.6982C79.123 19.6745 79.1295 19.6433 79.1896 19.6096C79.1987 19.5852 79.185 19.5629 79.1492 19.5439C78.856 19.5423 78.5643 19.5432 78.2983 19.5357C78.1744 19.5333 78.0698 19.5242 77.9915 19.5092C77.9133 19.4942 77.8633 19.4736 77.8449 19.4488C77.8353 19.4246 77.8587 19.397 77.9132 19.3683C77.9677 19.3395 78.0517 19.3105 78.1585 19.2834C78.5754 19.2499 78.9568 19.2495 79.219 19.2822C79.3124 19.3078 79.4625 19.3219 79.6496 19.3224C79.8366 19.3229 80.0517 19.3099 80.2666 19.2852C80.5126 19.2566 80.7581 19.2441 80.959 19.2498C81.1599 19.2555 81.3028 19.2791 81.3623 19.3163C81.6149 19.3018 81.8388 19.2908 82.0597 19.2749C82.3203 19.2548 82.5666 19.2489 82.772 19.2578C83.1007 19.264 83.4549 19.2604 83.8265 19.2468C84.8977 19.213 85.9704 19.1816 87.0075 19.1676C87.2819 19.1635 87.5193 19.1744 87.7907 19.1655C88.062 19.1566 88.2767 19.1806 88.6161 19.1323C88.6807 19.1248 88.7458 19.1199 88.8061 19.1182C88.8664 19.1164 88.9204 19.1178 88.9636 19.1221C89.5596 19.1604 90.2584 19.1658 91.0189 19.138C92.0606 19.1312 93.1407 19.112 94.1839 19.1077C94.4898 19.1114 94.779 19.1215 95.0482 19.1377C95.2532 19.1475 95.4678 19.1542 95.6911 19.1576C95.8621 19.1607 96.0258 19.1516 95.9969 19.2047C95.968 19.2578 96.2244 19.2246 96.3722 19.2148C96.8799 19.189 97.3987 19.1542 97.923 19.1106C98.4396 19.0633 98.9458 19.0358 99.4112 19.0297C99.7474 19.0261 100.094 19.0396 100.526 18.9671C100.51 18.9404 100.493 18.9136 100.399 18.8856C100.752 18.8087 101.154 18.7426 101.572 18.6926C101.991 18.6427 102.414 18.6104 102.806 18.5984L103.347 18.4528C103.481 18.4357 103.617 18.4233 103.747 18.4163C103.878 18.4092 104 18.4077 104.107 18.4119C104.189 18.414 104.289 18.4086 104.389 18.3966C104.489 18.3847 104.582 18.367 104.651 18.3469C104.754 18.3212 104.879 18.2991 105.012 18.2833C105.144 18.2675 105.278 18.2587 105.396 18.258C105.768 18.2421 106.165 18.2056 106.546 18.1521C106.645 18.1207 106.707 18.0883 106.724 18.0588C106.742 18.0294 106.714 18.0042 106.644 17.9863C106.531 17.9548 106.468 17.9146 106.458 17.8682C106.448 17.8218 106.491 17.7702 106.586 17.7164C106.634 17.6834 106.65 17.6522 106.633 17.6246C106.616 17.597 106.566 17.5736 106.487 17.5558C106.19 17.4737 106.27 17.4277 106.755 17.2914C106.834 17.2687 106.929 17.2475 107.034 17.2291C107.139 17.2107 107.252 17.1955 107.366 17.1845C107.633 17.1623 107.896 17.1458 108.151 17.1353C108.294 17.1182 108.441 17.132 108.606 17.1253C109.431 17.0921 109.552 17.0385 109.82 16.9231L110.014 16.8397C110.376 16.7722 110.771 16.7162 111.172 16.6756C111.572 16.635 111.968 16.6109 112.331 16.6051C112.475 16.6046 112.641 16.5931 112.803 16.5722C113.33 16.5085 113.864 16.4644 114.369 16.4428C114.684 16.4307 115.023 16.3993 115.346 16.3524C115.669 16.3055 115.962 16.2451 116.19 16.1784C116.395 16.1184 116.663 16.0645 116.957 16.0243C117.301 15.9832 117.333 15.935 117.14 15.8979C116.948 15.8607 116.627 15.8129 116.341 15.7739C116.242 15.7606 116.18 15.739 116.164 15.7115C116.147 15.684 116.175 15.6517 116.246 15.6182C116.291 15.5608 116.299 15.5063 116.269 15.4561C116.253 15.4352 116.264 15.4113 116.301 15.3859C116.338 15.3605 116.401 15.3343 116.484 15.309C116.568 15.2837 116.671 15.2598 116.785 15.2391C116.9 15.2184 117.025 15.2013 117.15 15.1889C117.681 15.1257 118.196 15.0641 118.737 15.0179C118.964 14.9961 119.19 14.9691 119.41 14.9375C119.862 14.8594 120.345 14.7947 120.831 14.7471C121.062 14.7257 121.288 14.6885 121.46 14.6433C122.001 14.5217 122.5 14.3939 122.948 14.262C123.056 14.2212 123.197 14.1813 123.362 14.1449C123.528 14.1085 123.714 14.0764 123.91 14.0506C124.067 14.0318 124.195 13.9904 124.317 13.9628C124.405 13.899 124.415 13.84 124.344 13.7913C124.274 13.7426 124.126 13.7058 123.915 13.6843C123.715 13.6586 123.527 13.6288 123.354 13.5972C123.145 13.5717 122.897 13.5564 122.618 13.5518C122.289 13.5381 122.045 13.4989 121.919 13.4394C122.821 13.3317 123.68 13.177 124.471 13.2132L125.072 13.1153C125.048 13.0764 125.027 13.0423 125.008 13.0107C124.865 12.9531 124.82 12.8805 124.878 12.799C124.925 12.7596 124.921 12.7237 124.865 12.695C124.81 12.6663 124.705 12.6458 124.562 12.6356C123.713 12.5306 122.731 12.4597 121.935 12.3406C121.685 12.3182 121.393 12.3081 121.071 12.3105C120.759 12.3034 120.772 12.2496 121.131 12.1832C121.332 12.1486 121.538 12.1153 121.746 12.0837C122.666 12.0784 123.04 12.2374 124.09 12.1931L124.576 11.9836C124.708 11.9804 124.835 11.9791 124.958 11.9798L126.718 12.0649C126.864 12.0692 126.978 12.0837 127.047 12.1069C127.116 12.1301 127.136 12.1611 127.106 12.1962C127.094 12.2391 127.118 12.2785 127.178 12.313C127.216 12.3371 127.192 12.3691 127.11 12.4021C126.925 12.4764 127.162 12.4872 127.312 12.5059C127.35 12.5077 127.394 12.5075 127.442 12.5053C127.489 12.5031 127.539 12.499 127.589 12.4931C127.638 12.4872 127.686 12.4797 127.729 12.471C127.773 12.4624 127.811 12.4527 127.842 12.4426C128.106 12.3719 128.337 12.2974 128.597 12.2194C128.413 12.1447 128.629 12.0222 128.342 11.9547C128.31 11.9412 128.297 11.9248 128.304 11.9064C128.311 11.888 128.338 11.8681 128.384 11.8478C128.501 11.7955 128.557 11.7446 128.545 11.7C128.534 11.6555 128.457 11.619 128.32 11.5943L128.304 11.5675C128.664 11.4775 128.568 11.3975 128.71 11.3023L129.056 11.2401C129.917 11.0903 129.919 11.0927 130.66 11.0982C130.81 11.0412 130.62 11.0325 130.477 11.026L129.285 10.962C128.505 10.9193 127.702 10.8897 126.831 10.8736C125.96 10.8574 124.988 10.8036 124.088 10.7648C124.042 10.7618 124.008 10.7558 123.986 10.7475C123.965 10.7391 123.958 10.7285 123.966 10.7166C124.002 10.7038 124.049 10.6914 124.103 10.6804C124.158 10.6694 124.218 10.66 124.281 10.653C124.567 10.6188 124.861 10.5967 125.167 10.5681L125.736 10.5185L125.911 10.4532C126.025 10.4135 126.103 10.365 126.255 10.3364C126.379 10.3152 126.515 10.299 126.647 10.2897C126.78 10.2803 126.903 10.2781 127.006 10.2833C127.291 10.2963 127.549 10.3152 127.821 10.3323C128.093 10.3495 128.243 10.3682 128.479 10.3766C128.958 10.3804 129.421 10.3905 129.866 10.4069C130.241 10.4456 130.588 10.4914 130.904 10.5442C131.101 10.565 131.286 10.59 131.623 10.5628C131.783 10.5382 131.921 10.5059 132.012 10.4715C132.104 10.4372 132.143 10.4031 132.123 10.3752C132.105 10.3534 132.053 10.3362 131.974 10.3251C131.894 10.314 131.789 10.3095 131.669 10.3119C131.33 10.3079 131.017 10.2944 130.736 10.2717C130.345 10.2305 129.869 10.2128 129.335 10.2195C129.155 10.2254 129.033 10.2033 128.875 10.1961C128.717 10.1889 128.583 10.1709 128.406 10.1841C127.858 10.2182 127.595 10.166 127.267 10.1321C127.156 10.117 127.087 10.0927 127.068 10.0618C127.049 10.0309 127.08 9.99458 127.159 9.95687C127.311 9.88178 127.496 9.80626 127.713 9.73151C127.824 9.69477 127.967 9.65987 128.13 9.62957C128.292 9.59926 128.471 9.57437 128.651 9.55684C128.759 9.51085 128.816 9.46563 128.818 9.42526C128.82 9.38489 128.767 9.35065 128.663 9.32563C128.397 9.26856 128.161 9.2105 127.566 9.2424C127.286 9.25458 127.022 9.25691 126.786 9.24931C126.261 9.2389 125.656 9.26169 125.027 9.31556C124.864 9.32936 124.704 9.33877 124.552 9.34352C123.465 9.37661 122.429 9.39313 121.39 9.40478C120.84 9.41038 120.286 9.40868 119.711 9.42499C118.364 9.46039 117.138 9.4422 115.838 9.45372C115.157 9.45966 114.547 9.43582 114.041 9.38346C113.943 9.36591 113.858 9.34542 113.788 9.32224C114.124 9.26141 114.492 9.21324 114.858 9.18235C115.224 9.15147 115.576 9.13889 115.879 9.14584C116.046 9.16287 116.261 9.16598 116.502 9.15484C116.742 9.14368 116.997 9.11871 117.24 9.08269L116.535 9.06232C116.068 9.05279 115.589 9.04984 115.135 9.03617C114.413 9.01264 113.744 8.97496 112.996 8.95972C112.393 8.9457 111.852 8.90986 111.393 8.85334C111.061 8.81212 110.681 8.78288 110.263 8.76623C109.965 8.75736 109.965 8.75736 109.775 8.67299C109.926 8.61841 110.121 8.61078 110.305 8.60973C111.407 8.57539 112.457 8.56937 113.431 8.59179C113.923 8.59378 114.359 8.61692 114.719 8.6601C114.807 8.67831 115.032 8.66969 115.213 8.66377C115.781 8.65477 116.323 8.65738 116.833 8.67157C117.539 8.69524 118.325 8.68963 119.161 8.65496C119.319 8.61255 119.137 8.61603 119.128 8.60144C118.48 8.57422 117.846 8.54287 117.186 8.5198C117.005 8.51157 116.812 8.5075 116.609 8.50764C115.851 8.52194 115.219 8.48231 114.802 8.3943C114.781 8.36023 114.506 8.36425 114.385 8.34216C114.325 8.32304 114.286 8.30052 114.267 8.27528C114.444 8.21241 114.643 8.21208 114.797 8.21201C115.243 8.21903 115.673 8.23233 116.083 8.25185C116.464 8.27042 116.886 8.27539 117.338 8.26662C117.671 8.2582 117.956 8.27121 118.292 8.26766C118.474 8.26017 118.663 8.24816 118.854 8.23188C118.641 8.18805 118.352 8.16111 118.006 8.15291C117.744 8.12675 117.416 8.11886 117.374 8.05073C117.498 8.002 117.636 8.00121 117.747 8.00627C117.977 8.00609 118.2 8.00916 118.414 8.01547C118.867 8.02932 119.357 8.02951 119.875 8.01604C120.148 8.011 120.406 8.01252 120.647 8.02057C121.192 8.03128 121.714 8.05514 122.213 8.06611C123.235 8.07734 124.167 8.11758 125.149 8.1388C125.367 8.14406 125.563 8.16247 125.851 8.1307C126.139 8.09893 126.152 8.09479 126.186 8.07506C126.267 8.04215 126.291 8.01024 126.255 7.98596C126.197 7.96329 126.086 7.95065 125.94 7.95032C125.063 7.91424 124.23 7.86356 123.448 7.79859C123.104 7.78558 122.802 7.75904 122.553 7.71989C122.356 7.69293 122.123 7.67508 121.86 7.6669C121.477 7.6474 121.078 7.63312 120.664 7.62411C120.472 7.61926 120.308 7.60482 120.183 7.58164C120.058 7.55845 119.974 7.52699 119.935 7.48911L120.442 7.36331C120.522 7.35745 120.601 7.35238 120.679 7.34812L124.888 7.43873L125.304 7.44123C125.761 7.43372 125.873 7.41518 126.306 7.26945C125.317 7.23516 124.54 7.13523 124.051 6.97962C124.169 6.96288 124.289 6.94852 124.41 6.93687C125.2 6.90006 125.947 6.89028 126.622 6.9079C127.023 6.90967 127.435 6.90487 127.849 6.90249C127.728 6.83075 127.264 6.85213 126.962 6.83595C126.24 6.81065 125.602 6.75837 125.067 6.6808C124.883 6.65055 124.652 6.63121 124.386 6.62366C124.12 6.62106 123.897 6.60275 123.738 6.57033C123.578 6.53791 123.487 6.49235 123.472 6.43764C123.447 6.38809 123.393 6.34205 123.311 6.30021C123.456 6.24083 123.687 6.18397 123.961 6.1403C124.234 6.09662 124.531 6.06913 124.795 6.06299C125.359 6.03855 125.945 5.99852 126.537 5.94394C126.831 5.91642 127.12 5.90061 127.385 5.89757C127.618 5.89523 127.883 5.87534 128.14 5.84096C128.396 5.80657 128.63 5.75956 128.806 5.70711C129.042 5.64227 129.264 5.5767 129.485 5.51114C129.706 5.44557 129.963 5.36271 130.221 5.28229C130.448 5.26971 130.67 5.26162 130.883 5.25814C131.048 5.26109 131.241 5.25232 131.439 5.23287C131.637 5.21342 131.831 5.1841 131.999 5.14837C131.901 5.11313 131.789 5.08202 131.672 5.04119C131.833 4.98727 131.95 4.93228 132.015 4.87957C132.081 4.82686 132.093 4.77754 132.052 4.73462C132.028 4.69569 132.204 4.63038 132.264 4.57876C132.342 4.53426 132.357 4.49273 132.306 4.45962C132.256 4.4265 132.142 4.40335 131.981 4.3932C131.781 4.37446 131.618 4.34624 131.499 4.30969C131.459 4.3002 131.439 4.28721 131.441 4.2719C131.442 4.25659 131.464 4.23945 131.505 4.22205C131.547 4.20465 131.606 4.18755 131.677 4.1723C131.748 4.15705 131.83 4.14415 131.914 4.13477C132.172 4.10818 132.428 4.09094 132.667 4.08405C133.08 4.07138 133.475 4.06342 133.852 4.06017C134.27 4.05528 134.734 4.02509 135.198 3.97269C135.614 3.9231 135.986 3.87864 136.189 3.78388C136.392 3.68911 136.717 3.69213 136.967 3.62315C136.827 3.56096 136.577 3.51776 136.244 3.49789C136.026 3.4908 135.844 3.47218 135.71 3.44324C135.575 3.4143 135.492 3.37566 135.464 3.32982L136.222 3.13746C136.828 3.04691 137.163 3.11661 137.817 3.0803L137.143 3.00929C137.13 3.00227 137.125 2.99403 137.128 2.98496C137.194 2.84134 137.298 2.81063 137.987 2.73098L138.374 2.68482L138.986 2.63003C139.084 2.60059 139.152 2.5699 139.183 2.54102C139.214 2.51213 139.206 2.48607 139.162 2.46543C139.072 2.43073 139.045 2.38638 139.082 2.33648C139.142 2.30342 139.147 2.27295 139.096 2.25034C139.046 2.22773 138.943 2.21442 138.806 2.21272C138.697 2.2101 138.689 2.17189 138.63 2.15026C138.57 2.12044 138.469 2.09756 138.333 2.08317C138.197 2.06878 138.029 2.06323 137.84 2.06688C137.284 2.06987 136.761 2.05867 136.282 2.0335L136.368 2.02324C135.868 2.04534 135.4 2.04802 134.988 2.03115C134.575 2.00992 134.045 2.02354 133.607 2.01059C133.25 2.01356 132.978 1.98417 132.849 1.92867C132.724 1.87567 132.27 1.88803 131.923 1.89817C131.717 1.90472 131.518 1.9075 131.328 1.90646C131.073 1.89447 130.754 1.90578 130.425 1.9385C130.326 1.94856 130.229 1.95389 130.142 1.95396C129.305 1.96772 128.469 1.9839 127.643 1.99108C127.452 1.98695 127.228 1.99642 126.998 2.01838C126.901 2.02792 126.807 2.03187 126.728 2.0297C125.423 2.00789 123.95 2.06354 122.67 2.03344C122.515 2.02633 122.343 2.02486 122.16 2.02905C121.748 2.04673 121.39 2.03535 121.14 1.99664C121.006 1.97605 120.833 1.96471 120.634 1.96333C120.434 1.96195 120.212 1.97057 119.982 1.98863C119.599 2.01256 119.244 2.01515 118.956 1.99614C118.395 1.97858 117.804 1.97136 117.19 1.97454C117.001 1.97761 116.836 1.97079 116.706 1.9546C116.576 1.9384 116.485 1.91328 116.44 1.88117C116.591 1.82659 116.756 1.81994 116.913 1.82474C117.52 1.81231 118.126 1.79743 118.723 1.79157C119.256 1.77483 119.768 1.76971 120.251 1.77629C120.491 1.78372 120.79 1.76679 121.084 1.7292C121.443 1.68159 121.813 1.65794 122.119 1.66303C122.346 1.66429 122.586 1.66019 122.835 1.65079C122.994 1.63944 123.157 1.61997 123.308 1.59436C123.367 1.58324 123.432 1.57388 123.498 1.5669C123.564 1.55992 123.63 1.55546 123.691 1.55381C123.753 1.55215 123.808 1.55334 123.854 1.5573C123.9 1.56126 123.935 1.5679 123.958 1.57679C124.188 1.65116 124.703 1.61321 125.144 1.60498C125.805 1.47911 126.297 1.55361 126.915 1.48252C126.963 1.47781 127.012 1.47495 127.056 1.47413C127.1 1.47332 127.14 1.47456 127.173 1.47778C128.368 1.52057 129.761 1.48491 131.016 1.49968C131.155 1.50184 131.315 1.49444 131.48 1.47831C132.556 1.37154 133.59 1.34123 134.381 1.3933C134.477 1.39799 134.586 1.39819 134.704 1.39389C135.244 1.35146 135.761 1.33454 136.212 1.34455C136.917 1.34132 137.595 1.34394 138.312 1.33413C138.806 1.32017 139.24 1.33508 139.569 1.37737C139.58 1.39441 139.799 1.37605 139.967 1.37428C140.064 1.3314 140.148 1.29267 140.247 1.25466C140.336 1.20764 140.47 1.16005 140.639 1.11513C140.807 1.07021 141.007 1.02901 141.225 0.994306C141.598 0.949848 141.635 0.885333 141.374 0.861598C140.702 0.783071 139.858 0.750931 138.902 0.767536C138.103 0.768863 137.29 0.771903 136.479 0.779806C136.007 0.786587 135.509 0.801647 135.049 0.804284C134.894 0.810078 134.734 0.818617 134.572 0.829808C134.374 0.846035 134.181 0.854876 134.004 0.855857C133.436 0.842191 132.803 0.854097 132.134 0.891002C131.889 0.89905 131.653 0.901762 131.431 0.899099C130.906 0.889082 130.336 0.896453 129.738 0.921021C129.365 0.934874 129.005 0.942118 128.659 0.942674C128.537 0.944188 128.437 0.932551 128.32 0.941364C127.284 1.03357 126.551 0.966971 125.62 1.00243C125.167 1.01232 124.734 1.01234 124.328 1.00251C123.535 1.00299 122.72 1.0131 121.886 1.0328C120.783 1.06517 119.761 1.05394 118.708 1.0673C118.5 1.07011 118.299 1.06963 118.107 1.06587C117.173 1.04099 116.158 1.04627 115.087 1.08156C114.844 1.08666 114.625 1.08043 114.446 1.06325C114.266 1.04608 114.128 1.01833 114.041 0.981754C114.005 0.956649 114.028 0.924041 114.108 0.890219C114.24 0.847026 114.389 0.804706 114.553 0.763956L120.513 0.627216C120.764 0.620076 121.008 0.616232 121.245 0.615701C121.941 0.614512 122.658 0.603874 123.394 0.58384C124.12 0.565023 124.814 0.568363 125.518 0.562698C125.726 0.560799 125.939 0.556321 126.156 0.549276C127.626 0.493516 129.059 0.459459 130.446 0.447349C131.029 0.44563 131.66 0.42004 132.254 0.411745C132.849 0.403451 133.662 0.400414 134.368 0.397181L136.552 0.397677C136.982 0.396027 137.4 0.400951 137.817 0.403444C138.322 0.225558 138.497 0.183863 139.172 0.105929C139.403 0.0771811 139.637 0.0600249 139.849 0.0564699C140.519 0.0705325 141.359 0.0119946 141.995 0.0197447C142.378 0.0159217 142.703 0.035683 142.937 0.0770063C143.14 0.109437 143.373 0.135098 143.63 0.153602C144.337 0.00142631 144.399 -0.0974088 143.868 -0.13587C143.724 -0.144811 143.525 -0.142045 143.421 -0.160983C143.362 -0.172515 143.28 -0.179111 143.184 -0.180251C143.087 -0.181391 142.977 -0.177046 142.864 -0.167552C142.505 -0.142649 142.17 -0.136792 141.89 -0.15057C141.627 -0.168806 141.304 -0.168078 140.953 -0.148455C140.695 -0.117675 140.468 -0.161136 140.245 -0.173693C140.022 -0.186249 139.839 -0.208805 139.491 -0.175066C139.427 -0.168348 139.364 -0.164315 139.306 -0.163276C139.248 -0.162238 139.197 -0.164221 139.156 -0.169075C138.782 -0.190805 138.336 -0.188522 137.853 -0.162413C137.113 -0.136721 136.419 -0.135758 135.794 -0.159556C135.42 -0.180379 135.101 -0.217307 134.85 -0.268897C134.782 -0.286153 134.68 -0.2965 134.555 -0.298946C133.926 -0.288181 133.244 -0.247669 132.552 -0.180022C132.291 -0.152918 132.03 -0.131477 131.776 -0.11616C131.253 -0.0821305 130.746 -0.0630618 130.273 -0.0595187C129.584 -0.0589571 128.867 -0.0458644 128.128 -0.0203589C127.672 -0.00615723 127.233 -0.000916349 126.815 -0.00469106C126.386 -0.00647091 125.928 0.00436169 125.451 0.0275549C124.976 0.0464552 124.558 0.0355652 124.247 -0.00379624C124.145 -0.0250073 124.062 -0.050194 124.001 -0.078888C124.695 -0.172258 125.414 -0.219709 126.011 -0.211688C126.238 -0.217873 126.426 -0.211629 126.665 -0.247997L126.673 -0.235833C126.72 -0.227939 126.792 -0.226077 126.875 -0.230601C126.957 -0.235125 127.044 -0.245718 127.119 -0.260365C127.091 -0.306593 127.064 -0.350388 127.044 -0.382018C126.589 -0.376438 126.147 -0.376889 125.721 -0.383376C125.361 -0.392709 124.873 -0.310965 124.562 -0.341735C123.955 -0.303258 123.569 -0.356385 123.025 -0.341055C122.48 -0.325725 121.881 -0.27508 121.337 -0.259751C120.862 -0.251338 120.401 -0.24951 119.956 -0.254273C119.802 -0.26096 119.625 -0.259392 119.436 -0.249663C119.169 -0.23136 118.921 -0.228293 118.721 -0.240816C118.52 -0.253339 118.374 -0.280946 118.3 -0.320471C118.37 -0.357494 118.463 -0.405233 118.571 -0.454686C118.373 -0.49532 118.071 -0.51243 117.711 -0.503469L117.202 -0.505431C117.067 -0.504359 116.964 -0.515344 116.914 -0.536114C116.864 -0.556884 116.871 -0.585849 116.934 -0.617019C117.898 -0.773935 117.934 -0.791232 118.642 -0.690303L119.582 -0.737204L119.566 -0.737925ZM106.851 -0.306883L106.922 -0.31543L106.851 -0.306883ZM-10.3035 16.388L-10.287 16.4148L-10.305 16.3856L-10.4626 16.4044L-10.4731 16.3873L-10.3035 16.388ZM12.5799 4.65729C12.8027 4.62809 13.0276 4.60125 13.2533 4.57692C13.3124 4.57315 13.3678 4.5723 13.4146 4.57444C13.4614 4.57658 13.4984 4.58165 13.5224 4.58921C13.5403 4.61841 13.4144 4.63867 13.2997 4.65235C13.1552 4.67076 13.0075 4.68246 12.872 4.68624C12.7364 4.69002 12.6179 4.68575 12.5286 4.67386L12.399 4.66321L12.5799 4.65729ZM127.323 11.7733C127.176 11.7782 127.037 11.779 126.909 11.7757C126.341 11.7521 125.797 11.7178 125.214 11.6959C124.479 11.6403 123.635 11.6177 122.712 11.6289C122.352 11.6343 122.047 11.6163 121.834 11.5769C121.707 11.5558 121.542 11.5435 121.351 11.5406L118.912 11.4765C118.761 11.4632 118.631 11.4445 118.524 11.4209C118.739 11.3953 118.882 11.3782 118.968 11.3679C119.147 11.365 119.3 11.3729 119.413 11.3906C119.534 11.4207 119.739 11.4326 119.987 11.4239C120.237 11.4168 120.481 11.4129 120.718 11.4124C121.165 11.4139 121.615 11.4203 122.064 11.4242C122.238 11.5079 122.753 11.4699 123.194 11.4617L123.535 11.4654C124.648 11.5088 125.712 11.5685 126.72 11.6441C126.915 11.6569 127.083 11.6773 127.219 11.7047C127.27 11.7261 127.287 11.7528 127.267 11.7826L127.339 11.7741L127.323 11.7733ZM77.597 19.7709C77.3269 19.7766 77.0456 19.7883 76.7572 19.8058C76.5351 19.8237 76.3184 19.8346 76.1157 19.838C74.9799 19.8567 73.7964 19.9 72.581 19.9673C72.4221 19.9775 72.2693 19.9825 72.1287 19.9821L71.1339 19.965C70.8204 19.9555 70.8144 19.9457 71.0426 19.8166C71.232 19.7916 71.4235 19.7687 71.6157 19.7482C71.7303 19.7346 71.9166 19.7123 71.9602 19.7332C72.226 19.7903 72.7108 19.7533 73.1186 19.7412C74.299 19.7101 75.5165 19.664 76.7083 19.6262C76.9603 19.617 77.2043 19.6123 77.438 19.6123C77.5829 19.6104 77.7152 19.614 77.8291 19.6231C77.8624 19.624 77.8902 19.6267 77.9108 19.631C77.9314 19.6353 77.9443 19.6411 77.9486 19.648C77.9528 19.6549 77.9483 19.6627 77.9355 19.671C77.9226 19.6793 77.9017 19.6879 77.874 19.6961C77.7764 19.7248 77.6638 19.7523 77.5397 19.7777L77.597 19.7709ZM68.9496 1.0353L67.7867 1.01999C67.6473 1.01835 67.529 1.00113 67.3797 1.00849C66.5835 1.03184 65.8462 1.02534 65.1993 0.989258C64.979 0.974535 64.7213 0.971591 64.4404 0.980588C63.5801 1.00725 62.7686 1.00835 62.0277 0.983848C61.549 0.978931 61.1008 0.962416 60.6901 0.93455C60.6585 0.928081 60.6388 0.919299 60.6323 0.908802C60.6259 0.898305 60.6328 0.88634 60.6527 0.873723C60.6579 0.865753 60.672 0.857177 60.6939 0.848591C60.7159 0.840004 60.7454 0.831606 60.7801 0.82398C60.8149 0.816355 60.8542 0.809682 60.8954 0.804418C60.9366 0.799154 60.9786 0.795423 61.0186 0.793487C61.5375 0.755767 62.0301 0.742627 62.4561 0.755132C62.8511 0.770095 63.2764 0.774473 63.7253 0.768199C64.1549 0.766548 64.4464 0.815336 64.9772 0.778109C65.2017 0.76585 65.3997 0.769886 65.5379 0.78954C65.816 0.822118 66.2039 0.82393 66.633 0.794654C66.8897 0.779838 67.135 0.773483 67.3597 0.775835C67.9046 0.786545 68.4253 0.807974 68.9302 0.828681C69.0893 0.833471 69.2597 0.834132 69.4389 0.830649L71.967 0.790103C72.5746 0.777665 73.1806 0.762795 73.7769 0.756933C74.2645 0.744206 74.7182 0.748192 75.1222 0.768751C75.5528 0.790359 76.0225 0.799132 76.5224 0.794903C77.2987 0.806727 78.0705 0.81125 78.9154 0.80966C79.4543 0.810638 80.006 0.807475 80.5691 0.797735C80.854 0.785198 81.0958 0.795407 81.248 0.826397C81.3406 0.85191 81.5586 0.831125 81.7395 0.825204C82.7045 0.768137 83.6094 0.754615 84.3912 0.78558C84.491 0.790626 84.6006 0.792453 84.7176 0.791029C85.4705 0.789966 86.2506 0.783049 86.9734 0.782973C87.1638 0.785378 87.3428 0.79198 87.5085 0.802694C87.4907 0.820173 87.4402 0.839118 87.3673 0.855598C87.2944 0.872079 87.2047 0.884834 87.1169 0.891213C86.4333 0.940045 85.7732 0.965841 85.1645 0.96752C84.1511 0.961299 83.0897 0.975284 81.9911 1.00933C81.1387 1.04365 80.3615 1.03642 79.7173 0.988186C79.2137 0.952196 78.5586 0.965737 77.8645 1.02649C77.5675 1.0555 77.2792 1.0671 77.0391 1.0597C76.8079 1.05 76.5427 1.05236 76.2589 1.06662C75.6606 1.09375 75.0853 1.10634 74.544 1.10413C74.015 1.09414 73.5214 1.06686 72.9781 1.05858C72.4347 1.05031 71.6071 1.05505 70.9371 1.04099C70.2671 1.02692 69.6046 1.02503 68.9496 1.0353ZM117.136 -0.387854C117.075 -0.312625 116.857 -0.265799 116.624 -0.245738C115.818 -0.156666 115.021 -0.118763 114.367 -0.13839C114.014 -0.165766 113.543 -0.155229 113.048 -0.108846C112.47 -0.0606306 111.93 -0.0526337 111.523 -0.0862665C111.424 -0.0921429 111.347 -0.104567 111.301 -0.12243C111.292 -0.137028 111.276 -0.163791 111.273 -0.168658C111.316 -0.180999 111.368 -0.192433 111.426 -0.20208C111.484 -0.211726 111.546 -0.219326 111.608 -0.224293L114.277 -0.31041L114.742 -0.329361C115.592 -0.379009 116.401 -0.398787 117.136 -0.387854ZM111.886 0.80286C111.469 0.925704 111.468 0.923266 111.254 0.951348C110.225 1.06799 109.196 1.13096 108.29 1.13276C108.088 1.1324 107.918 1.12054 107.792 1.09818C107.727 1.09515 107.686 1.08552 107.677 1.07139C107.668 1.05726 107.693 1.03978 107.745 1.02275L108.077 0.93621C108.678 0.898743 109.271 0.868973 109.852 0.847079C110.528 0.821225 111.127 0.820228 111.828 0.809696L111.886 0.80286ZM77.647 19.2269C77.2588 19.396 77.2573 19.3936 76.6074 19.4372C76.1545 19.4681 75.7152 19.4862 75.3025 19.4911C74.7982 19.4964 74.2811 19.5059 73.7784 19.5136C73.6556 19.519 73.5516 19.5146 73.4864 19.5011C73.4213 19.4876 73.3997 19.4661 73.426 19.4408C73.4919 19.4133 73.5951 19.3867 73.7188 19.3653C73.8425 19.3439 73.9793 19.3289 74.1071 19.3229L74.3815 19.3189C74.7147 19.3105 75.0607 19.2979 75.3825 19.2961C75.5914 19.3031 75.8333 19.2977 76.0894 19.2802C76.3455 19.2628 76.6088 19.2339 76.8587 19.1956L77.647 19.2269ZM109.813 -0.166793C109.709 -0.137513 109.592 -0.109469 109.464 -0.0834082C108.97 -0.0111752 108.447 0.0298511 107.997 0.0316265C107.784 0.036101 107.59 0.0201246 107.374 0.0433403C106.986 0.0743637 106.609 0.0908895 106.265 0.0920226C106.265 0.0920226 106.169 0.0852485 106.137 0.0838024L106.072 -0.0232521C106.234 -0.0480525 106.404 -0.0683136 106.573 -0.0831014C107.14 -0.111583 107.697 -0.131056 108.253 -0.152962C108.808 -0.174867 109.002 -0.184931 109.365 -0.19434C109.527 -0.189168 109.677 -0.17994 109.813 -0.166793ZM122.09 13.1422L121.348 13.3613C121.108 13.3803 120.883 13.3838 120.709 13.3711C120.535 13.3585 120.42 13.3304 120.382 13.2912C120.321 13.2728 120.315 13.2456 120.365 13.2153C120.415 13.1849 120.518 13.1538 120.651 13.1285C120.779 13.0984 120.926 13.0714 121.082 13.0493C121.237 13.0271 121.399 13.0102 121.556 12.9996L122.09 13.1422ZM115.913 12.0512C116.398 12.014 116.862 11.9989 117.27 12.0068C117.526 12.0285 117.874 12.0216 118.242 11.9874C118.911 11.9192 119.555 11.9003 120.04 11.9348C120.04 11.9348 120.058 11.9639 120.14 11.9724C120.222 11.9809 119.896 12.0015 119.825 12.01C119.299 12.031 118.771 12.047 118.314 12.0545C118.03 12.0542 117.73 12.0611 117.419 12.0751C116.991 12.0967 116.585 12.1037 116.217 12.0959C116.217 12.0959 116.075 12.0893 115.914 12.0536L115.913 12.0512ZM64.0915 0.638317C64.3232 0.59705 64.5746 0.563511 64.8266 0.540217C65.0786 0.516923 65.3248 0.504481 65.5467 0.503818C65.7167 0.501665 65.8542 0.51256 65.9375 0.534782C66.0208 0.557004 66.0451 0.589284 66.0067 0.626518C65.8348 0.647037 65.6055 0.674396 65.4766 0.689785C65.0296 0.688279 64.6483 0.668492 64.0915 0.638317ZM20.7058 4.11584C20.8918 4.08262 21.0966 4.05722 21.297 4.04254C21.4974 4.02787 21.6852 4.0245 21.839 4.03284C21.9181 4.03645 21.8645 4.0742 21.8779 4.0961C21.8867 4.10106 21.8866 4.10724 21.8776 4.11397C21.8686 4.12071 21.8511 4.12777 21.8269 4.1344C21.8026 4.14103 21.7726 4.14699 21.7399 4.15166C21.7072 4.15633 21.673 4.15953 21.641 4.16094C21.4392 4.17525 21.2488 4.17951 21.0866 4.17334C20.9245 4.16717 20.7957 4.15076 20.7118 4.12557L20.7058 4.11584ZM17.7989 4.59073C17.8277 4.57112 17.8889 4.5507 17.9714 4.53318C18.0538 4.51567 18.152 4.50224 18.2478 4.49537C18.4172 4.49445 18.5711 4.49989 18.7037 4.51148C18.8476 4.52042 18.7441 4.57717 18.5495 4.61084C18.4671 4.62436 18.379 4.6349 18.2923 4.64163C18.2056 4.64836 18.1227 4.6511 18.0501 4.64962C17.9775 4.64814 17.9173 4.64248 17.8742 4.6331C17.8311 4.62373 17.8064 4.61088 17.8019 4.59559L17.7989 4.59073ZM102.267 0.0417082C102.7 -0.0283315 103.034 -0.010711 103.401 -0.0388617C103.768 -0.0670119 103.859 -0.0699738 103.81 -0.0249283C103.76 0.0201178 103.509 0.0109822 103.351 0.0297913C103.138 0.0547496 102.924 0.0690814 102.732 0.0711866C102.541 0.0732915 102.38 0.0630845 102.267 0.0417082ZM11.8931 11.8926C12.1229 11.8769 12.3479 11.8657 12.5648 11.8594C12.5934 11.8659 12.6113 11.8745 12.6174 11.8845C12.6236 11.8945 12.6179 11.9058 12.6007 11.9178C12.6007 11.9178 12.4536 11.9536 12.3677 11.9639C12.0509 11.9991 12.0353 11.9487 11.8931 11.8926ZM-20.5744 18.4181C-20.7299 18.4654 -20.8023 18.4976 -20.9268 18.5202C-20.984 18.5281 -21.0431 18.5338 -21.0997 18.537C-21.1564 18.5401 -21.2091 18.5406 -21.254 18.5384C-21.3087 18.5248 -21.3215 18.5039 -21.2899 18.48C-21.2899 18.48 -21.1315 18.4376 -21.0712 18.4356C-20.8991 18.4256 -20.7324 18.4197 -20.5744 18.4181ZM109.649 -0.358741C109.978 -0.39807 110.293 -0.435692 110.522 -0.389796C109.998 -0.340403 109.998 -0.3404 109.649 -0.358741ZM104.311 0.090208C104.644 0.00609767 104.839 -0.00153562 104.999 0.00812851C105.033 0.0105627 105.055 0.0159886 105.063 0.0235805C105.07 0.0311733 105.063 0.0405215 105.041 0.0502103C105.019 0.0599003 104.984 0.0694023 104.942 0.0772821C104.899 0.0851614 104.852 0.0909898 104.806 0.0938823C104.632 0.0963034 104.467 0.0950742 104.311 0.090208ZM87.1844 0.125775C87.1769 0.11361 87.168 0.099012 87.2539 0.0887524C87.2764 0.0835435 87.3028 0.0790651 87.3305 0.0757634C87.3582 0.0724612 87.3861 0.0704555 87.4115 0.0699451C87.4115 0.0699451 87.4205 0.0845438 87.4265 0.0942762L87.1844 0.125775ZM75.2912 20.3229L75.4826 20.334L75.3966 20.3443L75.1698 20.3505L75.2912 20.3229ZM7.90053 4.4009C7.97217 4.39235 8.04382 4.3838 8.05429 4.40083C8.0694 4.40347 8.07877 4.40728 8.08163 4.41193C8.08449 4.41659 8.08077 4.42196 8.07076 4.4276C8.07076 4.4276 7.97045 4.43957 7.92747 4.44469L7.90053 4.4009ZM19.0578 4.53712C19.105 4.53614 19.1475 4.53728 19.1829 4.54047L19.1919 4.55507L19.0486 4.57217L19.0578 4.53712ZM116.291 8.01544C116.346 8.00657 116.405 7.99957 116.463 7.99492L116.535 7.98637C116.535 7.98637 116.458 8.01122 116.415 8.01635C116.372 8.02148 116.337 8.01517 116.291 8.01544Z" fill="#2E7D32"/>
</g>
</svg>
