<svg width="18" height="24" viewBox="0 0 18 24" fill="none" xmlns="http://www.w3.org/2000/svg">
<path d="M8.64211 0.0774486C8.29291 0.22218 8.16254 0.507386 8.15789 1.11185V1.44388H5.88111H3.60898L3.45533 1.53753C3.13873 1.7376 3.01302 2.01855 3.09217 2.35484C3.14338 2.58045 3.39481 2.8316 3.63692 2.8912C3.88369 2.95505 14.057 2.95079 14.3271 2.88694C14.7228 2.79329 15.0022 2.41444 14.9277 2.06112C14.8904 1.86531 14.7368 1.66098 14.5412 1.54179L14.3829 1.44388H12.1108H9.83404V1.09057C9.83404 0.481845 9.69436 0.209409 9.31257 0.0604212C9.08443 -0.0247149 8.87491 -0.020458 8.64211 0.0774486Z" fill="#2E7D32"/>
<path d="M0.535807 4.17249C0.316975 4.23209 0.0795196 4.46621 0.0189917 4.67905C-0.0229122 4.82804 0.000367746 5.05791 0.130736 5.97312C0.214543 6.58184 0.298351 7.148 0.312319 7.22037L0.340255 7.36084H1.1504C1.90932 7.36084 1.9652 7.35658 1.9652 7.28422C1.9652 7.20334 1.80224 6.01143 1.75102 5.75177L1.72774 5.61555H8.99574C12.9906 5.61555 16.2591 5.62832 16.2591 5.64535C16.2591 5.66663 16.2079 6.03272 16.1427 6.46265C16.0775 6.89259 16.0263 7.26719 16.0263 7.30124C16.0263 7.34807 16.1753 7.36084 16.8411 7.36084C17.6466 7.36084 17.6559 7.36084 17.6745 7.26293C17.6885 7.21185 17.7723 6.6457 17.8654 6.01143C18.0051 5.03237 18.0237 4.82378 17.9771 4.67054C17.9166 4.45344 17.6745 4.23209 17.4324 4.16823C17.2089 4.1129 0.749982 4.11715 0.535807 4.17249Z" fill="#2E7D32"/>
<path d="M2.33772 21.1656C2.33772 21.2848 2.66364 23.4515 2.69623 23.5239C2.75676 23.6857 2.91041 23.8389 3.08734 23.9198C3.26427 24.0049 3.35738 24.0049 9.05632 23.9964L14.8484 23.9836L15.016 23.8644C15.1091 23.8006 15.2209 23.6899 15.2581 23.6218C15.3186 23.5196 15.6539 21.4423 15.6539 21.1827C15.6539 21.1188 15.584 21.1103 14.8437 21.1103C14.0429 21.1103 14.0336 21.1103 14.0103 21.2039C13.9963 21.2593 13.9498 21.5743 13.9032 21.9106L13.8194 22.515L9.00045 22.5065L4.17684 22.4937L4.07441 21.8127C4.01854 21.4381 3.97198 21.1273 3.97198 21.1188C3.96732 21.1145 3.5995 21.1103 3.15252 21.1103C2.50068 21.1103 2.33772 21.1231 2.33772 21.1656Z" fill="#2E7D32"/>
<path d="M7.1464 7.63144C6.76728 7.78563 6.62006 7.94715 6.18205 8.68136C5.88023 9.18797 5.78822 9.36418 5.80662 9.43026C5.82134 9.49267 6.1342 9.7166 6.99181 10.2783C7.99296 10.9317 8.16963 11.0308 8.23588 11.0015C8.28373 10.9794 8.47513 10.6637 8.73646 10.1718C8.96834 9.73496 9.17446 9.38254 9.18919 9.38988C9.21863 9.39722 10.1351 11.1336 10.1314 11.1777C10.1314 11.1887 9.94005 11.3098 9.70817 11.453C9.24072 11.7283 9.1487 11.8238 9.21495 11.9449C9.23704 11.989 9.29225 12.0294 9.33641 12.0367C9.57198 12.0881 12.3583 12.3891 12.4172 12.3708C12.454 12.3598 12.5276 12.257 12.5828 12.1395C13.4146 10.4031 13.9631 9.20633 13.9631 9.13657C13.9631 9.07784 13.9336 9.03379 13.8747 9.00809C13.7974 8.97138 13.7275 8.99707 13.3189 9.21367C12.9472 9.4119 12.8441 9.45229 12.8184 9.4119C12.8 9.38254 12.6159 9.06682 12.4098 8.70706C12.1117 8.18944 11.9902 8.00956 11.8246 7.85538C11.4749 7.53232 11.5522 7.54334 9.31065 7.54334H7.3562L7.1464 7.63144ZM8.71806 8.41338C8.85056 8.68871 8.9573 8.93467 8.9573 8.96404C8.9573 9.01176 8.17331 10.4692 8.1181 10.5242C8.09602 10.5463 6.36977 9.44861 6.25935 9.34583C6.23358 9.32013 6.74888 8.41338 6.87034 8.27755C7.12063 7.98753 7.35252 7.91411 7.98928 7.91044H8.47881L8.71806 8.41338ZM11.2872 7.96918C11.5816 8.0683 11.7215 8.23349 12.1779 9.04847C12.4135 9.4633 12.638 9.83408 12.6785 9.87446C12.7484 9.94788 12.7521 9.94788 13.0502 9.79369C13.2196 9.70926 13.3594 9.64685 13.3668 9.65419C13.3778 9.66521 12.3472 11.8642 12.2736 11.978C12.2515 12.0147 12.027 11.9963 11.1731 11.8935C10.5805 11.8238 10.0799 11.7651 10.0578 11.7651C9.97686 11.7651 10.0505 11.688 10.3008 11.5191C10.4406 11.42 10.5621 11.3172 10.5695 11.2841C10.5768 11.2511 10.2051 10.4985 9.74865 9.60647C9.29225 8.71807 8.9205 7.97285 8.9205 7.95082C8.9205 7.92145 9.2444 7.91044 10.0173 7.91044C10.9228 7.91044 11.1473 7.92145 11.2872 7.96918Z" fill="#2E7D32"/>
<path d="M6.06782 10.8735C5.98684 10.8809 5.28751 10.9286 4.51088 10.9763C3.56862 11.035 3.08277 11.0791 3.04596 11.1085C3.01284 11.1342 2.99443 11.2002 3.00179 11.2663C3.01284 11.3654 3.06805 11.4095 3.49133 11.6848C3.75634 11.8537 3.9919 12.0042 4.01767 12.0189C4.05816 12.0409 3.97718 12.2355 3.67904 12.8596C3.46556 13.3074 3.27049 13.759 3.2484 13.8654C3.19687 14.104 3.22632 14.4528 3.32202 14.6877C3.45084 15.0071 5.18813 18.0578 5.34272 18.2303C5.51571 18.4249 5.86906 18.6121 6.15616 18.6672C6.2629 18.6855 6.54999 18.7039 6.78924 18.7039C7.43336 18.7039 7.37447 18.8727 7.37447 17.0519C7.37447 15.5945 7.37079 15.5431 7.30086 15.4733C7.23092 15.4036 7.17939 15.3999 6.45429 15.3999C5.98684 15.3999 5.68135 15.3852 5.68135 15.3632C5.68135 15.2971 6.64937 13.6011 6.68986 13.6011C6.71194 13.6011 6.91806 13.6745 7.14995 13.7663C7.54378 13.9205 7.57691 13.9278 7.65788 13.8764C7.70205 13.8434 7.74254 13.7847 7.74254 13.7443C7.74254 13.6341 6.53527 10.9506 6.46166 10.8919C6.40276 10.8478 6.36228 10.8478 6.06782 10.8735ZM6.73403 12.2942C6.98431 12.8596 7.18675 13.3331 7.18307 13.3478C7.17571 13.3662 7.05793 13.3294 6.91438 13.267C6.58312 13.1275 6.5095 13.1312 6.41749 13.2781C6.377 13.3441 5.9758 14.0637 5.52308 14.875C5.07403 15.6899 4.69492 16.3544 4.68388 16.3544C4.67283 16.3544 4.43727 15.9506 4.16122 15.4587C3.62015 14.4932 3.56494 14.3353 3.62383 13.9756C3.63856 13.8764 3.82995 13.4286 4.08024 12.9073C4.37102 12.3015 4.50352 11.9895 4.4888 11.9344C4.47776 11.8867 4.33789 11.7729 4.12809 11.6408C3.94037 11.5196 3.80787 11.4168 3.82995 11.4095C3.90357 11.3838 5.82489 11.259 6.06046 11.2663L6.27394 11.27L6.73403 12.2942ZM7.0064 17.0519V18.3001H6.55367C6.14511 18.3001 6.08254 18.2927 5.91691 18.2083C5.81385 18.1569 5.68871 18.0688 5.6335 18.0137C5.49363 17.8669 4.90472 16.8243 4.91944 16.7545C4.9268 16.7215 5.05563 16.4976 5.19917 16.2516L5.46418 15.8037H6.23345H7.0064V17.0519Z" fill="#2E7D32"/>
<path d="M12.6749 12.6643C11.6369 13.2957 11.4418 13.4242 11.4308 13.5013C11.4234 13.5637 11.5522 13.8427 11.8246 14.342C12.0491 14.7531 12.2405 15.1203 12.2553 15.1533C12.2773 15.212 12.2037 15.2157 11.3388 15.2157H10.4002L10.3855 14.7385C10.3744 14.3163 10.3671 14.2576 10.3008 14.2098C10.2603 14.1768 10.2014 14.1548 10.172 14.1621C10.1241 14.1695 8.18808 16.328 8.04821 16.5263C8.01508 16.5777 8.00036 16.6437 8.01508 16.6915C8.02613 16.7392 8.49726 17.3853 9.0604 18.1342C10.102 19.5219 10.1646 19.5879 10.3045 19.4741C10.3413 19.4411 10.356 19.3383 10.356 19.0666V18.7032H11.1106C11.8909 18.7032 12.1522 18.6702 12.3951 18.549C12.6933 18.3985 12.8515 18.1782 13.5361 16.9558C13.9005 16.3133 14.3275 15.5645 14.4894 15.2928C14.6514 15.0248 14.8207 14.7164 14.8686 14.61C14.979 14.3714 15.0158 14.0116 14.9606 13.751C14.9385 13.6445 14.7397 13.1856 14.5189 12.7341C14.1324 11.9485 14.1103 11.9118 14.0109 11.9154C13.9447 11.9154 13.4809 12.1761 12.6749 12.6643ZM14.2502 12.9984C14.4195 13.3545 14.5778 13.7326 14.5999 13.8427C14.6624 14.1401 14.5999 14.3714 14.3312 14.8302L14.103 15.2157L13.4036 15.2084L12.7006 15.1973L12.2847 14.4264C12.0528 14.0006 11.8651 13.6371 11.8651 13.6188C11.8688 13.5858 13.8748 12.3523 13.9263 12.3523C13.9373 12.3523 14.0809 12.6423 14.2502 12.9984ZM10.0579 15.5241C10.102 15.5755 10.2861 15.5828 11.9792 15.5828C13.0098 15.5828 13.8527 15.5975 13.8527 15.6158C13.8527 15.6415 12.7337 17.6386 12.5571 17.9249C12.5166 17.991 12.4062 18.0975 12.3141 18.1636L12.1412 18.281L11.1474 18.292C10.1941 18.3031 10.1499 18.3067 10.0726 18.3802C10.0174 18.4315 9.98794 18.5013 9.98794 18.5821C9.98794 18.6481 9.9769 18.7032 9.96218 18.6995C9.91433 18.6959 8.46045 16.7208 8.46045 16.6621C8.46045 16.6327 8.79907 16.2216 9.21499 15.7443L9.96954 14.878L9.98794 15.1716C9.99898 15.3368 10.0284 15.4874 10.0579 15.5241Z" fill="#2E7D32"/>
</svg>
