<svg width="35" height="24" viewBox="0 0 35 24" fill="none" xmlns="http://www.w3.org/2000/svg">
<g clip-path="url(#clip0_2229_1376)">
<path d="M13.595 17.0649V6.93507L22.5289 12.0002L13.595 17.0649ZM33.4675 3.74768C33.0744 2.27245 31.9161 1.11077 30.4455 0.716516C27.7799 0 17.0909 0 17.0909 0C17.0909 0 6.40196 0 3.73629 0.716516C2.26563 1.11077 1.10733 2.27245 0.71427 3.74768C0 6.42141 0 12 0 12C0 12 0 17.5785 0.71427 20.2523C1.10733 21.7275 2.26563 22.8892 3.73629 23.2836C6.40196 24 17.0909 24 17.0909 24C17.0909 24 27.7799 24 30.4455 23.2836C31.9161 22.8892 33.0744 21.7275 33.4675 20.2523C34.1818 17.5785 34.1818 12 34.1818 12C34.1818 12 34.1818 6.42141 33.4675 3.74768Z" fill="#BDBDBD"/>
</g>
<defs>
<clipPath id="clip0_2229_1376">
<rect width="34.1818" height="24" fill="white"/>
</clipPath>
</defs>
</svg>
